<svg width="258" height="274" viewBox="0 0 258 274" fill="none" xmlns="http://www.w3.org/2000/svg">
<rect width="258" height="274" fill="white"/>
<rect x="69.125" y="144.125" width="19.75" height="19.75" fill="white" stroke="#A9A9A9" stroke-width="0.25"/>
<rect x="69.125" y="124.125" width="19.75" height="19.75" fill="white" stroke="#A9A9A9" stroke-width="0.25"/>
<rect x="69.125" y="164.125" width="19.75" height="19.75" fill="white" stroke="#A9A9A9" stroke-width="0.25"/>
<path d="M108.875 223.698L89.3018 204.125H108.875V223.698Z" fill="black" stroke="#A9A9A9" stroke-width="0.25"/>
<rect x="169.125" y="144.125" width="19.75" height="19.75" fill="white" stroke="#A9A9A9" stroke-width="0.25"/>
<rect x="169.125" y="124.125" width="19.75" height="19.75" fill="white" stroke="#A9A9A9" stroke-width="0.25"/>
<rect x="169.125" y="164.125" width="19.75" height="19.75" fill="white" stroke="#A9A9A9" stroke-width="0.25"/>
<rect x="69.125" y="144.125" width="19.75" height="19.75" fill="white" stroke="#A9A9A9" stroke-width="0.25"/>
<rect x="69.125" y="124.125" width="19.75" height="19.75" fill="white" stroke="#A9A9A9" stroke-width="0.25"/>
<rect x="69.125" y="164.125" width="19.75" height="19.75" fill="white" stroke="#A9A9A9" stroke-width="0.25"/>
<rect x="169.125" y="144.125" width="19.75" height="19.75" fill="white" stroke="#A9A9A9" stroke-width="0.25"/>
<rect x="169.125" y="124.125" width="19.75" height="19.75" fill="white" stroke="#A9A9A9" stroke-width="0.25"/>
<rect x="169.125" y="164.125" width="19.75" height="19.75" fill="white" stroke="#A9A9A9" stroke-width="0.25"/>
<rect x="69.125" y="144.125" width="19.75" height="19.75" fill="white" stroke="#A9A9A9" stroke-width="0.25"/>
<rect x="69.125" y="124.125" width="19.75" height="19.75" fill="white" stroke="#A9A9A9" stroke-width="0.25"/>
<rect x="69.125" y="164.125" width="19.75" height="19.75" fill="white" stroke="#A9A9A9" stroke-width="0.25"/>
<rect x="169.125" y="144.125" width="19.75" height="19.75" fill="white" stroke="#A9A9A9" stroke-width="0.25"/>
<rect x="169.125" y="124.125" width="19.75" height="19.75" fill="white" stroke="#A9A9A9" stroke-width="0.25"/>
<rect x="169.125" y="164.125" width="19.75" height="19.75" fill="white" stroke="#A9A9A9" stroke-width="0.25"/>
<rect x="69.125" y="144.125" width="19.75" height="19.75" fill="white" stroke="#A9A9A9" stroke-width="0.25"/>
<rect x="69.125" y="124.125" width="19.75" height="19.75" fill="white" stroke="#A9A9A9" stroke-width="0.25"/>
<rect x="69.125" y="164.125" width="19.75" height="19.75" fill="white" stroke="#A9A9A9" stroke-width="0.25"/>
<rect x="169.125" y="144.125" width="19.75" height="19.75" fill="white" stroke="#A9A9A9" stroke-width="0.25"/>
<rect x="169.125" y="124.125" width="19.75" height="19.75" fill="white" stroke="#A9A9A9" stroke-width="0.25"/>
<rect x="169.125" y="164.125" width="19.75" height="19.75" fill="white" stroke="#A9A9A9" stroke-width="0.25"/>
<rect x="69.125" y="144.125" width="19.75" height="19.75" fill="white" stroke="#A9A9A9" stroke-width="0.25"/>
<rect x="69.125" y="124.125" width="19.75" height="19.75" fill="white" stroke="#A9A9A9" stroke-width="0.25"/>
<rect x="69.125" y="164.125" width="19.75" height="19.75" fill="white" stroke="#A9A9A9" stroke-width="0.25"/>
<rect x="169.125" y="144.125" width="19.75" height="19.75" fill="white" stroke="#A9A9A9" stroke-width="0.25"/>
<rect x="169.125" y="124.125" width="19.75" height="19.75" fill="white" stroke="#A9A9A9" stroke-width="0.25"/>
<rect x="169.125" y="164.125" width="19.75" height="19.75" fill="white" stroke="#A9A9A9" stroke-width="0.25"/>
<rect x="69.125" y="144.125" width="19.75" height="19.75" fill="white" stroke="#A9A9A9" stroke-width="0.25"/>
<rect x="69.125" y="124.125" width="19.75" height="19.75" fill="white" stroke="#A9A9A9" stroke-width="0.25"/>
<rect x="69.125" y="164.125" width="19.75" height="19.75" fill="white" stroke="#A9A9A9" stroke-width="0.25"/>
<rect x="169.125" y="144.125" width="19.75" height="19.75" fill="white" stroke="#A9A9A9" stroke-width="0.25"/>
<rect x="169.125" y="124.125" width="19.75" height="19.75" fill="white" stroke="#A9A9A9" stroke-width="0.25"/>
<rect x="169.125" y="164.125" width="19.75" height="19.75" fill="white" stroke="#A9A9A9" stroke-width="0.25"/>
<rect x="69.125" y="144.125" width="19.75" height="19.75" fill="black" stroke="#A9A9A9" stroke-width="0.25"/>
<rect x="69.125" y="124.125" width="19.75" height="19.75" fill="white" stroke="#A9A9A9" stroke-width="0.25"/>
<rect x="69.125" y="164.125" width="19.75" height="19.75" fill="black" stroke="#A9A9A9" stroke-width="0.25"/>
<rect x="169.125" y="144.125" width="19.75" height="19.75" fill="black" stroke="#A9A9A9" stroke-width="0.25"/>
<rect x="169.125" y="124.125" width="19.75" height="19.75" fill="white" stroke="#A9A9A9" stroke-width="0.25"/>
<rect x="169.125" y="164.125" width="19.75" height="19.75" fill="black" stroke="#A9A9A9" stroke-width="0.25"/>
<rect x="69.125" y="124.125" width="19.75" height="19.75" fill="black" stroke="#A9A9A9" stroke-width="0.25"/>
<rect x="169.125" y="124.125" width="19.75" height="19.75" fill="black" stroke="#A9A9A9" stroke-width="0.25"/>
<path d="M89.125 104.125H108.698L89.125 123.698V104.125Z" fill="black" stroke="#A9A9A9" stroke-width="0.25"/>
<path d="M109.125 84.125H128.698L109.125 103.698V84.125Z" fill="black" stroke="#A9A9A9" stroke-width="0.25"/>
<path d="M129.125 224.125H148.698L129.125 243.698V224.125Z" fill="black" stroke="#A9A9A9" stroke-width="0.25"/>
<path d="M149.125 204.125H168.698L149.125 223.698V204.125Z" fill="black" stroke="#A9A9A9" stroke-width="0.25"/>
<path d="M169.125 184.125H188.698L169.125 203.698V184.125Z" fill="black" stroke="#A9A9A9" stroke-width="0.25"/>
<path d="M89.125 203.875V184.302L108.698 203.875H89.125Z" fill="black" stroke="#A9A9A9" stroke-width="0.25"/>
<path d="M109.125 223.875V204.302L128.698 223.875H109.125Z" fill="black" stroke="#A9A9A9" stroke-width="0.25"/>
<path d="M129.125 83.875V64.3018L148.698 83.875H129.125Z" fill="black" stroke="#A9A9A9" stroke-width="0.25"/>
<path d="M149.125 103.875V84.3018L168.698 103.875H149.125Z" fill="black" stroke="#A9A9A9" stroke-width="0.25"/>
<path d="M169.125 123.875V104.302L188.698 123.875H169.125Z" fill="black" stroke="#A9A9A9" stroke-width="0.25"/>
<path d="M88.875 203.698L69.3018 184.125H88.875V203.698Z" fill="black" stroke="#A9A9A9" stroke-width="0.25"/>
<path d="M148.875 103.698L129.302 84.125H148.875V103.698Z" fill="black" stroke="#A9A9A9" stroke-width="0.25"/>
<path d="M168.875 123.698L149.302 104.125H168.875V123.698Z" fill="black" stroke="#A9A9A9" stroke-width="0.25"/>
<path d="M128.875 243.698L109.302 224.125H128.875V243.698Z" fill="black" stroke="#A9A9A9" stroke-width="0.25"/>
<path d="M148.875 223.875H129.302L148.875 204.302V223.875Z" fill="black" stroke="#A9A9A9" stroke-width="0.25"/>
<path d="M168.875 203.875H149.302L168.875 184.302V203.875Z" fill="black" stroke="#A9A9A9" stroke-width="0.25"/>
<path d="M88.875 123.875H69.3018L88.875 104.302V123.875Z" fill="black" stroke="#A9A9A9" stroke-width="0.25"/>
<path d="M108.875 103.875H89.3018L108.875 84.3018V103.875Z" fill="black" stroke="#A9A9A9" stroke-width="0.25"/>
<path d="M128.875 83.875H109.302L128.875 64.3018V83.875Z" fill="black" stroke="#A9A9A9" stroke-width="0.25"/>
</svg>
