<svg width="263" height="253" viewBox="0 0 263 253" fill="none" xmlns="http://www.w3.org/2000/svg">
<rect width="263" height="253" fill="white"/>
<rect x="-0.125" y="0.125" width="19.75" height="19.75" transform="matrix(-1 0 0 1 181.75 170)" fill="white" stroke="#A9A9A9" stroke-width="0.25"/>
<rect x="-0.125" y="0.125" width="19.75" height="19.75" transform="matrix(-1 0 0 1 141.75 170)" fill="white" stroke="#A9A9A9" stroke-width="0.25"/>
<rect x="0.125" y="-0.125" width="19.75" height="19.75" transform="matrix(1 -8.74228e-08 -8.74228e-08 -1 142 49.75)" fill="white" stroke="#A9A9A9" stroke-width="0.25"/>
<rect x="-0.125" y="0.125" width="19.75" height="19.75" transform="matrix(-1 0 0 1 161.75 170)" fill="white" stroke="#A9A9A9" stroke-width="0.25"/>
<rect x="0.125" y="-0.125" width="19.75" height="19.75" transform="matrix(1 -8.74228e-08 -8.74228e-08 -1 122 49.75)" fill="white" stroke="#A9A9A9" stroke-width="0.25"/>
<rect x="-0.125" y="0.125" width="19.75" height="19.75" transform="matrix(-1 0 0 1 121.75 170)" fill="white" stroke="#A9A9A9" stroke-width="0.25"/>
<rect x="-0.125" y="0.125" width="19.75" height="19.75" transform="matrix(-1 0 0 1 181.75 170)" fill="white" stroke="#A9A9A9" stroke-width="0.25"/>
<rect x="-0.125" y="0.125" width="19.75" height="19.75" transform="matrix(-1 0 0 1 141.75 170)" fill="white" stroke="#A9A9A9" stroke-width="0.25"/>
<rect x="0.125" y="-0.125" width="19.75" height="19.75" transform="matrix(1 -8.74228e-08 -8.74228e-08 -1 142 49.75)" fill="white" stroke="#A9A9A9" stroke-width="0.25"/>
<rect x="-0.125" y="0.125" width="19.75" height="19.75" transform="matrix(-1 0 0 1 161.75 170)" fill="white" stroke="#A9A9A9" stroke-width="0.25"/>
<rect x="0.125" y="-0.125" width="19.75" height="19.75" transform="matrix(1 -8.74228e-08 -8.74228e-08 -1 122 49.75)" fill="white" stroke="#A9A9A9" stroke-width="0.25"/>
<rect x="-0.125" y="0.125" width="19.75" height="19.75" transform="matrix(-1 0 0 1 121.75 170)" fill="white" stroke="#A9A9A9" stroke-width="0.25"/>
<rect x="-0.125" y="0.125" width="19.75" height="19.75" transform="matrix(-1 0 0 1 181.75 170)" fill="white" stroke="#A9A9A9" stroke-width="0.25"/>
<rect x="-0.125" y="0.125" width="19.75" height="19.75" transform="matrix(-1 0 0 1 141.75 170)" fill="white" stroke="#A9A9A9" stroke-width="0.25"/>
<rect x="0.125" y="-0.125" width="19.75" height="19.75" transform="matrix(1 -8.74228e-08 -8.74228e-08 -1 142 49.75)" fill="white" stroke="#A9A9A9" stroke-width="0.25"/>
<rect x="-0.125" y="0.125" width="19.75" height="19.75" transform="matrix(-1 0 0 1 161.75 170)" fill="white" stroke="#A9A9A9" stroke-width="0.25"/>
<rect x="0.125" y="-0.125" width="19.75" height="19.75" transform="matrix(1 -8.74228e-08 -8.74228e-08 -1 122 49.75)" fill="white" stroke="#A9A9A9" stroke-width="0.25"/>
<rect x="-0.125" y="0.125" width="19.75" height="19.75" transform="matrix(-1 0 0 1 121.75 170)" fill="white" stroke="#A9A9A9" stroke-width="0.25"/>
<rect x="-0.125" y="0.125" width="19.75" height="19.75" transform="matrix(-1 0 0 1 181.75 170)" fill="white" stroke="#A9A9A9" stroke-width="0.25"/>
<rect x="-0.125" y="0.125" width="19.75" height="19.75" transform="matrix(-1 0 0 1 141.75 170)" fill="white" stroke="#A9A9A9" stroke-width="0.25"/>
<rect x="0.125" y="-0.125" width="19.75" height="19.75" transform="matrix(1 -8.74228e-08 -8.74228e-08 -1 142 49.75)" fill="white" stroke="#A9A9A9" stroke-width="0.25"/>
<rect x="-0.125" y="0.125" width="19.75" height="19.75" transform="matrix(-1 0 0 1 161.75 170)" fill="white" stroke="#A9A9A9" stroke-width="0.25"/>
<rect x="0.125" y="-0.125" width="19.75" height="19.75" transform="matrix(1 -8.74228e-08 -8.74228e-08 -1 122 49.75)" fill="white" stroke="#A9A9A9" stroke-width="0.25"/>
<rect x="-0.125" y="0.125" width="19.75" height="19.75" transform="matrix(-1 0 0 1 121.75 170)" fill="white" stroke="#A9A9A9" stroke-width="0.25"/>
<rect x="-0.125" y="0.125" width="19.75" height="19.75" transform="matrix(-1 0 0 1 181.75 170)" fill="white" stroke="#A9A9A9" stroke-width="0.25"/>
<rect x="-0.125" y="0.125" width="19.75" height="19.75" transform="matrix(-1 0 0 1 141.75 170)" fill="white" stroke="#A9A9A9" stroke-width="0.25"/>
<rect x="0.125" y="-0.125" width="19.75" height="19.75" transform="matrix(1 -8.74228e-08 -8.74228e-08 -1 142 49.75)" fill="white" stroke="#A9A9A9" stroke-width="0.25"/>
<rect x="-0.125" y="0.125" width="19.75" height="19.75" transform="matrix(-1 0 0 1 161.75 170)" fill="white" stroke="#A9A9A9" stroke-width="0.25"/>
<rect x="0.125" y="-0.125" width="19.75" height="19.75" transform="matrix(1 -8.74228e-08 -8.74228e-08 -1 122 49.75)" fill="white" stroke="#A9A9A9" stroke-width="0.25"/>
<rect x="-0.125" y="0.125" width="19.75" height="19.75" transform="matrix(-1 0 0 1 121.75 170)" fill="white" stroke="#A9A9A9" stroke-width="0.25"/>
<rect x="-0.125" y="0.125" width="19.75" height="19.75" transform="matrix(-1 0 0 1 181.75 170)" fill="white" stroke="#A9A9A9" stroke-width="0.25"/>
<rect x="-0.125" y="0.125" width="19.75" height="19.75" transform="matrix(-1 0 0 1 141.75 170)" fill="white" stroke="#A9A9A9" stroke-width="0.25"/>
<rect x="0.125" y="-0.125" width="19.75" height="19.75" transform="matrix(1 -8.74228e-08 -8.74228e-08 -1 142 49.75)" fill="white" stroke="#A9A9A9" stroke-width="0.25"/>
<rect x="-0.125" y="0.125" width="19.75" height="19.75" transform="matrix(-1 0 0 1 161.75 170)" fill="white" stroke="#A9A9A9" stroke-width="0.25"/>
<rect x="0.125" y="-0.125" width="19.75" height="19.75" transform="matrix(1 -8.74228e-08 -8.74228e-08 -1 122 49.75)" fill="white" stroke="#A9A9A9" stroke-width="0.25"/>
<rect x="-0.125" y="0.125" width="19.75" height="19.75" transform="matrix(-1 0 0 1 121.75 170)" fill="white" stroke="#A9A9A9" stroke-width="0.25"/>
<rect x="-0.125" y="0.125" width="19.75" height="19.75" transform="matrix(-1 0 0 1 181.75 170)" fill="white" stroke="#A9A9A9" stroke-width="0.25"/>
<rect x="-0.125" y="0.125" width="19.75" height="19.75" transform="matrix(-1 0 0 1 141.75 170)" fill="white" stroke="#A9A9A9" stroke-width="0.25"/>
<rect x="0.125" y="-0.125" width="19.75" height="19.75" transform="matrix(1 -8.74228e-08 -8.74228e-08 -1 142 49.75)" fill="white" stroke="#A9A9A9" stroke-width="0.25"/>
<rect x="-0.125" y="0.125" width="19.75" height="19.75" transform="matrix(-1 0 0 1 161.75 170)" fill="white" stroke="#A9A9A9" stroke-width="0.25"/>
<rect x="0.125" y="-0.125" width="19.75" height="19.75" transform="matrix(1 -8.74228e-08 -8.74228e-08 -1 122 49.75)" fill="white" stroke="#A9A9A9" stroke-width="0.25"/>
<rect x="-0.125" y="0.125" width="19.75" height="19.75" transform="matrix(-1 0 0 1 121.75 170)" fill="white" stroke="#A9A9A9" stroke-width="0.25"/>
<rect x="-0.125" y="0.125" width="19.75" height="19.75" transform="matrix(-1 0 0 1 181.75 170)" fill="white" stroke="#A9A9A9" stroke-width="0.25"/>
<rect x="-0.125" y="0.125" width="19.75" height="19.75" transform="matrix(-1 0 0 1 141.75 170)" fill="white" stroke="#A9A9A9" stroke-width="0.25"/>
<rect x="0.125" y="-0.125" width="19.75" height="19.75" transform="matrix(1 -8.74228e-08 -8.74228e-08 -1 142 49.75)" fill="white" stroke="#A9A9A9" stroke-width="0.25"/>
<rect x="-0.125" y="0.125" width="19.75" height="19.75" transform="matrix(-1 0 0 1 161.75 170)" fill="white" stroke="#A9A9A9" stroke-width="0.25"/>
<rect x="0.125" y="-0.125" width="19.75" height="19.75" transform="matrix(1 -8.74228e-08 -8.74228e-08 -1 122 49.75)" fill="white" stroke="#A9A9A9" stroke-width="0.25"/>
<rect x="-0.125" y="0.125" width="19.75" height="19.75" transform="matrix(-1 0 0 1 121.75 170)" fill="white" stroke="#A9A9A9" stroke-width="0.25"/>
<rect x="-0.125" y="0.125" width="19.75" height="19.75" transform="matrix(-1 0 0 1 181.75 170)" fill="white" stroke="#A9A9A9" stroke-width="0.25"/>
<rect x="-0.125" y="0.125" width="19.75" height="19.75" transform="matrix(-1 0 0 1 141.75 170)" fill="white" stroke="#A9A9A9" stroke-width="0.25"/>
<rect x="0.125" y="-0.125" width="19.75" height="19.75" transform="matrix(1 -8.74228e-08 -8.74228e-08 -1 142 49.75)" fill="white" stroke="#A9A9A9" stroke-width="0.25"/>
<rect x="-0.125" y="0.125" width="19.75" height="19.75" transform="matrix(-1 0 0 1 161.75 170)" fill="white" stroke="#A9A9A9" stroke-width="0.25"/>
<rect x="0.125" y="-0.125" width="19.75" height="19.75" transform="matrix(1 -8.74228e-08 -8.74228e-08 -1 122 49.75)" fill="white" stroke="#A9A9A9" stroke-width="0.25"/>
<rect x="-0.125" y="0.125" width="19.75" height="19.75" transform="matrix(-1 0 0 1 121.75 170)" fill="white" stroke="#A9A9A9" stroke-width="0.25"/>
<rect x="-0.125" y="0.125" width="19.75" height="19.75" transform="matrix(-1 0 0 1 181.75 170)" fill="white" stroke="#A9A9A9" stroke-width="0.25"/>
<rect x="-0.125" y="0.125" width="19.75" height="19.75" transform="matrix(-1 0 0 1 141.75 170)" fill="white" stroke="#A9A9A9" stroke-width="0.25"/>
<rect x="0.125" y="-0.125" width="19.75" height="19.75" transform="matrix(1 -8.74228e-08 -8.74228e-08 -1 142 49.75)" fill="white" stroke="#A9A9A9" stroke-width="0.25"/>
<rect x="-0.125" y="0.125" width="19.75" height="19.75" transform="matrix(-1 0 0 1 161.75 170)" fill="white" stroke="#A9A9A9" stroke-width="0.25"/>
<rect x="0.125" y="-0.125" width="19.75" height="19.75" transform="matrix(1 -8.74228e-08 -8.74228e-08 -1 122 49.75)" fill="white" stroke="#A9A9A9" stroke-width="0.25"/>
<rect x="-0.125" y="0.125" width="19.75" height="19.75" transform="matrix(-1 0 0 1 121.75 170)" fill="white" stroke="#A9A9A9" stroke-width="0.25"/>
<rect x="-0.125" y="0.125" width="19.75" height="19.75" transform="matrix(-1 0 0 1 181.75 170)" fill="white" stroke="#A9A9A9" stroke-width="0.25"/>
<rect x="-0.125" y="0.125" width="19.75" height="19.75" transform="matrix(-1 0 0 1 141.75 170)" fill="white" stroke="#A9A9A9" stroke-width="0.25"/>
<rect x="0.125" y="-0.125" width="19.75" height="19.75" transform="matrix(1 -8.74228e-08 -8.74228e-08 -1 142 49.75)" fill="white" stroke="#A9A9A9" stroke-width="0.25"/>
<rect x="-0.125" y="0.125" width="19.75" height="19.75" transform="matrix(-1 0 0 1 161.75 170)" fill="white" stroke="#A9A9A9" stroke-width="0.25"/>
<rect x="0.125" y="-0.125" width="19.75" height="19.75" transform="matrix(1 -8.74228e-08 -8.74228e-08 -1 122 49.75)" fill="white" stroke="#A9A9A9" stroke-width="0.25"/>
<rect x="-0.125" y="0.125" width="19.75" height="19.75" transform="matrix(-1 0 0 1 121.75 170)" fill="white" stroke="#A9A9A9" stroke-width="0.25"/>
<rect x="-0.125" y="0.125" width="19.75" height="19.75" transform="matrix(-1 0 0 1 181.75 170)" fill="white" stroke="#A9A9A9" stroke-width="0.25"/>
<rect x="-0.125" y="0.125" width="19.75" height="19.75" transform="matrix(-1 0 0 1 141.75 170)" fill="white" stroke="#A9A9A9" stroke-width="0.25"/>
<rect x="0.125" y="-0.125" width="19.75" height="19.75" transform="matrix(1 -8.74228e-08 -8.74228e-08 -1 142 49.75)" fill="white" stroke="#A9A9A9" stroke-width="0.25"/>
<rect x="-0.125" y="0.125" width="19.75" height="19.75" transform="matrix(-1 0 0 1 161.75 170)" fill="white" stroke="#A9A9A9" stroke-width="0.25"/>
<rect x="0.125" y="-0.125" width="19.75" height="19.75" transform="matrix(1 -8.74228e-08 -8.74228e-08 -1 122 49.75)" fill="white" stroke="#A9A9A9" stroke-width="0.25"/>
<rect x="-0.125" y="0.125" width="19.75" height="19.75" transform="matrix(-1 0 0 1 121.75 170)" fill="white" stroke="#A9A9A9" stroke-width="0.25"/>
<rect x="-0.125" y="0.125" width="19.75" height="19.75" transform="matrix(-1 0 0 1 181.75 170)" fill="white" stroke="#A9A9A9" stroke-width="0.25"/>
<rect x="-0.125" y="0.125" width="19.75" height="19.75" transform="matrix(-1 0 0 1 141.75 170)" fill="white" stroke="#A9A9A9" stroke-width="0.25"/>
<rect x="0.125" y="-0.125" width="19.75" height="19.75" transform="matrix(1 -8.74228e-08 -8.74228e-08 -1 142 49.75)" fill="white" stroke="#A9A9A9" stroke-width="0.25"/>
<rect x="-0.125" y="0.125" width="19.75" height="19.75" transform="matrix(-1 0 0 1 161.75 170)" fill="white" stroke="#A9A9A9" stroke-width="0.25"/>
<rect x="0.125" y="-0.125" width="19.75" height="19.75" transform="matrix(1 -8.74228e-08 -8.74228e-08 -1 122 49.75)" fill="white" stroke="#A9A9A9" stroke-width="0.25"/>
<rect x="-0.125" y="0.125" width="19.75" height="19.75" transform="matrix(-1 0 0 1 121.75 170)" fill="white" stroke="#A9A9A9" stroke-width="0.25"/>
<rect x="-0.125" y="0.125" width="19.75" height="19.75" transform="matrix(-1 0 0 1 181.75 170)" fill="black" stroke="#A9A9A9" stroke-width="0.25"/>
<rect x="-0.125" y="0.125" width="19.75" height="19.75" transform="matrix(-1 0 0 1 141.75 170)" fill="white" stroke="#A9A9A9" stroke-width="0.25"/>
<rect x="0.125" y="-0.125" width="19.75" height="19.75" transform="matrix(1 -8.74228e-08 -8.74228e-08 -1 142 49.75)" fill="white" stroke="#A9A9A9" stroke-width="0.25"/>
<rect x="-0.125" y="0.125" width="19.75" height="19.75" transform="matrix(-1 0 0 1 161.75 170)" fill="white" stroke="#A9A9A9" stroke-width="0.25"/>
<rect x="0.125" y="-0.125" width="19.75" height="19.75" transform="matrix(1 -8.74228e-08 -8.74228e-08 -1 122 49.75)" fill="white" stroke="#A9A9A9" stroke-width="0.25"/>
<rect x="-0.125" y="0.125" width="19.75" height="19.75" transform="matrix(-1 0 0 1 121.75 170)" fill="black" stroke="#A9A9A9" stroke-width="0.25"/>
<rect x="-0.125" y="0.125" width="19.75" height="19.75" transform="matrix(-1 0 0 1 141.75 170)" fill="black" stroke="#A9A9A9" stroke-width="0.25"/>
<rect x="0.125" y="-0.125" width="19.75" height="19.75" transform="matrix(1 -8.74228e-08 -8.74228e-08 -1 142 49.75)" fill="white" stroke="#A9A9A9" stroke-width="0.25"/>
<rect x="-0.125" y="0.125" width="19.75" height="19.75" transform="matrix(-1 0 0 1 161.75 170)" fill="black" stroke="#A9A9A9" stroke-width="0.25"/>
<rect x="0.125" y="-0.125" width="19.75" height="19.75" transform="matrix(1 -8.74228e-08 -8.74228e-08 -1 122 49.75)" fill="white" stroke="#A9A9A9" stroke-width="0.25"/>
<rect x="0.125" y="-0.125" width="19.75" height="19.75" transform="matrix(1 -8.74228e-08 -8.74228e-08 -1 142 49.75)" fill="black" stroke="#A9A9A9" stroke-width="0.25"/>
<rect x="0.125" y="-0.125" width="19.75" height="19.75" transform="matrix(1 -8.74228e-08 -8.74228e-08 -1 122 49.75)" fill="black" stroke="#A9A9A9" stroke-width="0.25"/>
<path d="M102.125 50.125H121.698L102.125 69.6982V50.125Z" fill="black" stroke="#A9A9A9" stroke-width="0.25"/>
<path d="M182.125 70.125H201.698L182.125 89.6982V70.125Z" fill="black" stroke="#A9A9A9" stroke-width="0.25"/>
<path d="M162.125 90.125H181.698L162.125 109.698V90.125Z" fill="black" stroke="#A9A9A9" stroke-width="0.25"/>
<path d="M142.125 110.125H161.698L142.125 129.698V110.125Z" fill="black" stroke="#A9A9A9" stroke-width="0.25"/>
<path d="M122.125 130.125H141.698L122.125 149.698V130.125Z" fill="black" stroke="#A9A9A9" stroke-width="0.25"/>
<path d="M102.125 150.125H121.698L102.125 169.698V150.125Z" fill="black" stroke="#A9A9A9" stroke-width="0.25"/>
<path d="M182.125 190.125H201.698L182.125 209.698V190.125Z" fill="black" stroke="#A9A9A9" stroke-width="0.25"/>
<path d="M162.125 49.875V30.3018L181.698 49.875H162.125Z" fill="black" stroke="#A9A9A9" stroke-width="0.25"/>
<path d="M182.125 69.875V50.3018L201.698 69.875H182.125Z" fill="black" stroke="#A9A9A9" stroke-width="0.25"/>
<path d="M182.125 189.875V170.302L201.698 189.875H182.125Z" fill="black" stroke="#A9A9A9" stroke-width="0.25"/>
<path d="M101.875 69.6982L82.3018 50.125H101.875V69.6982Z" fill="black" stroke="#A9A9A9" stroke-width="0.25"/>
<path d="M181.875 69.6982L162.302 50.125H181.875V69.6982Z" fill="black" stroke="#A9A9A9" stroke-width="0.25"/>
<path d="M101.875 189.698L82.3018 170.125H101.875V189.698Z" fill="black" stroke="#A9A9A9" stroke-width="0.25"/>
<path d="M121.875 49.875H102.302L121.875 30.3018V49.875Z" fill="black" stroke="#A9A9A9" stroke-width="0.25"/>
<path d="M101.875 49.875H82.3018L101.875 30.3018V49.875Z" fill="black" stroke="#A9A9A9" stroke-width="0.25"/>
<path d="M181.875 89.875H162.302L181.875 70.3018V89.875Z" fill="black" stroke="#A9A9A9" stroke-width="0.25"/>
<path d="M141.875 129.875H122.302L141.875 110.302V129.875Z" fill="black" stroke="#A9A9A9" stroke-width="0.25"/>
<path d="M121.875 149.875H102.302L121.875 130.302V149.875Z" fill="black" stroke="#A9A9A9" stroke-width="0.25"/>
<path d="M161.875 109.875H142.302L161.875 90.3018V109.875Z" fill="black" stroke="#A9A9A9" stroke-width="0.25"/>
<path d="M101.875 169.875H82.3018L101.875 150.302V169.875Z" fill="black" stroke="#A9A9A9" stroke-width="0.25"/>
</svg>
