<svg width="240" height="247" viewBox="0 0 240 247" fill="none" xmlns="http://www.w3.org/2000/svg">
<rect width="240" height="247" fill="white"/>
<rect x="97.875" y="199.875" width="19.75" height="19.75" transform="rotate(-180 97.875 199.875)" fill="white" stroke="#A9A9A9" stroke-width="0.25"/>
<rect x="97.875" y="119.875" width="19.75" height="19.75" transform="rotate(-180 97.875 119.875)" fill="white" stroke="#A9A9A9" stroke-width="0.25"/>
<rect x="97.875" y="39.875" width="19.75" height="19.75" transform="rotate(-180 97.875 39.875)" fill="white" stroke="#A9A9A9" stroke-width="0.25"/>
<rect x="137.875" y="199.875" width="19.75" height="19.75" transform="rotate(-180 137.875 199.875)" fill="white" stroke="#A9A9A9" stroke-width="0.25"/>
<rect x="137.875" y="159.875" width="19.75" height="19.75" transform="rotate(-180 137.875 159.875)" fill="white" stroke="#A9A9A9" stroke-width="0.25"/>
<rect x="137.875" y="119.875" width="19.75" height="19.75" transform="rotate(-180 137.875 119.875)" fill="white" stroke="#A9A9A9" stroke-width="0.25"/>
<rect x="137.875" y="59.875" width="19.75" height="19.75" transform="rotate(-180 137.875 59.875)" fill="white" stroke="#A9A9A9" stroke-width="0.25"/>
<rect x="137.875" y="179.875" width="19.75" height="19.75" transform="rotate(-180 137.875 179.875)" fill="white" stroke="#A9A9A9" stroke-width="0.25"/>
<rect x="137.875" y="139.875" width="19.75" height="19.75" transform="rotate(-180 137.875 139.875)" fill="white" stroke="#A9A9A9" stroke-width="0.25"/>
<rect x="137.875" y="79.875" width="19.75" height="19.75" transform="rotate(-180 137.875 79.875)" fill="white" stroke="#A9A9A9" stroke-width="0.25"/>
<rect x="137.875" y="99.875" width="19.75" height="19.75" transform="rotate(-180 137.875 99.875)" fill="white" stroke="#A9A9A9" stroke-width="0.25"/>
<rect x="137.875" y="39.875" width="19.75" height="19.75" transform="rotate(-180 137.875 39.875)" fill="white" stroke="#A9A9A9" stroke-width="0.25"/>
<rect x="57.875" y="199.875" width="19.75" height="19.75" transform="rotate(-180 57.875 199.875)" fill="white" stroke="#A9A9A9" stroke-width="0.25"/>
<rect x="57.875" y="159.875" width="19.75" height="19.75" transform="rotate(-180 57.875 159.875)" fill="white" stroke="#A9A9A9" stroke-width="0.25"/>
<rect x="57.875" y="119.875" width="19.75" height="19.75" transform="rotate(-180 57.875 119.875)" fill="white" stroke="#A9A9A9" stroke-width="0.25"/>
<rect x="57.875" y="59.875" width="19.75" height="19.75" transform="rotate(-180 57.875 59.875)" fill="white" stroke="#A9A9A9" stroke-width="0.25"/>
<rect x="57.875" y="179.875" width="19.75" height="19.75" transform="rotate(-180 57.875 179.875)" fill="white" stroke="#A9A9A9" stroke-width="0.25"/>
<rect x="57.875" y="139.875" width="19.75" height="19.75" transform="rotate(-180 57.875 139.875)" fill="white" stroke="#A9A9A9" stroke-width="0.25"/>
<rect x="57.875" y="79.875" width="19.75" height="19.75" transform="rotate(-180 57.875 79.875)" fill="white" stroke="#A9A9A9" stroke-width="0.25"/>
<rect x="57.875" y="99.875" width="19.75" height="19.75" transform="rotate(-180 57.875 99.875)" fill="white" stroke="#A9A9A9" stroke-width="0.25"/>
<rect x="57.875" y="39.875" width="19.75" height="19.75" transform="rotate(-180 57.875 39.875)" fill="white" stroke="#A9A9A9" stroke-width="0.25"/>
<rect x="77.875" y="199.875" width="19.75" height="19.75" transform="rotate(-180 77.875 199.875)" fill="white" stroke="#A9A9A9" stroke-width="0.25"/>
<rect x="77.875" y="119.875" width="19.75" height="19.75" transform="rotate(-180 77.875 119.875)" fill="white" stroke="#A9A9A9" stroke-width="0.25"/>
<rect x="77.875" y="39.875" width="19.75" height="19.75" transform="rotate(-180 77.875 39.875)" fill="white" stroke="#A9A9A9" stroke-width="0.25"/>
<rect x="117.875" y="199.875" width="19.75" height="19.75" transform="rotate(-180 117.875 199.875)" fill="white" stroke="#A9A9A9" stroke-width="0.25"/>
<rect x="117.875" y="119.875" width="19.75" height="19.75" transform="rotate(-180 117.875 119.875)" fill="white" stroke="#A9A9A9" stroke-width="0.25"/>
<rect x="117.875" y="39.875" width="19.75" height="19.75" transform="rotate(-180 117.875 39.875)" fill="white" stroke="#A9A9A9" stroke-width="0.25"/>
<rect x="97.875" y="199.875" width="19.75" height="19.75" transform="rotate(-180 97.875 199.875)" fill="white" stroke="#A9A9A9" stroke-width="0.25"/>
<rect x="97.875" y="119.875" width="19.75" height="19.75" transform="rotate(-180 97.875 119.875)" fill="white" stroke="#A9A9A9" stroke-width="0.25"/>
<rect x="97.875" y="39.875" width="19.75" height="19.75" transform="rotate(-180 97.875 39.875)" fill="white" stroke="#A9A9A9" stroke-width="0.25"/>
<rect x="137.875" y="199.875" width="19.75" height="19.75" transform="rotate(-180 137.875 199.875)" fill="white" stroke="#A9A9A9" stroke-width="0.25"/>
<rect x="137.875" y="159.875" width="19.75" height="19.75" transform="rotate(-180 137.875 159.875)" fill="white" stroke="#A9A9A9" stroke-width="0.25"/>
<rect x="137.875" y="119.875" width="19.75" height="19.75" transform="rotate(-180 137.875 119.875)" fill="white" stroke="#A9A9A9" stroke-width="0.25"/>
<rect x="137.875" y="59.875" width="19.75" height="19.75" transform="rotate(-180 137.875 59.875)" fill="white" stroke="#A9A9A9" stroke-width="0.25"/>
<rect x="137.875" y="179.875" width="19.75" height="19.75" transform="rotate(-180 137.875 179.875)" fill="white" stroke="#A9A9A9" stroke-width="0.25"/>
<rect x="137.875" y="139.875" width="19.75" height="19.75" transform="rotate(-180 137.875 139.875)" fill="white" stroke="#A9A9A9" stroke-width="0.25"/>
<rect x="137.875" y="79.875" width="19.75" height="19.75" transform="rotate(-180 137.875 79.875)" fill="white" stroke="#A9A9A9" stroke-width="0.25"/>
<rect x="137.875" y="99.875" width="19.75" height="19.75" transform="rotate(-180 137.875 99.875)" fill="white" stroke="#A9A9A9" stroke-width="0.25"/>
<rect x="137.875" y="39.875" width="19.75" height="19.75" transform="rotate(-180 137.875 39.875)" fill="white" stroke="#A9A9A9" stroke-width="0.25"/>
<rect x="57.875" y="199.875" width="19.75" height="19.75" transform="rotate(-180 57.875 199.875)" fill="white" stroke="#A9A9A9" stroke-width="0.25"/>
<rect x="57.875" y="159.875" width="19.75" height="19.75" transform="rotate(-180 57.875 159.875)" fill="white" stroke="#A9A9A9" stroke-width="0.25"/>
<rect x="57.875" y="119.875" width="19.75" height="19.75" transform="rotate(-180 57.875 119.875)" fill="white" stroke="#A9A9A9" stroke-width="0.25"/>
<rect x="57.875" y="59.875" width="19.75" height="19.75" transform="rotate(-180 57.875 59.875)" fill="white" stroke="#A9A9A9" stroke-width="0.25"/>
<rect x="57.875" y="179.875" width="19.75" height="19.75" transform="rotate(-180 57.875 179.875)" fill="white" stroke="#A9A9A9" stroke-width="0.25"/>
<rect x="57.875" y="139.875" width="19.75" height="19.75" transform="rotate(-180 57.875 139.875)" fill="white" stroke="#A9A9A9" stroke-width="0.25"/>
<rect x="57.875" y="79.875" width="19.75" height="19.75" transform="rotate(-180 57.875 79.875)" fill="white" stroke="#A9A9A9" stroke-width="0.25"/>
<rect x="57.875" y="99.875" width="19.75" height="19.75" transform="rotate(-180 57.875 99.875)" fill="white" stroke="#A9A9A9" stroke-width="0.25"/>
<rect x="57.875" y="39.875" width="19.75" height="19.75" transform="rotate(-180 57.875 39.875)" fill="white" stroke="#A9A9A9" stroke-width="0.25"/>
<rect x="77.875" y="199.875" width="19.75" height="19.75" transform="rotate(-180 77.875 199.875)" fill="white" stroke="#A9A9A9" stroke-width="0.25"/>
<rect x="77.875" y="119.875" width="19.75" height="19.75" transform="rotate(-180 77.875 119.875)" fill="white" stroke="#A9A9A9" stroke-width="0.25"/>
<rect x="77.875" y="39.875" width="19.75" height="19.75" transform="rotate(-180 77.875 39.875)" fill="white" stroke="#A9A9A9" stroke-width="0.25"/>
<rect x="117.875" y="199.875" width="19.75" height="19.75" transform="rotate(-180 117.875 199.875)" fill="white" stroke="#A9A9A9" stroke-width="0.25"/>
<rect x="117.875" y="119.875" width="19.75" height="19.75" transform="rotate(-180 117.875 119.875)" fill="white" stroke="#A9A9A9" stroke-width="0.25"/>
<rect x="117.875" y="39.875" width="19.75" height="19.75" transform="rotate(-180 117.875 39.875)" fill="white" stroke="#A9A9A9" stroke-width="0.25"/>
<rect x="97.875" y="199.875" width="19.75" height="19.75" transform="rotate(-180 97.875 199.875)" fill="white" stroke="#A9A9A9" stroke-width="0.25"/>
<rect x="97.875" y="119.875" width="19.75" height="19.75" transform="rotate(-180 97.875 119.875)" fill="white" stroke="#A9A9A9" stroke-width="0.25"/>
<rect x="97.875" y="39.875" width="19.75" height="19.75" transform="rotate(-180 97.875 39.875)" fill="white" stroke="#A9A9A9" stroke-width="0.25"/>
<rect x="137.875" y="199.875" width="19.75" height="19.75" transform="rotate(-180 137.875 199.875)" fill="white" stroke="#A9A9A9" stroke-width="0.25"/>
<rect x="137.875" y="159.875" width="19.75" height="19.75" transform="rotate(-180 137.875 159.875)" fill="white" stroke="#A9A9A9" stroke-width="0.25"/>
<rect x="137.875" y="119.875" width="19.75" height="19.75" transform="rotate(-180 137.875 119.875)" fill="white" stroke="#A9A9A9" stroke-width="0.25"/>
<rect x="137.875" y="59.875" width="19.75" height="19.75" transform="rotate(-180 137.875 59.875)" fill="white" stroke="#A9A9A9" stroke-width="0.25"/>
<rect x="137.875" y="179.875" width="19.75" height="19.75" transform="rotate(-180 137.875 179.875)" fill="white" stroke="#A9A9A9" stroke-width="0.25"/>
<rect x="137.875" y="139.875" width="19.75" height="19.75" transform="rotate(-180 137.875 139.875)" fill="white" stroke="#A9A9A9" stroke-width="0.25"/>
<rect x="137.875" y="79.875" width="19.75" height="19.75" transform="rotate(-180 137.875 79.875)" fill="white" stroke="#A9A9A9" stroke-width="0.25"/>
<rect x="137.875" y="99.875" width="19.75" height="19.75" transform="rotate(-180 137.875 99.875)" fill="white" stroke="#A9A9A9" stroke-width="0.25"/>
<rect x="137.875" y="39.875" width="19.75" height="19.75" transform="rotate(-180 137.875 39.875)" fill="white" stroke="#A9A9A9" stroke-width="0.25"/>
<rect x="57.875" y="199.875" width="19.75" height="19.75" transform="rotate(-180 57.875 199.875)" fill="white" stroke="#A9A9A9" stroke-width="0.25"/>
<rect x="57.875" y="159.875" width="19.75" height="19.75" transform="rotate(-180 57.875 159.875)" fill="white" stroke="#A9A9A9" stroke-width="0.25"/>
<rect x="57.875" y="119.875" width="19.75" height="19.75" transform="rotate(-180 57.875 119.875)" fill="white" stroke="#A9A9A9" stroke-width="0.25"/>
<rect x="57.875" y="59.875" width="19.75" height="19.75" transform="rotate(-180 57.875 59.875)" fill="white" stroke="#A9A9A9" stroke-width="0.25"/>
<rect x="57.875" y="179.875" width="19.75" height="19.75" transform="rotate(-180 57.875 179.875)" fill="white" stroke="#A9A9A9" stroke-width="0.25"/>
<rect x="57.875" y="139.875" width="19.75" height="19.75" transform="rotate(-180 57.875 139.875)" fill="white" stroke="#A9A9A9" stroke-width="0.25"/>
<rect x="57.875" y="79.875" width="19.75" height="19.75" transform="rotate(-180 57.875 79.875)" fill="white" stroke="#A9A9A9" stroke-width="0.25"/>
<rect x="57.875" y="99.875" width="19.75" height="19.75" transform="rotate(-180 57.875 99.875)" fill="white" stroke="#A9A9A9" stroke-width="0.25"/>
<rect x="57.875" y="39.875" width="19.75" height="19.75" transform="rotate(-180 57.875 39.875)" fill="white" stroke="#A9A9A9" stroke-width="0.25"/>
<rect x="77.875" y="199.875" width="19.75" height="19.75" transform="rotate(-180 77.875 199.875)" fill="white" stroke="#A9A9A9" stroke-width="0.25"/>
<rect x="77.875" y="119.875" width="19.75" height="19.75" transform="rotate(-180 77.875 119.875)" fill="white" stroke="#A9A9A9" stroke-width="0.25"/>
<rect x="77.875" y="39.875" width="19.75" height="19.75" transform="rotate(-180 77.875 39.875)" fill="white" stroke="#A9A9A9" stroke-width="0.25"/>
<rect x="117.875" y="199.875" width="19.75" height="19.75" transform="rotate(-180 117.875 199.875)" fill="white" stroke="#A9A9A9" stroke-width="0.25"/>
<rect x="117.875" y="119.875" width="19.75" height="19.75" transform="rotate(-180 117.875 119.875)" fill="white" stroke="#A9A9A9" stroke-width="0.25"/>
<rect x="117.875" y="39.875" width="19.75" height="19.75" transform="rotate(-180 117.875 39.875)" fill="white" stroke="#A9A9A9" stroke-width="0.25"/>
<rect x="97.875" y="199.875" width="19.75" height="19.75" transform="rotate(-180 97.875 199.875)" fill="white" stroke="#A9A9A9" stroke-width="0.25"/>
<rect x="97.875" y="119.875" width="19.75" height="19.75" transform="rotate(-180 97.875 119.875)" fill="white" stroke="#A9A9A9" stroke-width="0.25"/>
<rect x="97.875" y="39.875" width="19.75" height="19.75" transform="rotate(-180 97.875 39.875)" fill="white" stroke="#A9A9A9" stroke-width="0.25"/>
<rect x="137.875" y="199.875" width="19.75" height="19.75" transform="rotate(-180 137.875 199.875)" fill="white" stroke="#A9A9A9" stroke-width="0.25"/>
<rect x="137.875" y="159.875" width="19.75" height="19.75" transform="rotate(-180 137.875 159.875)" fill="white" stroke="#A9A9A9" stroke-width="0.25"/>
<rect x="137.875" y="119.875" width="19.75" height="19.75" transform="rotate(-180 137.875 119.875)" fill="white" stroke="#A9A9A9" stroke-width="0.25"/>
<rect x="137.875" y="59.875" width="19.75" height="19.75" transform="rotate(-180 137.875 59.875)" fill="white" stroke="#A9A9A9" stroke-width="0.25"/>
<rect x="137.875" y="179.875" width="19.75" height="19.75" transform="rotate(-180 137.875 179.875)" fill="white" stroke="#A9A9A9" stroke-width="0.25"/>
<rect x="137.875" y="139.875" width="19.75" height="19.75" transform="rotate(-180 137.875 139.875)" fill="white" stroke="#A9A9A9" stroke-width="0.25"/>
<rect x="137.875" y="79.875" width="19.75" height="19.75" transform="rotate(-180 137.875 79.875)" fill="white" stroke="#A9A9A9" stroke-width="0.25"/>
<rect x="137.875" y="99.875" width="19.75" height="19.75" transform="rotate(-180 137.875 99.875)" fill="white" stroke="#A9A9A9" stroke-width="0.25"/>
<rect x="137.875" y="39.875" width="19.75" height="19.75" transform="rotate(-180 137.875 39.875)" fill="white" stroke="#A9A9A9" stroke-width="0.25"/>
<rect x="57.875" y="199.875" width="19.75" height="19.75" transform="rotate(-180 57.875 199.875)" fill="white" stroke="#A9A9A9" stroke-width="0.25"/>
<rect x="57.875" y="159.875" width="19.75" height="19.75" transform="rotate(-180 57.875 159.875)" fill="white" stroke="#A9A9A9" stroke-width="0.25"/>
<rect x="57.875" y="119.875" width="19.75" height="19.75" transform="rotate(-180 57.875 119.875)" fill="white" stroke="#A9A9A9" stroke-width="0.25"/>
<rect x="57.875" y="59.875" width="19.75" height="19.75" transform="rotate(-180 57.875 59.875)" fill="white" stroke="#A9A9A9" stroke-width="0.25"/>
<rect x="57.875" y="179.875" width="19.75" height="19.75" transform="rotate(-180 57.875 179.875)" fill="white" stroke="#A9A9A9" stroke-width="0.25"/>
<rect x="57.875" y="139.875" width="19.75" height="19.75" transform="rotate(-180 57.875 139.875)" fill="white" stroke="#A9A9A9" stroke-width="0.25"/>
<rect x="57.875" y="79.875" width="19.75" height="19.75" transform="rotate(-180 57.875 79.875)" fill="white" stroke="#A9A9A9" stroke-width="0.25"/>
<rect x="57.875" y="99.875" width="19.75" height="19.75" transform="rotate(-180 57.875 99.875)" fill="white" stroke="#A9A9A9" stroke-width="0.25"/>
<rect x="57.875" y="39.875" width="19.75" height="19.75" transform="rotate(-180 57.875 39.875)" fill="white" stroke="#A9A9A9" stroke-width="0.25"/>
<rect x="77.875" y="199.875" width="19.75" height="19.75" transform="rotate(-180 77.875 199.875)" fill="white" stroke="#A9A9A9" stroke-width="0.25"/>
<rect x="77.875" y="119.875" width="19.75" height="19.75" transform="rotate(-180 77.875 119.875)" fill="white" stroke="#A9A9A9" stroke-width="0.25"/>
<rect x="77.875" y="39.875" width="19.75" height="19.75" transform="rotate(-180 77.875 39.875)" fill="white" stroke="#A9A9A9" stroke-width="0.25"/>
<rect x="117.875" y="199.875" width="19.75" height="19.75" transform="rotate(-180 117.875 199.875)" fill="white" stroke="#A9A9A9" stroke-width="0.25"/>
<rect x="117.875" y="119.875" width="19.75" height="19.75" transform="rotate(-180 117.875 119.875)" fill="white" stroke="#A9A9A9" stroke-width="0.25"/>
<rect x="117.875" y="39.875" width="19.75" height="19.75" transform="rotate(-180 117.875 39.875)" fill="white" stroke="#A9A9A9" stroke-width="0.25"/>
<rect x="97.875" y="199.875" width="19.75" height="19.75" transform="rotate(-180 97.875 199.875)" fill="white" stroke="#A9A9A9" stroke-width="0.25"/>
<rect x="97.875" y="119.875" width="19.75" height="19.75" transform="rotate(-180 97.875 119.875)" fill="white" stroke="#A9A9A9" stroke-width="0.25"/>
<rect x="97.875" y="39.875" width="19.75" height="19.75" transform="rotate(-180 97.875 39.875)" fill="white" stroke="#A9A9A9" stroke-width="0.25"/>
<rect x="137.875" y="199.875" width="19.75" height="19.75" transform="rotate(-180 137.875 199.875)" fill="white" stroke="#A9A9A9" stroke-width="0.25"/>
<rect x="137.875" y="159.875" width="19.75" height="19.75" transform="rotate(-180 137.875 159.875)" fill="white" stroke="#A9A9A9" stroke-width="0.25"/>
<rect x="137.875" y="119.875" width="19.75" height="19.75" transform="rotate(-180 137.875 119.875)" fill="white" stroke="#A9A9A9" stroke-width="0.25"/>
<rect x="137.875" y="59.875" width="19.75" height="19.75" transform="rotate(-180 137.875 59.875)" fill="white" stroke="#A9A9A9" stroke-width="0.25"/>
<rect x="137.875" y="179.875" width="19.75" height="19.75" transform="rotate(-180 137.875 179.875)" fill="white" stroke="#A9A9A9" stroke-width="0.25"/>
<rect x="137.875" y="139.875" width="19.75" height="19.75" transform="rotate(-180 137.875 139.875)" fill="white" stroke="#A9A9A9" stroke-width="0.25"/>
<rect x="137.875" y="79.875" width="19.75" height="19.75" transform="rotate(-180 137.875 79.875)" fill="white" stroke="#A9A9A9" stroke-width="0.25"/>
<rect x="137.875" y="99.875" width="19.75" height="19.75" transform="rotate(-180 137.875 99.875)" fill="white" stroke="#A9A9A9" stroke-width="0.25"/>
<rect x="137.875" y="39.875" width="19.75" height="19.75" transform="rotate(-180 137.875 39.875)" fill="white" stroke="#A9A9A9" stroke-width="0.25"/>
<rect x="57.875" y="199.875" width="19.75" height="19.75" transform="rotate(-180 57.875 199.875)" fill="white" stroke="#A9A9A9" stroke-width="0.25"/>
<rect x="57.875" y="159.875" width="19.75" height="19.75" transform="rotate(-180 57.875 159.875)" fill="white" stroke="#A9A9A9" stroke-width="0.25"/>
<rect x="57.875" y="119.875" width="19.75" height="19.75" transform="rotate(-180 57.875 119.875)" fill="white" stroke="#A9A9A9" stroke-width="0.25"/>
<rect x="57.875" y="59.875" width="19.75" height="19.75" transform="rotate(-180 57.875 59.875)" fill="white" stroke="#A9A9A9" stroke-width="0.25"/>
<rect x="57.875" y="179.875" width="19.75" height="19.75" transform="rotate(-180 57.875 179.875)" fill="white" stroke="#A9A9A9" stroke-width="0.25"/>
<rect x="57.875" y="139.875" width="19.75" height="19.75" transform="rotate(-180 57.875 139.875)" fill="white" stroke="#A9A9A9" stroke-width="0.25"/>
<rect x="57.875" y="79.875" width="19.75" height="19.75" transform="rotate(-180 57.875 79.875)" fill="white" stroke="#A9A9A9" stroke-width="0.25"/>
<rect x="57.875" y="99.875" width="19.75" height="19.75" transform="rotate(-180 57.875 99.875)" fill="white" stroke="#A9A9A9" stroke-width="0.25"/>
<rect x="57.875" y="39.875" width="19.75" height="19.75" transform="rotate(-180 57.875 39.875)" fill="white" stroke="#A9A9A9" stroke-width="0.25"/>
<rect x="77.875" y="199.875" width="19.75" height="19.75" transform="rotate(-180 77.875 199.875)" fill="white" stroke="#A9A9A9" stroke-width="0.25"/>
<rect x="77.875" y="119.875" width="19.75" height="19.75" transform="rotate(-180 77.875 119.875)" fill="black" stroke="#A9A9A9" stroke-width="0.25"/>
<rect x="77.875" y="39.875" width="19.75" height="19.75" transform="rotate(-180 77.875 39.875)" fill="white" stroke="#A9A9A9" stroke-width="0.25"/>
<rect x="117.875" y="199.875" width="19.75" height="19.75" transform="rotate(-180 117.875 199.875)" fill="white" stroke="#A9A9A9" stroke-width="0.25"/>
<rect x="117.875" y="119.875" width="19.75" height="19.75" transform="rotate(-180 117.875 119.875)" fill="white" stroke="#A9A9A9" stroke-width="0.25"/>
<rect x="117.875" y="39.875" width="19.75" height="19.75" transform="rotate(-180 117.875 39.875)" fill="white" stroke="#A9A9A9" stroke-width="0.25"/>
<rect x="97.875" y="199.875" width="19.75" height="19.75" transform="rotate(-180 97.875 199.875)" fill="white" stroke="#A9A9A9" stroke-width="0.25"/>
<rect x="97.875" y="119.875" width="19.75" height="19.75" transform="rotate(-180 97.875 119.875)" fill="white" stroke="#A9A9A9" stroke-width="0.25"/>
<rect x="97.875" y="39.875" width="19.75" height="19.75" transform="rotate(-180 97.875 39.875)" fill="white" stroke="#A9A9A9" stroke-width="0.25"/>
<rect x="137.875" y="199.875" width="19.75" height="19.75" transform="rotate(-180 137.875 199.875)" fill="black" stroke="#A9A9A9" stroke-width="0.25"/>
<rect x="137.875" y="159.875" width="19.75" height="19.75" transform="rotate(-180 137.875 159.875)" fill="white" stroke="#A9A9A9" stroke-width="0.25"/>
<rect x="137.875" y="119.875" width="19.75" height="19.75" transform="rotate(-180 137.875 119.875)" fill="white" stroke="#A9A9A9" stroke-width="0.25"/>
<rect x="137.875" y="59.875" width="19.75" height="19.75" transform="rotate(-180 137.875 59.875)" fill="white" stroke="#A9A9A9" stroke-width="0.25"/>
<rect x="137.875" y="179.875" width="19.75" height="19.75" transform="rotate(-180 137.875 179.875)" fill="white" stroke="#A9A9A9" stroke-width="0.25"/>
<rect x="137.875" y="139.875" width="19.75" height="19.75" transform="rotate(-180 137.875 139.875)" fill="white" stroke="#A9A9A9" stroke-width="0.25"/>
<rect x="137.875" y="79.875" width="19.75" height="19.75" transform="rotate(-180 137.875 79.875)" fill="white" stroke="#A9A9A9" stroke-width="0.25"/>
<rect x="137.875" y="99.875" width="19.75" height="19.75" transform="rotate(-180 137.875 99.875)" fill="white" stroke="#A9A9A9" stroke-width="0.25"/>
<rect x="137.875" y="39.875" width="19.75" height="19.75" transform="rotate(-180 137.875 39.875)" fill="white" stroke="#A9A9A9" stroke-width="0.25"/>
<rect x="57.875" y="199.875" width="19.75" height="19.75" transform="rotate(-180 57.875 199.875)" fill="white" stroke="#A9A9A9" stroke-width="0.25"/>
<rect x="57.875" y="159.875" width="19.75" height="19.75" transform="rotate(-180 57.875 159.875)" fill="white" stroke="#A9A9A9" stroke-width="0.25"/>
<rect x="57.875" y="119.875" width="19.75" height="19.75" transform="rotate(-180 57.875 119.875)" fill="white" stroke="#A9A9A9" stroke-width="0.25"/>
<rect x="57.875" y="59.875" width="19.75" height="19.75" transform="rotate(-180 57.875 59.875)" fill="white" stroke="#A9A9A9" stroke-width="0.25"/>
<rect x="57.875" y="179.875" width="19.75" height="19.75" transform="rotate(-180 57.875 179.875)" fill="white" stroke="#A9A9A9" stroke-width="0.25"/>
<rect x="57.875" y="139.875" width="19.75" height="19.75" transform="rotate(-180 57.875 139.875)" fill="white" stroke="#A9A9A9" stroke-width="0.25"/>
<rect x="57.875" y="79.875" width="19.75" height="19.75" transform="rotate(-180 57.875 79.875)" fill="white" stroke="#A9A9A9" stroke-width="0.25"/>
<rect x="57.875" y="99.875" width="19.75" height="19.75" transform="rotate(-180 57.875 99.875)" fill="white" stroke="#A9A9A9" stroke-width="0.25"/>
<rect x="57.875" y="39.875" width="19.75" height="19.75" transform="rotate(-180 57.875 39.875)" fill="white" stroke="#A9A9A9" stroke-width="0.25"/>
<rect x="77.875" y="199.875" width="19.75" height="19.75" transform="rotate(-180 77.875 199.875)" fill="white" stroke="#A9A9A9" stroke-width="0.25"/>
<rect x="77.875" y="39.875" width="19.75" height="19.75" transform="rotate(-180 77.875 39.875)" fill="white" stroke="#A9A9A9" stroke-width="0.25"/>
<rect x="117.875" y="199.875" width="19.75" height="19.75" transform="rotate(-180 117.875 199.875)" fill="white" stroke="#A9A9A9" stroke-width="0.25"/>
<rect x="117.875" y="119.875" width="19.75" height="19.75" transform="rotate(-180 117.875 119.875)" fill="white" stroke="#A9A9A9" stroke-width="0.25"/>
<rect x="117.875" y="39.875" width="19.75" height="19.75" transform="rotate(-180 117.875 39.875)" fill="white" stroke="#A9A9A9" stroke-width="0.25"/>
<rect x="97.875" y="199.875" width="19.75" height="19.75" transform="rotate(-180 97.875 199.875)" fill="white" stroke="#A9A9A9" stroke-width="0.25"/>
<rect x="97.875" y="119.875" width="19.75" height="19.75" transform="rotate(-180 97.875 119.875)" fill="white" stroke="#A9A9A9" stroke-width="0.25"/>
<rect x="97.875" y="39.875" width="19.75" height="19.75" transform="rotate(-180 97.875 39.875)" fill="white" stroke="#A9A9A9" stroke-width="0.25"/>
<rect x="137.875" y="159.875" width="19.75" height="19.75" transform="rotate(-180 137.875 159.875)" fill="white" stroke="#A9A9A9" stroke-width="0.25"/>
<rect x="137.875" y="119.875" width="19.75" height="19.75" transform="rotate(-180 137.875 119.875)" fill="white" stroke="#A9A9A9" stroke-width="0.25"/>
<rect x="137.875" y="59.875" width="19.75" height="19.75" transform="rotate(-180 137.875 59.875)" fill="black" stroke="#A9A9A9" stroke-width="0.25"/>
<rect x="137.875" y="179.875" width="19.75" height="19.75" transform="rotate(-180 137.875 179.875)" fill="white" stroke="#A9A9A9" stroke-width="0.25"/>
<rect x="137.875" y="139.875" width="19.75" height="19.75" transform="rotate(-180 137.875 139.875)" fill="white" stroke="#A9A9A9" stroke-width="0.25"/>
<rect x="137.875" y="79.875" width="19.75" height="19.75" transform="rotate(-180 137.875 79.875)" fill="white" stroke="#A9A9A9" stroke-width="0.25"/>
<rect x="137.875" y="99.875" width="19.75" height="19.75" transform="rotate(-180 137.875 99.875)" fill="white" stroke="#A9A9A9" stroke-width="0.25"/>
<rect x="137.875" y="39.875" width="19.75" height="19.75" transform="rotate(-180 137.875 39.875)" fill="white" stroke="#A9A9A9" stroke-width="0.25"/>
<rect x="57.875" y="199.875" width="19.75" height="19.75" transform="rotate(-180 57.875 199.875)" fill="black" stroke="#A9A9A9" stroke-width="0.25"/>
<rect x="57.875" y="159.875" width="19.75" height="19.75" transform="rotate(-180 57.875 159.875)" fill="white" stroke="#A9A9A9" stroke-width="0.25"/>
<rect x="57.875" y="119.875" width="19.75" height="19.75" transform="rotate(-180 57.875 119.875)" fill="black" stroke="#A9A9A9" stroke-width="0.25"/>
<rect x="57.875" y="59.875" width="19.75" height="19.75" transform="rotate(-180 57.875 59.875)" fill="white" stroke="#A9A9A9" stroke-width="0.25"/>
<rect x="57.875" y="179.875" width="19.75" height="19.75" transform="rotate(-180 57.875 179.875)" fill="black" stroke="#A9A9A9" stroke-width="0.25"/>
<rect x="57.875" y="139.875" width="19.75" height="19.75" transform="rotate(-180 57.875 139.875)" fill="white" stroke="#A9A9A9" stroke-width="0.25"/>
<rect x="57.875" y="79.875" width="19.75" height="19.75" transform="rotate(-180 57.875 79.875)" fill="white" stroke="#A9A9A9" stroke-width="0.25"/>
<rect x="57.875" y="99.875" width="19.75" height="19.75" transform="rotate(-180 57.875 99.875)" fill="black" stroke="#A9A9A9" stroke-width="0.25"/>
<rect x="57.875" y="39.875" width="19.75" height="19.75" transform="rotate(-180 57.875 39.875)" fill="black" stroke="#A9A9A9" stroke-width="0.25"/>
<rect x="77.875" y="199.875" width="19.75" height="19.75" transform="rotate(-180 77.875 199.875)" fill="white" stroke="#A9A9A9" stroke-width="0.25"/>
<rect x="77.875" y="39.875" width="19.75" height="19.75" transform="rotate(-180 77.875 39.875)" fill="white" stroke="#A9A9A9" stroke-width="0.25"/>
<rect x="117.875" y="199.875" width="19.75" height="19.75" transform="rotate(-180 117.875 199.875)" fill="white" stroke="#A9A9A9" stroke-width="0.25"/>
<rect x="117.875" y="119.875" width="19.75" height="19.75" transform="rotate(-180 117.875 119.875)" fill="white" stroke="#A9A9A9" stroke-width="0.25"/>
<rect x="117.875" y="39.875" width="19.75" height="19.75" transform="rotate(-180 117.875 39.875)" fill="white" stroke="#A9A9A9" stroke-width="0.25"/>
<rect x="97.875" y="199.875" width="19.75" height="19.75" transform="rotate(-180 97.875 199.875)" fill="black" stroke="#A9A9A9" stroke-width="0.25"/>
<rect x="97.875" y="119.875" width="19.75" height="19.75" transform="rotate(-180 97.875 119.875)" fill="black" stroke="#A9A9A9" stroke-width="0.25"/>
<rect x="97.875" y="39.875" width="19.75" height="19.75" transform="rotate(-180 97.875 39.875)" fill="black" stroke="#A9A9A9" stroke-width="0.25"/>
<rect x="137.875" y="159.875" width="19.75" height="19.75" transform="rotate(-180 137.875 159.875)" fill="black" stroke="#A9A9A9" stroke-width="0.25"/>
<rect x="137.875" y="119.875" width="19.75" height="19.75" transform="rotate(-180 137.875 119.875)" fill="black" stroke="#A9A9A9" stroke-width="0.25"/>
<rect x="137.875" y="179.875" width="19.75" height="19.75" transform="rotate(-180 137.875 179.875)" fill="black" stroke="#A9A9A9" stroke-width="0.25"/>
<rect x="137.875" y="139.875" width="19.75" height="19.75" transform="rotate(-180 137.875 139.875)" fill="black" stroke="#A9A9A9" stroke-width="0.25"/>
<rect x="137.875" y="79.875" width="19.75" height="19.75" transform="rotate(-180 137.875 79.875)" fill="black" stroke="#A9A9A9" stroke-width="0.25"/>
<rect x="137.875" y="99.875" width="19.75" height="19.75" transform="rotate(-180 137.875 99.875)" fill="black" stroke="#A9A9A9" stroke-width="0.25"/>
<rect x="137.875" y="39.875" width="19.75" height="19.75" transform="rotate(-180 137.875 39.875)" fill="black" stroke="#A9A9A9" stroke-width="0.25"/>
<rect x="57.875" y="159.875" width="19.75" height="19.75" transform="rotate(-180 57.875 159.875)" fill="black" stroke="#A9A9A9" stroke-width="0.25"/>
<rect x="57.875" y="59.875" width="19.75" height="19.75" transform="rotate(-180 57.875 59.875)" fill="black" stroke="#A9A9A9" stroke-width="0.25"/>
<rect x="57.875" y="139.875" width="19.75" height="19.75" transform="rotate(-180 57.875 139.875)" fill="black" stroke="#A9A9A9" stroke-width="0.25"/>
<path d="M57.875 79.875L38.125 79.875L38.125 60.125L57.875 60.125L57.875 79.875Z" fill="black" stroke="#A9A9A9" stroke-width="0.25"/>
<rect x="77.875" y="199.875" width="19.75" height="19.75" transform="rotate(-180 77.875 199.875)" fill="black" stroke="#A9A9A9" stroke-width="0.25"/>
<rect x="77.875" y="39.875" width="19.75" height="19.75" transform="rotate(-180 77.875 39.875)" fill="black" stroke="#A9A9A9" stroke-width="0.25"/>
<rect x="117.875" y="199.875" width="19.75" height="19.75" transform="rotate(-180 117.875 199.875)" fill="black" stroke="#A9A9A9" stroke-width="0.25"/>
<rect x="117.875" y="119.875" width="19.75" height="19.75" transform="rotate(-180 117.875 119.875)" fill="black" stroke="#A9A9A9" stroke-width="0.25"/>
<rect x="117.875" y="39.875" width="19.75" height="19.75" transform="rotate(-180 117.875 39.875)" fill="black" stroke="#A9A9A9" stroke-width="0.25"/>
<path d="M118.125 200.125H137.698L118.125 219.698V200.125Z" fill="black" stroke="#A9A9A9" stroke-width="0.25"/>
<path d="M118.125 19.875V0.301777L137.698 19.875H118.125Z" fill="black" stroke="#A9A9A9" stroke-width="0.25"/>
<path d="M57.875 219.698L38.3018 200.125H57.875V219.698Z" fill="black" stroke="#A9A9A9" stroke-width="0.25"/>
<path d="M57.875 19.875H38.3018L57.875 0.301777V19.875Z" fill="black" stroke="#A9A9A9" stroke-width="0.25"/>
</svg>
