<svg width="240" height="247" viewBox="0 0 240 247" fill="none" xmlns="http://www.w3.org/2000/svg">
<rect width="240" height="247" fill="white"/>
<rect x="107.875" y="216.875" width="19.75" height="19.75" transform="rotate(-180 107.875 216.875)" fill="white" stroke="#A9A9A9" stroke-width="0.25"/>
<rect x="107.875" y="136.875" width="19.75" height="19.75" transform="rotate(-180 107.875 136.875)" fill="white" stroke="#A9A9A9" stroke-width="0.25"/>
<rect x="107.875" y="56.875" width="19.75" height="19.75" transform="rotate(-180 107.875 56.875)" fill="white" stroke="#A9A9A9" stroke-width="0.25"/>
<rect x="147.875" y="216.875" width="19.75" height="19.75" transform="rotate(-180 147.875 216.875)" fill="white" stroke="#A9A9A9" stroke-width="0.25"/>
<rect x="147.875" y="176.875" width="19.75" height="19.75" transform="rotate(-180 147.875 176.875)" fill="white" stroke="#A9A9A9" stroke-width="0.25"/>
<rect x="147.875" y="136.875" width="19.75" height="19.75" transform="rotate(-180 147.875 136.875)" fill="white" stroke="#A9A9A9" stroke-width="0.25"/>
<rect x="147.875" y="76.875" width="19.75" height="19.75" transform="rotate(-180 147.875 76.875)" fill="white" stroke="#A9A9A9" stroke-width="0.25"/>
<rect x="147.875" y="196.875" width="19.75" height="19.75" transform="rotate(-180 147.875 196.875)" fill="white" stroke="#A9A9A9" stroke-width="0.25"/>
<rect x="147.875" y="156.875" width="19.75" height="19.75" transform="rotate(-180 147.875 156.875)" fill="white" stroke="#A9A9A9" stroke-width="0.25"/>
<rect x="147.875" y="96.875" width="19.75" height="19.75" transform="rotate(-180 147.875 96.875)" fill="white" stroke="#A9A9A9" stroke-width="0.25"/>
<rect x="147.875" y="116.875" width="19.75" height="19.75" transform="rotate(-180 147.875 116.875)" fill="white" stroke="#A9A9A9" stroke-width="0.25"/>
<rect x="147.875" y="56.875" width="19.75" height="19.75" transform="rotate(-180 147.875 56.875)" fill="white" stroke="#A9A9A9" stroke-width="0.25"/>
<rect x="67.875" y="136.875" width="19.75" height="19.75" transform="rotate(-180 67.875 136.875)" fill="white" stroke="#A9A9A9" stroke-width="0.25"/>
<rect x="67.875" y="76.875" width="19.75" height="19.75" transform="rotate(-180 67.875 76.875)" fill="white" stroke="#A9A9A9" stroke-width="0.25"/>
<rect x="67.875" y="96.875" width="19.75" height="19.75" transform="rotate(-180 67.875 96.875)" fill="white" stroke="#A9A9A9" stroke-width="0.25"/>
<rect x="67.875" y="116.875" width="19.75" height="19.75" transform="rotate(-180 67.875 116.875)" fill="white" stroke="#A9A9A9" stroke-width="0.25"/>
<rect x="87.875" y="216.875" width="19.75" height="19.75" transform="rotate(-180 87.875 216.875)" fill="white" stroke="#A9A9A9" stroke-width="0.25"/>
<rect x="87.875" y="136.875" width="19.75" height="19.75" transform="rotate(-180 87.875 136.875)" fill="white" stroke="#A9A9A9" stroke-width="0.25"/>
<rect x="87.875" y="56.875" width="19.75" height="19.75" transform="rotate(-180 87.875 56.875)" fill="white" stroke="#A9A9A9" stroke-width="0.25"/>
<rect x="127.875" y="216.875" width="19.75" height="19.75" transform="rotate(-180 127.875 216.875)" fill="white" stroke="#A9A9A9" stroke-width="0.25"/>
<rect x="127.875" y="136.875" width="19.75" height="19.75" transform="rotate(-180 127.875 136.875)" fill="white" stroke="#A9A9A9" stroke-width="0.25"/>
<rect x="127.875" y="56.875" width="19.75" height="19.75" transform="rotate(-180 127.875 56.875)" fill="white" stroke="#A9A9A9" stroke-width="0.25"/>
<rect x="107.875" y="216.875" width="19.75" height="19.75" transform="rotate(-180 107.875 216.875)" fill="white" stroke="#A9A9A9" stroke-width="0.25"/>
<rect x="107.875" y="136.875" width="19.75" height="19.75" transform="rotate(-180 107.875 136.875)" fill="white" stroke="#A9A9A9" stroke-width="0.25"/>
<rect x="107.875" y="56.875" width="19.75" height="19.75" transform="rotate(-180 107.875 56.875)" fill="white" stroke="#A9A9A9" stroke-width="0.25"/>
<rect x="147.875" y="216.875" width="19.75" height="19.75" transform="rotate(-180 147.875 216.875)" fill="white" stroke="#A9A9A9" stroke-width="0.25"/>
<rect x="147.875" y="176.875" width="19.75" height="19.75" transform="rotate(-180 147.875 176.875)" fill="white" stroke="#A9A9A9" stroke-width="0.25"/>
<rect x="147.875" y="136.875" width="19.75" height="19.75" transform="rotate(-180 147.875 136.875)" fill="white" stroke="#A9A9A9" stroke-width="0.25"/>
<rect x="147.875" y="76.875" width="19.75" height="19.75" transform="rotate(-180 147.875 76.875)" fill="white" stroke="#A9A9A9" stroke-width="0.25"/>
<rect x="147.875" y="196.875" width="19.75" height="19.75" transform="rotate(-180 147.875 196.875)" fill="white" stroke="#A9A9A9" stroke-width="0.25"/>
<rect x="147.875" y="156.875" width="19.75" height="19.75" transform="rotate(-180 147.875 156.875)" fill="white" stroke="#A9A9A9" stroke-width="0.25"/>
<rect x="147.875" y="96.875" width="19.75" height="19.75" transform="rotate(-180 147.875 96.875)" fill="white" stroke="#A9A9A9" stroke-width="0.25"/>
<rect x="147.875" y="116.875" width="19.75" height="19.75" transform="rotate(-180 147.875 116.875)" fill="white" stroke="#A9A9A9" stroke-width="0.25"/>
<rect x="147.875" y="56.875" width="19.75" height="19.75" transform="rotate(-180 147.875 56.875)" fill="white" stroke="#A9A9A9" stroke-width="0.25"/>
<rect x="67.875" y="136.875" width="19.75" height="19.75" transform="rotate(-180 67.875 136.875)" fill="white" stroke="#A9A9A9" stroke-width="0.25"/>
<rect x="67.875" y="76.875" width="19.75" height="19.75" transform="rotate(-180 67.875 76.875)" fill="white" stroke="#A9A9A9" stroke-width="0.25"/>
<rect x="67.875" y="96.875" width="19.75" height="19.75" transform="rotate(-180 67.875 96.875)" fill="white" stroke="#A9A9A9" stroke-width="0.25"/>
<rect x="67.875" y="116.875" width="19.75" height="19.75" transform="rotate(-180 67.875 116.875)" fill="white" stroke="#A9A9A9" stroke-width="0.25"/>
<rect x="87.875" y="216.875" width="19.75" height="19.75" transform="rotate(-180 87.875 216.875)" fill="white" stroke="#A9A9A9" stroke-width="0.25"/>
<rect x="87.875" y="136.875" width="19.75" height="19.75" transform="rotate(-180 87.875 136.875)" fill="white" stroke="#A9A9A9" stroke-width="0.25"/>
<rect x="87.875" y="56.875" width="19.75" height="19.75" transform="rotate(-180 87.875 56.875)" fill="white" stroke="#A9A9A9" stroke-width="0.25"/>
<rect x="127.875" y="216.875" width="19.75" height="19.75" transform="rotate(-180 127.875 216.875)" fill="white" stroke="#A9A9A9" stroke-width="0.25"/>
<rect x="127.875" y="136.875" width="19.75" height="19.75" transform="rotate(-180 127.875 136.875)" fill="white" stroke="#A9A9A9" stroke-width="0.25"/>
<rect x="127.875" y="56.875" width="19.75" height="19.75" transform="rotate(-180 127.875 56.875)" fill="white" stroke="#A9A9A9" stroke-width="0.25"/>
<rect x="107.875" y="216.875" width="19.75" height="19.75" transform="rotate(-180 107.875 216.875)" fill="white" stroke="#A9A9A9" stroke-width="0.25"/>
<rect x="107.875" y="136.875" width="19.75" height="19.75" transform="rotate(-180 107.875 136.875)" fill="white" stroke="#A9A9A9" stroke-width="0.25"/>
<rect x="107.875" y="56.875" width="19.75" height="19.75" transform="rotate(-180 107.875 56.875)" fill="white" stroke="#A9A9A9" stroke-width="0.25"/>
<rect x="147.875" y="216.875" width="19.75" height="19.75" transform="rotate(-180 147.875 216.875)" fill="white" stroke="#A9A9A9" stroke-width="0.25"/>
<rect x="147.875" y="176.875" width="19.75" height="19.75" transform="rotate(-180 147.875 176.875)" fill="white" stroke="#A9A9A9" stroke-width="0.25"/>
<rect x="147.875" y="136.875" width="19.75" height="19.75" transform="rotate(-180 147.875 136.875)" fill="white" stroke="#A9A9A9" stroke-width="0.25"/>
<rect x="147.875" y="76.875" width="19.75" height="19.75" transform="rotate(-180 147.875 76.875)" fill="white" stroke="#A9A9A9" stroke-width="0.25"/>
<rect x="147.875" y="196.875" width="19.75" height="19.75" transform="rotate(-180 147.875 196.875)" fill="white" stroke="#A9A9A9" stroke-width="0.25"/>
<rect x="147.875" y="156.875" width="19.75" height="19.75" transform="rotate(-180 147.875 156.875)" fill="white" stroke="#A9A9A9" stroke-width="0.25"/>
<rect x="147.875" y="96.875" width="19.75" height="19.75" transform="rotate(-180 147.875 96.875)" fill="white" stroke="#A9A9A9" stroke-width="0.25"/>
<rect x="147.875" y="116.875" width="19.75" height="19.75" transform="rotate(-180 147.875 116.875)" fill="white" stroke="#A9A9A9" stroke-width="0.25"/>
<rect x="147.875" y="56.875" width="19.75" height="19.75" transform="rotate(-180 147.875 56.875)" fill="white" stroke="#A9A9A9" stroke-width="0.25"/>
<rect x="67.875" y="136.875" width="19.75" height="19.75" transform="rotate(-180 67.875 136.875)" fill="white" stroke="#A9A9A9" stroke-width="0.25"/>
<rect x="67.875" y="76.875" width="19.75" height="19.75" transform="rotate(-180 67.875 76.875)" fill="white" stroke="#A9A9A9" stroke-width="0.25"/>
<rect x="67.875" y="96.875" width="19.75" height="19.75" transform="rotate(-180 67.875 96.875)" fill="white" stroke="#A9A9A9" stroke-width="0.25"/>
<rect x="67.875" y="116.875" width="19.75" height="19.75" transform="rotate(-180 67.875 116.875)" fill="white" stroke="#A9A9A9" stroke-width="0.25"/>
<rect x="87.875" y="216.875" width="19.75" height="19.75" transform="rotate(-180 87.875 216.875)" fill="white" stroke="#A9A9A9" stroke-width="0.25"/>
<rect x="87.875" y="136.875" width="19.75" height="19.75" transform="rotate(-180 87.875 136.875)" fill="white" stroke="#A9A9A9" stroke-width="0.25"/>
<rect x="87.875" y="56.875" width="19.75" height="19.75" transform="rotate(-180 87.875 56.875)" fill="white" stroke="#A9A9A9" stroke-width="0.25"/>
<rect x="127.875" y="216.875" width="19.75" height="19.75" transform="rotate(-180 127.875 216.875)" fill="white" stroke="#A9A9A9" stroke-width="0.25"/>
<rect x="127.875" y="136.875" width="19.75" height="19.75" transform="rotate(-180 127.875 136.875)" fill="white" stroke="#A9A9A9" stroke-width="0.25"/>
<rect x="127.875" y="56.875" width="19.75" height="19.75" transform="rotate(-180 127.875 56.875)" fill="white" stroke="#A9A9A9" stroke-width="0.25"/>
<rect x="107.875" y="216.875" width="19.75" height="19.75" transform="rotate(-180 107.875 216.875)" fill="white" stroke="#A9A9A9" stroke-width="0.25"/>
<rect x="107.875" y="136.875" width="19.75" height="19.75" transform="rotate(-180 107.875 136.875)" fill="white" stroke="#A9A9A9" stroke-width="0.25"/>
<rect x="107.875" y="56.875" width="19.75" height="19.75" transform="rotate(-180 107.875 56.875)" fill="white" stroke="#A9A9A9" stroke-width="0.25"/>
<rect x="147.875" y="216.875" width="19.75" height="19.75" transform="rotate(-180 147.875 216.875)" fill="white" stroke="#A9A9A9" stroke-width="0.25"/>
<rect x="147.875" y="176.875" width="19.75" height="19.75" transform="rotate(-180 147.875 176.875)" fill="white" stroke="#A9A9A9" stroke-width="0.25"/>
<rect x="147.875" y="136.875" width="19.75" height="19.75" transform="rotate(-180 147.875 136.875)" fill="white" stroke="#A9A9A9" stroke-width="0.25"/>
<rect x="147.875" y="76.875" width="19.75" height="19.75" transform="rotate(-180 147.875 76.875)" fill="white" stroke="#A9A9A9" stroke-width="0.25"/>
<rect x="147.875" y="196.875" width="19.75" height="19.75" transform="rotate(-180 147.875 196.875)" fill="white" stroke="#A9A9A9" stroke-width="0.25"/>
<rect x="147.875" y="156.875" width="19.75" height="19.75" transform="rotate(-180 147.875 156.875)" fill="white" stroke="#A9A9A9" stroke-width="0.25"/>
<rect x="147.875" y="96.875" width="19.75" height="19.75" transform="rotate(-180 147.875 96.875)" fill="white" stroke="#A9A9A9" stroke-width="0.25"/>
<rect x="147.875" y="116.875" width="19.75" height="19.75" transform="rotate(-180 147.875 116.875)" fill="white" stroke="#A9A9A9" stroke-width="0.25"/>
<rect x="147.875" y="56.875" width="19.75" height="19.75" transform="rotate(-180 147.875 56.875)" fill="white" stroke="#A9A9A9" stroke-width="0.25"/>
<rect x="67.875" y="136.875" width="19.75" height="19.75" transform="rotate(-180 67.875 136.875)" fill="white" stroke="#A9A9A9" stroke-width="0.25"/>
<rect x="67.875" y="76.875" width="19.75" height="19.75" transform="rotate(-180 67.875 76.875)" fill="white" stroke="#A9A9A9" stroke-width="0.25"/>
<rect x="67.875" y="96.875" width="19.75" height="19.75" transform="rotate(-180 67.875 96.875)" fill="white" stroke="#A9A9A9" stroke-width="0.25"/>
<rect x="67.875" y="116.875" width="19.75" height="19.75" transform="rotate(-180 67.875 116.875)" fill="white" stroke="#A9A9A9" stroke-width="0.25"/>
<rect x="87.875" y="216.875" width="19.75" height="19.75" transform="rotate(-180 87.875 216.875)" fill="white" stroke="#A9A9A9" stroke-width="0.25"/>
<rect x="87.875" y="136.875" width="19.75" height="19.75" transform="rotate(-180 87.875 136.875)" fill="white" stroke="#A9A9A9" stroke-width="0.25"/>
<rect x="87.875" y="56.875" width="19.75" height="19.75" transform="rotate(-180 87.875 56.875)" fill="white" stroke="#A9A9A9" stroke-width="0.25"/>
<rect x="127.875" y="216.875" width="19.75" height="19.75" transform="rotate(-180 127.875 216.875)" fill="white" stroke="#A9A9A9" stroke-width="0.25"/>
<rect x="127.875" y="136.875" width="19.75" height="19.75" transform="rotate(-180 127.875 136.875)" fill="white" stroke="#A9A9A9" stroke-width="0.25"/>
<rect x="127.875" y="56.875" width="19.75" height="19.75" transform="rotate(-180 127.875 56.875)" fill="white" stroke="#A9A9A9" stroke-width="0.25"/>
<rect x="107.875" y="216.875" width="19.75" height="19.75" transform="rotate(-180 107.875 216.875)" fill="white" stroke="#A9A9A9" stroke-width="0.25"/>
<rect x="107.875" y="136.875" width="19.75" height="19.75" transform="rotate(-180 107.875 136.875)" fill="white" stroke="#A9A9A9" stroke-width="0.25"/>
<rect x="107.875" y="56.875" width="19.75" height="19.75" transform="rotate(-180 107.875 56.875)" fill="white" stroke="#A9A9A9" stroke-width="0.25"/>
<rect x="147.875" y="216.875" width="19.75" height="19.75" transform="rotate(-180 147.875 216.875)" fill="white" stroke="#A9A9A9" stroke-width="0.25"/>
<rect x="147.875" y="176.875" width="19.75" height="19.75" transform="rotate(-180 147.875 176.875)" fill="white" stroke="#A9A9A9" stroke-width="0.25"/>
<rect x="147.875" y="136.875" width="19.75" height="19.75" transform="rotate(-180 147.875 136.875)" fill="white" stroke="#A9A9A9" stroke-width="0.25"/>
<rect x="147.875" y="76.875" width="19.75" height="19.75" transform="rotate(-180 147.875 76.875)" fill="white" stroke="#A9A9A9" stroke-width="0.25"/>
<rect x="147.875" y="196.875" width="19.75" height="19.75" transform="rotate(-180 147.875 196.875)" fill="white" stroke="#A9A9A9" stroke-width="0.25"/>
<rect x="147.875" y="156.875" width="19.75" height="19.75" transform="rotate(-180 147.875 156.875)" fill="white" stroke="#A9A9A9" stroke-width="0.25"/>
<rect x="147.875" y="96.875" width="19.75" height="19.75" transform="rotate(-180 147.875 96.875)" fill="white" stroke="#A9A9A9" stroke-width="0.25"/>
<rect x="147.875" y="116.875" width="19.75" height="19.75" transform="rotate(-180 147.875 116.875)" fill="white" stroke="#A9A9A9" stroke-width="0.25"/>
<rect x="147.875" y="56.875" width="19.75" height="19.75" transform="rotate(-180 147.875 56.875)" fill="white" stroke="#A9A9A9" stroke-width="0.25"/>
<rect x="67.875" y="136.875" width="19.75" height="19.75" transform="rotate(-180 67.875 136.875)" fill="white" stroke="#A9A9A9" stroke-width="0.25"/>
<rect x="67.875" y="76.875" width="19.75" height="19.75" transform="rotate(-180 67.875 76.875)" fill="white" stroke="#A9A9A9" stroke-width="0.25"/>
<rect x="67.875" y="96.875" width="19.75" height="19.75" transform="rotate(-180 67.875 96.875)" fill="white" stroke="#A9A9A9" stroke-width="0.25"/>
<rect x="67.875" y="116.875" width="19.75" height="19.75" transform="rotate(-180 67.875 116.875)" fill="white" stroke="#A9A9A9" stroke-width="0.25"/>
<rect x="87.875" y="216.875" width="19.75" height="19.75" transform="rotate(-180 87.875 216.875)" fill="white" stroke="#A9A9A9" stroke-width="0.25"/>
<rect x="87.875" y="136.875" width="19.75" height="19.75" transform="rotate(-180 87.875 136.875)" fill="black" stroke="#A9A9A9" stroke-width="0.25"/>
<rect x="87.875" y="56.875" width="19.75" height="19.75" transform="rotate(-180 87.875 56.875)" fill="white" stroke="#A9A9A9" stroke-width="0.25"/>
<rect x="127.875" y="216.875" width="19.75" height="19.75" transform="rotate(-180 127.875 216.875)" fill="white" stroke="#A9A9A9" stroke-width="0.25"/>
<rect x="127.875" y="136.875" width="19.75" height="19.75" transform="rotate(-180 127.875 136.875)" fill="white" stroke="#A9A9A9" stroke-width="0.25"/>
<rect x="127.875" y="56.875" width="19.75" height="19.75" transform="rotate(-180 127.875 56.875)" fill="white" stroke="#A9A9A9" stroke-width="0.25"/>
<rect x="107.875" y="216.875" width="19.75" height="19.75" transform="rotate(-180 107.875 216.875)" fill="white" stroke="#A9A9A9" stroke-width="0.25"/>
<rect x="107.875" y="136.875" width="19.75" height="19.75" transform="rotate(-180 107.875 136.875)" fill="white" stroke="#A9A9A9" stroke-width="0.25"/>
<rect x="107.875" y="56.875" width="19.75" height="19.75" transform="rotate(-180 107.875 56.875)" fill="white" stroke="#A9A9A9" stroke-width="0.25"/>
<rect x="147.875" y="216.875" width="19.75" height="19.75" transform="rotate(-180 147.875 216.875)" fill="black" stroke="#A9A9A9" stroke-width="0.25"/>
<rect x="147.875" y="176.875" width="19.75" height="19.75" transform="rotate(-180 147.875 176.875)" fill="white" stroke="#A9A9A9" stroke-width="0.25"/>
<rect x="147.875" y="136.875" width="19.75" height="19.75" transform="rotate(-180 147.875 136.875)" fill="white" stroke="#A9A9A9" stroke-width="0.25"/>
<rect x="147.875" y="76.875" width="19.75" height="19.75" transform="rotate(-180 147.875 76.875)" fill="white" stroke="#A9A9A9" stroke-width="0.25"/>
<rect x="147.875" y="196.875" width="19.75" height="19.75" transform="rotate(-180 147.875 196.875)" fill="white" stroke="#A9A9A9" stroke-width="0.25"/>
<rect x="147.875" y="156.875" width="19.75" height="19.75" transform="rotate(-180 147.875 156.875)" fill="white" stroke="#A9A9A9" stroke-width="0.25"/>
<rect x="147.875" y="96.875" width="19.75" height="19.75" transform="rotate(-180 147.875 96.875)" fill="white" stroke="#A9A9A9" stroke-width="0.25"/>
<rect x="147.875" y="116.875" width="19.75" height="19.75" transform="rotate(-180 147.875 116.875)" fill="white" stroke="#A9A9A9" stroke-width="0.25"/>
<rect x="147.875" y="56.875" width="19.75" height="19.75" transform="rotate(-180 147.875 56.875)" fill="white" stroke="#A9A9A9" stroke-width="0.25"/>
<rect x="67.875" y="136.875" width="19.75" height="19.75" transform="rotate(-180 67.875 136.875)" fill="white" stroke="#A9A9A9" stroke-width="0.25"/>
<rect x="67.875" y="76.875" width="19.75" height="19.75" transform="rotate(-180 67.875 76.875)" fill="white" stroke="#A9A9A9" stroke-width="0.25"/>
<rect x="67.875" y="96.875" width="19.75" height="19.75" transform="rotate(-180 67.875 96.875)" fill="white" stroke="#A9A9A9" stroke-width="0.25"/>
<rect x="67.875" y="116.875" width="19.75" height="19.75" transform="rotate(-180 67.875 116.875)" fill="white" stroke="#A9A9A9" stroke-width="0.25"/>
<rect x="87.875" y="216.875" width="19.75" height="19.75" transform="rotate(-180 87.875 216.875)" fill="white" stroke="#A9A9A9" stroke-width="0.25"/>
<rect x="87.875" y="56.875" width="19.75" height="19.75" transform="rotate(-180 87.875 56.875)" fill="white" stroke="#A9A9A9" stroke-width="0.25"/>
<rect x="127.875" y="216.875" width="19.75" height="19.75" transform="rotate(-180 127.875 216.875)" fill="white" stroke="#A9A9A9" stroke-width="0.25"/>
<rect x="127.875" y="136.875" width="19.75" height="19.75" transform="rotate(-180 127.875 136.875)" fill="white" stroke="#A9A9A9" stroke-width="0.25"/>
<rect x="127.875" y="56.875" width="19.75" height="19.75" transform="rotate(-180 127.875 56.875)" fill="white" stroke="#A9A9A9" stroke-width="0.25"/>
<rect x="107.875" y="216.875" width="19.75" height="19.75" transform="rotate(-180 107.875 216.875)" fill="white" stroke="#A9A9A9" stroke-width="0.25"/>
<rect x="107.875" y="136.875" width="19.75" height="19.75" transform="rotate(-180 107.875 136.875)" fill="white" stroke="#A9A9A9" stroke-width="0.25"/>
<rect x="107.875" y="56.875" width="19.75" height="19.75" transform="rotate(-180 107.875 56.875)" fill="white" stroke="#A9A9A9" stroke-width="0.25"/>
<rect x="147.875" y="176.875" width="19.75" height="19.75" transform="rotate(-180 147.875 176.875)" fill="white" stroke="#A9A9A9" stroke-width="0.25"/>
<rect x="147.875" y="136.875" width="19.75" height="19.75" transform="rotate(-180 147.875 136.875)" fill="white" stroke="#A9A9A9" stroke-width="0.25"/>
<rect x="147.875" y="76.875" width="19.75" height="19.75" transform="rotate(-180 147.875 76.875)" fill="black" stroke="#A9A9A9" stroke-width="0.25"/>
<rect x="147.875" y="196.875" width="19.75" height="19.75" transform="rotate(-180 147.875 196.875)" fill="white" stroke="#A9A9A9" stroke-width="0.25"/>
<rect x="147.875" y="156.875" width="19.75" height="19.75" transform="rotate(-180 147.875 156.875)" fill="white" stroke="#A9A9A9" stroke-width="0.25"/>
<rect x="147.875" y="96.875" width="19.75" height="19.75" transform="rotate(-180 147.875 96.875)" fill="white" stroke="#A9A9A9" stroke-width="0.25"/>
<rect x="147.875" y="116.875" width="19.75" height="19.75" transform="rotate(-180 147.875 116.875)" fill="white" stroke="#A9A9A9" stroke-width="0.25"/>
<rect x="147.875" y="56.875" width="19.75" height="19.75" transform="rotate(-180 147.875 56.875)" fill="white" stroke="#A9A9A9" stroke-width="0.25"/>
<rect x="67.875" y="136.875" width="19.75" height="19.75" transform="rotate(-180 67.875 136.875)" fill="black" stroke="#A9A9A9" stroke-width="0.25"/>
<rect x="67.875" y="76.875" width="19.75" height="19.75" transform="rotate(-180 67.875 76.875)" fill="white" stroke="#A9A9A9" stroke-width="0.25"/>
<rect x="67.875" y="96.875" width="19.75" height="19.75" transform="rotate(-180 67.875 96.875)" fill="white" stroke="#A9A9A9" stroke-width="0.25"/>
<rect x="67.875" y="116.875" width="19.75" height="19.75" transform="rotate(-180 67.875 116.875)" fill="black" stroke="#A9A9A9" stroke-width="0.25"/>
<rect x="87.875" y="216.875" width="19.75" height="19.75" transform="rotate(-180 87.875 216.875)" fill="white" stroke="#A9A9A9" stroke-width="0.25"/>
<rect x="87.875" y="56.875" width="19.75" height="19.75" transform="rotate(-180 87.875 56.875)" fill="white" stroke="#A9A9A9" stroke-width="0.25"/>
<rect x="127.875" y="216.875" width="19.75" height="19.75" transform="rotate(-180 127.875 216.875)" fill="white" stroke="#A9A9A9" stroke-width="0.25"/>
<rect x="127.875" y="136.875" width="19.75" height="19.75" transform="rotate(-180 127.875 136.875)" fill="white" stroke="#A9A9A9" stroke-width="0.25"/>
<rect x="127.875" y="56.875" width="19.75" height="19.75" transform="rotate(-180 127.875 56.875)" fill="white" stroke="#A9A9A9" stroke-width="0.25"/>
<rect x="107.875" y="216.875" width="19.75" height="19.75" transform="rotate(-180 107.875 216.875)" fill="black" stroke="#A9A9A9" stroke-width="0.25"/>
<rect x="107.875" y="136.875" width="19.75" height="19.75" transform="rotate(-180 107.875 136.875)" fill="black" stroke="#A9A9A9" stroke-width="0.25"/>
<rect x="107.875" y="56.875" width="19.75" height="19.75" transform="rotate(-180 107.875 56.875)" fill="black" stroke="#A9A9A9" stroke-width="0.25"/>
<rect x="147.875" y="176.875" width="19.75" height="19.75" transform="rotate(-180 147.875 176.875)" fill="black" stroke="#A9A9A9" stroke-width="0.25"/>
<rect x="147.875" y="136.875" width="19.75" height="19.75" transform="rotate(-180 147.875 136.875)" fill="black" stroke="#A9A9A9" stroke-width="0.25"/>
<rect x="147.875" y="196.875" width="19.75" height="19.75" transform="rotate(-180 147.875 196.875)" fill="black" stroke="#A9A9A9" stroke-width="0.25"/>
<rect x="147.875" y="156.875" width="19.75" height="19.75" transform="rotate(-180 147.875 156.875)" fill="black" stroke="#A9A9A9" stroke-width="0.25"/>
<rect x="147.875" y="96.875" width="19.75" height="19.75" transform="rotate(-180 147.875 96.875)" fill="black" stroke="#A9A9A9" stroke-width="0.25"/>
<rect x="147.875" y="116.875" width="19.75" height="19.75" transform="rotate(-180 147.875 116.875)" fill="black" stroke="#A9A9A9" stroke-width="0.25"/>
<rect x="147.875" y="56.875" width="19.75" height="19.75" transform="rotate(-180 147.875 56.875)" fill="black" stroke="#A9A9A9" stroke-width="0.25"/>
<rect x="67.875" y="76.875" width="19.75" height="19.75" transform="rotate(-180 67.875 76.875)" fill="black" stroke="#A9A9A9" stroke-width="0.25"/>
<path d="M67.875 96.875L48.125 96.875L48.125 77.125L67.875 77.125L67.875 96.875Z" fill="black" stroke="#A9A9A9" stroke-width="0.25"/>
<rect x="87.875" y="216.875" width="19.75" height="19.75" transform="rotate(-180 87.875 216.875)" fill="black" stroke="#A9A9A9" stroke-width="0.25"/>
<rect x="87.875" y="56.875" width="19.75" height="19.75" transform="rotate(-180 87.875 56.875)" fill="black" stroke="#A9A9A9" stroke-width="0.25"/>
<rect x="127.875" y="216.875" width="19.75" height="19.75" transform="rotate(-180 127.875 216.875)" fill="black" stroke="#A9A9A9" stroke-width="0.25"/>
<rect x="127.875" y="136.875" width="19.75" height="19.75" transform="rotate(-180 127.875 136.875)" fill="black" stroke="#A9A9A9" stroke-width="0.25"/>
<rect x="127.875" y="56.875" width="19.75" height="19.75" transform="rotate(-180 127.875 56.875)" fill="black" stroke="#A9A9A9" stroke-width="0.25"/>
<path d="M128.125 217.125H147.698L128.125 236.698V217.125Z" fill="black" stroke="#A9A9A9" stroke-width="0.25"/>
<path d="M128.125 36.875V17.3018L147.698 36.875H128.125Z" fill="black" stroke="#A9A9A9" stroke-width="0.25"/>
<path d="M67.875 216.698L48.3018 197.125H67.875V216.698Z" fill="black" stroke="#A9A9A9" stroke-width="0.25"/>
<path d="M67.875 196.875H48.3018L67.875 177.302V196.875Z" fill="black" stroke="#A9A9A9" stroke-width="0.25"/>
<path d="M67.875 56.875H48.3018L67.875 37.3018V56.875Z" fill="black" stroke="#A9A9A9" stroke-width="0.25"/>
</svg>
