<svg width="223" height="232" viewBox="0 0 223 232" fill="none" xmlns="http://www.w3.org/2000/svg">
<rect width="223" height="232" fill="white"/>
<path d="M50.125 180.125H69.6982L50.125 199.698V180.125Z" fill="black" stroke="#A9A9A9" stroke-width="0.25"/>
<path d="M70.125 80.125H89.6982L70.125 99.6982V80.125Z" fill="black" stroke="#A9A9A9" stroke-width="0.25"/>
<rect x="70.125" y="100.125" width="19.75" height="19.75" fill="white" stroke="#A9A9A9" stroke-width="0.25"/>
<path d="M110.125 59.875V40.3018L129.698 59.875H110.125Z" fill="black" stroke="#A9A9A9" stroke-width="0.25"/>
<path d="M129.875 79.6982L110.302 60.125H129.875V79.6982Z" fill="black" stroke="#A9A9A9" stroke-width="0.25"/>
<rect x="110.125" y="100.125" width="19.75" height="19.75" fill="white" stroke="#A9A9A9" stroke-width="0.25"/>
<path d="M150.125 99.875V80.3018L169.698 99.875H150.125Z" fill="black" stroke="#A9A9A9" stroke-width="0.25"/>
<path d="M169.875 199.698L150.302 180.125H169.875V199.698Z" fill="#2A2A2A" stroke="#A9A9A9" stroke-width="0.25"/>
<path d="M109.875 59.875H90.3018L109.875 40.3018V59.875Z" fill="black" stroke="#A9A9A9" stroke-width="0.25"/>
<path d="M90.125 60.125H109.698L90.125 79.6982V60.125Z" fill="black" stroke="#A9A9A9" stroke-width="0.25"/>
<rect x="90.125" y="100.125" width="19.75" height="19.75" fill="white" stroke="#A9A9A9" stroke-width="0.25"/>
<rect x="150.125" y="120.125" width="19.75" height="19.75" fill="black" stroke="#A9A9A9" stroke-width="0.25"/>
<path d="M149.698 79.875H130.125V60.3018L149.698 79.875Z" fill="black" stroke="#A9A9A9" stroke-width="0.25"/>
<rect x="150.125" y="100.125" width="19.75" height="19.75" fill="black" stroke="#A9A9A9" stroke-width="0.25"/>
<rect x="150.125" y="160.125" width="19.75" height="19.75" fill="black" stroke="#A9A9A9" stroke-width="0.25"/>
<rect x="150.125" y="140.125" width="19.75" height="19.75" fill="black" stroke="#A9A9A9" stroke-width="0.25"/>
<path d="M89.875 79.875H70.3018L89.875 60.3018V79.875Z" fill="black" stroke="#A9A9A9" stroke-width="0.25"/>
<path d="M69.875 99.875H50.3018L69.875 80.3018V99.875Z" fill="black" stroke="#A9A9A9" stroke-width="0.25"/>
<rect x="50.125" y="120.125" width="19.75" height="19.75" fill="black" stroke="#A9A9A9" stroke-width="0.25"/>
<rect x="50.125" y="100.125" width="19.75" height="19.75" fill="black" stroke="#A9A9A9" stroke-width="0.25"/>
<rect x="50.125" y="160.125" width="19.75" height="19.75" fill="black" stroke="#A9A9A9" stroke-width="0.25"/>
<rect x="50.125" y="140.125" width="19.75" height="19.75" fill="black" stroke="#A9A9A9" stroke-width="0.25"/>
<path d="M149.875 99.6982L130.302 80.125H149.875V99.6982Z" fill="black" stroke="#A9A9A9" stroke-width="0.25"/>
<rect x="130.125" y="100.125" width="19.75" height="19.75" fill="white" stroke="#A9A9A9" stroke-width="0.25"/>
<rect x="70.125" y="100.125" width="19.75" height="19.75" fill="black" stroke="#A9A9A9" stroke-width="0.25"/>
<rect x="110.125" y="100.125" width="19.75" height="19.75" fill="black" stroke="#A9A9A9" stroke-width="0.25"/>
<rect x="90.125" y="100.125" width="19.75" height="19.75" fill="black" stroke="#A9A9A9" stroke-width="0.25"/>
<rect x="130.125" y="100.125" width="19.75" height="19.75" fill="black" stroke="#A9A9A9" stroke-width="0.25"/>
</svg>
