<svg width="237" height="237" viewBox="0 0 237 237" fill="none" xmlns="http://www.w3.org/2000/svg">
<rect width="237" height="237" fill="white"/>
<rect x="104.125" y="40.125" width="19.75" height="19.75" fill="black" stroke="#A9A9A9" stroke-width="0.25"/>
<rect x="104.125" y="180.125" width="19.75" height="19.75" fill="black" stroke="#A9A9A9" stroke-width="0.25"/>
<rect x="104.125" y="100.125" width="19.75" height="19.75" fill="black" stroke="#A9A9A9" stroke-width="0.25"/>
<rect x="64.125" y="80.125" width="19.75" height="19.75" fill="black" stroke="#A9A9A9" stroke-width="0.25"/>
<rect x="64.125" y="120.125" width="19.75" height="19.75" fill="black" stroke="#A9A9A9" stroke-width="0.25"/>
<path d="M83.875 199.698L64.3018 180.125H83.875V199.698Z" fill="black" stroke="#A9A9A9" stroke-width="0.25"/>
<path d="M83.875 39.875H64.3018L83.875 20.3018V39.875Z" fill="black" stroke="#A9A9A9" stroke-width="0.25"/>
<rect x="64.125" y="40.125" width="19.75" height="19.75" fill="black" stroke="#A9A9A9" stroke-width="0.25"/>
<rect x="64.125" y="60.125" width="19.75" height="19.75" fill="black" stroke="#A9A9A9" stroke-width="0.25"/>
<rect x="64.125" y="100.125" width="19.75" height="19.75" fill="black" stroke="#A9A9A9" stroke-width="0.25"/>
<rect x="64.125" y="160.125" width="19.75" height="19.75" fill="black" stroke="#A9A9A9" stroke-width="0.25"/>
<rect x="64.125" y="140.125" width="19.75" height="19.75" fill="black" stroke="#A9A9A9" stroke-width="0.25"/>
<rect x="144.125" y="40.125" width="19.75" height="19.75" fill="black" stroke="#A9A9A9" stroke-width="0.25"/>
<path d="M164.125 139.875V120.302L183.698 139.875H164.125Z" fill="black" stroke="#A9A9A9" stroke-width="0.25"/>
<rect x="144.125" y="180.125" width="19.75" height="19.75" fill="black" stroke="#A9A9A9" stroke-width="0.25"/>
<path d="M163.875 79.875H144.302L163.875 60.3018V79.875Z" fill="black" stroke="#A9A9A9" stroke-width="0.25"/>
<rect x="124.125" y="40.125" width="19.75" height="19.75" fill="black" stroke="#A9A9A9" stroke-width="0.25"/>
<path d="M143.875 99.875H124.302L143.875 80.3018V99.875Z" fill="black" stroke="#A9A9A9" stroke-width="0.25"/>
<rect x="124.125" y="180.125" width="19.75" height="19.75" fill="black" stroke="#A9A9A9" stroke-width="0.25"/>
<rect x="124.125" y="100.125" width="19.75" height="19.75" fill="black" stroke="#A9A9A9" stroke-width="0.25"/>
<path d="M184.125 160.125H203.698L184.125 179.698V160.125Z" fill="black" stroke="#A9A9A9" stroke-width="0.25"/>
<path d="M184.125 159.875V140.302L203.698 159.875H184.125Z" fill="black" stroke="#A9A9A9" stroke-width="0.25"/>
<rect x="84.125" y="40.125" width="19.75" height="19.75" fill="black" stroke="#A9A9A9" stroke-width="0.25"/>
<rect x="84.125" y="180.125" width="19.75" height="19.75" fill="black" stroke="#A9A9A9" stroke-width="0.25"/>
<rect x="84.125" y="100.125" width="19.75" height="19.75" fill="black" stroke="#A9A9A9" stroke-width="0.25"/>
<path d="M164.125 59.875V40.3018L183.698 59.875H164.125Z" fill="black" stroke="#A9A9A9" stroke-width="0.25"/>
<path d="M144.125 80.125H163.698L144.125 99.6982V80.125Z" fill="black" stroke="#A9A9A9" stroke-width="0.25"/>
<path d="M164.125 180.125H183.698L164.125 199.698V180.125Z" fill="black" stroke="#A9A9A9" stroke-width="0.25"/>
<path d="M164.125 60.125H183.698L164.125 79.6982V60.125Z" fill="black" stroke="#A9A9A9" stroke-width="0.25"/>
<path d="M143.125 119.875V100.302L162.698 119.875H143.125Z" fill="black" stroke="#A9A9A9" stroke-width="0.25"/>
<path d="M183.875 179.875H164.302L183.875 160.302V179.875Z" fill="black" stroke="#A9A9A9" stroke-width="0.25"/>
<path d="M183.875 159.698L164.302 140.125H183.875V159.698Z" fill="black" stroke="#A9A9A9" stroke-width="0.25"/>
<path d="M163.875 139.698L144.302 120.125H163.875V139.698Z" fill="black" stroke="#A9A9A9" stroke-width="0.25"/>
</svg>
