<svg width="238" height="249" viewBox="0 0 238 249" fill="none" xmlns="http://www.w3.org/2000/svg">
<rect width="238" height="249" fill="white"/>
<rect x="80.125" y="180.125" width="19.75" height="19.75" fill="black" stroke="#A9A9A9" stroke-width="0.25"/>
<rect x="40.125" y="40.125" width="19.75" height="19.75" fill="black" stroke="#A9A9A9" stroke-width="0.25"/>
<rect x="40.125" y="80.125" width="19.75" height="19.75" fill="white" stroke="#A9A9A9" stroke-width="0.25"/>
<rect x="40.125" y="120.125" width="19.75" height="19.75" fill="white" stroke="#A9A9A9" stroke-width="0.25"/>
<rect x="40.125" y="60.125" width="19.75" height="19.75" fill="white" stroke="#A9A9A9" stroke-width="0.25"/>
<rect x="40.125" y="100.125" width="19.75" height="19.75" fill="white" stroke="#A9A9A9" stroke-width="0.25"/>
<rect x="40.125" y="160.125" width="19.75" height="19.75" fill="white" stroke="#A9A9A9" stroke-width="0.25"/>
<rect x="40.125" y="140.125" width="19.75" height="19.75" fill="white" stroke="#A9A9A9" stroke-width="0.25"/>
<path d="M139.875 99.6982L120.302 80.125H139.875V99.6982Z" fill="black" stroke="#A9A9A9" stroke-width="0.25"/>
<path d="M139.875 159.875H120.302L139.875 140.302V159.875Z" fill="black" stroke="#A9A9A9" stroke-width="0.25"/>
<path d="M119.875 79.6982L100.302 60.125H119.875V79.6982Z" fill="black" stroke="#A9A9A9" stroke-width="0.25"/>
<path d="M119.875 179.875H100.302L119.875 160.302V179.875Z" fill="black" stroke="#A9A9A9" stroke-width="0.25"/>
<rect x="60.125" y="40.125" width="19.75" height="19.75" fill="white" stroke="#A9A9A9" stroke-width="0.25"/>
<rect x="60.125" y="180.125" width="19.75" height="19.75" fill="white" stroke="#A9A9A9" stroke-width="0.25"/>
<path d="M159.875 139.875H140.302L159.875 120.302V139.875Z" fill="black" stroke="#A9A9A9" stroke-width="0.25"/>
<path d="M159.875 119.698L140.302 100.125H159.875V119.698Z" fill="black" stroke="#A9A9A9" stroke-width="0.25"/>
<rect x="40.125" y="80.125" width="19.75" height="19.75" fill="black" stroke="#A9A9A9" stroke-width="0.25"/>
<rect x="40.125" y="120.125" width="19.75" height="19.75" fill="black" stroke="#A9A9A9" stroke-width="0.25"/>
<path d="M59.875 199.698L40.3018 180.125H59.875V199.698Z" fill="black" stroke="#A9A9A9" stroke-width="0.25"/>
<path d="M59.875 39.875H40.3018L59.875 20.3018V39.875Z" fill="black" stroke="#A9A9A9" stroke-width="0.25"/>
<rect x="40.125" y="60.125" width="19.75" height="19.75" fill="black" stroke="#A9A9A9" stroke-width="0.25"/>
<rect x="40.125" y="100.125" width="19.75" height="19.75" fill="black" stroke="#A9A9A9" stroke-width="0.25"/>
<rect x="40.125" y="160.125" width="19.75" height="19.75" fill="black" stroke="#A9A9A9" stroke-width="0.25"/>
<rect x="40.125" y="140.125" width="19.75" height="19.75" fill="black" stroke="#A9A9A9" stroke-width="0.25"/>
<rect x="80.125" y="40.125" width="19.75" height="19.75" fill="black" stroke="#A9A9A9" stroke-width="0.25"/>
<path d="M120.125 160.125H139.698L120.125 179.698V160.125Z" fill="black" stroke="#A9A9A9" stroke-width="0.25"/>
<path d="M100.125 59.875V40.3018L119.698 59.875H100.125Z" fill="black" stroke="#A9A9A9" stroke-width="0.25"/>
<path d="M100.125 180.125H119.698L100.125 199.698V180.125Z" fill="black" stroke="#A9A9A9" stroke-width="0.25"/>
<path d="M160.125 120.125H179.698L160.125 139.698V120.125Z" fill="black" stroke="#A9A9A9" stroke-width="0.25"/>
<path d="M160.125 119.875V100.302L179.698 119.875H160.125Z" fill="black" stroke="#A9A9A9" stroke-width="0.25"/>
<rect x="60.125" y="40.125" width="19.75" height="19.75" fill="black" stroke="#A9A9A9" stroke-width="0.25"/>
<rect x="60.125" y="180.125" width="19.75" height="19.75" fill="black" stroke="#A9A9A9" stroke-width="0.25"/>
<path d="M140.125 99.875V80.3018L159.698 99.875H140.125Z" fill="black" stroke="#A9A9A9" stroke-width="0.25"/>
<path d="M120.125 79.875V60.3018L139.698 79.875H120.125Z" fill="black" stroke="#A9A9A9" stroke-width="0.25"/>
<path d="M140.125 140.125H159.698L140.125 159.698V140.125Z" fill="black" stroke="#A9A9A9" stroke-width="0.25"/>
</svg>
