<svg width="215" height="215" viewBox="0 0 215 215" fill="none" xmlns="http://www.w3.org/2000/svg">
<rect width="215" height="215" fill="white"/>
<rect x="84.125" y="36.125" width="19.75" height="19.75" fill="black" stroke="#A9A9A9" stroke-width="0.25"/>
<path d="M103.875 95.875H84.3018L103.875 76.3018V95.875Z" fill="black" stroke="#A9A9A9" stroke-width="0.25"/>
<rect x="84.125" y="176.125" width="19.75" height="19.75" fill="black" stroke="#A9A9A9" stroke-width="0.25"/>
<path d="M63.875 55.875H44.3018L63.875 36.3018V55.875Z" fill="black" stroke="#A9A9A9" stroke-width="0.25"/>
<rect x="44.125" y="76.125" width="19.75" height="19.75" fill="black" stroke="#A9A9A9" stroke-width="0.25"/>
<rect x="44.125" y="116.125" width="19.75" height="19.75" fill="black" stroke="#A9A9A9" stroke-width="0.25"/>
<path d="M63.875 195.698L44.3018 176.125H63.875V195.698Z" fill="black" stroke="#A9A9A9" stroke-width="0.25"/>
<rect x="44.125" y="56.125" width="19.75" height="19.75" fill="black" stroke="#A9A9A9" stroke-width="0.25"/>
<rect x="44.125" y="96.125" width="19.75" height="19.75" fill="black" stroke="#A9A9A9" stroke-width="0.25"/>
<rect x="44.125" y="156.125" width="19.75" height="19.75" fill="black" stroke="#A9A9A9" stroke-width="0.25"/>
<rect x="44.125" y="136.125" width="19.75" height="19.75" fill="black" stroke="#A9A9A9" stroke-width="0.25"/>
<rect x="124.125" y="36.125" width="19.75" height="19.75" fill="black" stroke="#A9A9A9" stroke-width="0.25"/>
<rect x="124.125" y="176.125" width="19.75" height="19.75" fill="black" stroke="#A9A9A9" stroke-width="0.25"/>
<rect x="124.125" y="96.125" width="19.75" height="19.75" fill="black" stroke="#A9A9A9" stroke-width="0.25"/>
<path d="M164.125 36.125H183.698L164.125 55.6982V36.125Z" fill="black" stroke="#A9A9A9" stroke-width="0.25"/>
<rect x="104.125" y="36.125" width="19.75" height="19.75" fill="black" stroke="#A9A9A9" stroke-width="0.25"/>
<rect x="104.125" y="176.125" width="19.75" height="19.75" fill="black" stroke="#A9A9A9" stroke-width="0.25"/>
<rect x="104.125" y="96.125" width="19.75" height="19.75" fill="black" stroke="#A9A9A9" stroke-width="0.25"/>
<path d="M103.875 115.698L84.3018 96.125H103.875V115.698Z" fill="black" stroke="#A9A9A9" stroke-width="0.25"/>
<rect x="164.125" y="116.125" width="19.75" height="19.75" fill="black" stroke="#A9A9A9" stroke-width="0.25"/>
<path d="M164.125 176.125H183.698L164.125 195.698V176.125Z" fill="black" stroke="#A9A9A9" stroke-width="0.25"/>
<path d="M164.125 35.875V16.3018L183.698 35.875H164.125Z" fill="black" stroke="#A9A9A9" stroke-width="0.25"/>
<path d="M164.125 115.875V96.3018L183.698 115.875H164.125Z" fill="black" stroke="#A9A9A9" stroke-width="0.25"/>
<rect x="164.125" y="156.125" width="19.75" height="19.75" fill="black" stroke="#A9A9A9" stroke-width="0.25"/>
<rect x="164.125" y="136.125" width="19.75" height="19.75" fill="black" stroke="#A9A9A9" stroke-width="0.25"/>
<rect x="64.125" y="36.125" width="19.75" height="19.75" fill="black" stroke="#A9A9A9" stroke-width="0.25"/>
<rect x="64.125" y="176.125" width="19.75" height="19.75" fill="black" stroke="#A9A9A9" stroke-width="0.25"/>
<rect x="144.125" y="36.125" width="19.75" height="19.75" fill="black" stroke="#A9A9A9" stroke-width="0.25"/>
<rect x="144.125" y="176.125" width="19.75" height="19.75" fill="black" stroke="#A9A9A9" stroke-width="0.25"/>
<rect x="144.125" y="96.125" width="19.75" height="19.75" fill="black" stroke="#A9A9A9" stroke-width="0.25"/>
</svg>
