<svg width="225" height="225" viewBox="0 0 225 225" fill="none" xmlns="http://www.w3.org/2000/svg">
<rect width="225" height="225" fill="white"/>
<rect x="77.125" y="100.125" width="19.75" height="19.75" fill="white" stroke="#A9A9A9" stroke-width="0.25"/>
<rect x="37.125" y="80.125" width="19.75" height="19.75" fill="white" stroke="#A9A9A9" stroke-width="0.25"/>
<rect x="37.125" y="120.125" width="19.75" height="19.75" fill="white" stroke="#A9A9A9" stroke-width="0.25"/>
<rect x="37.125" y="60.125" width="19.75" height="19.75" fill="white" stroke="#A9A9A9" stroke-width="0.25"/>
<rect x="37.125" y="100.125" width="19.75" height="19.75" fill="white" stroke="#A9A9A9" stroke-width="0.25"/>
<rect x="37.125" y="160.125" width="19.75" height="19.75" fill="white" stroke="#A9A9A9" stroke-width="0.25"/>
<rect x="37.125" y="140.125" width="19.75" height="19.75" fill="white" stroke="#A9A9A9" stroke-width="0.25"/>
<rect x="117.125" y="100.125" width="19.75" height="19.75" fill="white" stroke="#A9A9A9" stroke-width="0.25"/>
<rect x="97.125" y="100.125" width="19.75" height="19.75" fill="white" stroke="#A9A9A9" stroke-width="0.25"/>
<rect x="57.125" y="100.125" width="19.75" height="19.75" fill="white" stroke="#A9A9A9" stroke-width="0.25"/>
<rect x="137.125" y="80.125" width="19.75" height="19.75" fill="white" stroke="#A9A9A9" stroke-width="0.25"/>
<rect x="137.125" y="120.125" width="19.75" height="19.75" fill="white" stroke="#A9A9A9" stroke-width="0.25"/>
<rect x="137.125" y="60.125" width="19.75" height="19.75" fill="white" stroke="#A9A9A9" stroke-width="0.25"/>
<rect x="137.125" y="100.125" width="19.75" height="19.75" fill="white" stroke="#A9A9A9" stroke-width="0.25"/>
<rect x="137.125" y="160.125" width="19.75" height="19.75" fill="white" stroke="#A9A9A9" stroke-width="0.25"/>
<rect x="137.125" y="140.125" width="19.75" height="19.75" fill="white" stroke="#A9A9A9" stroke-width="0.25"/>
<rect x="77.125" y="100.125" width="19.75" height="19.75" fill="black" stroke="#A9A9A9" stroke-width="0.25"/>
<path d="M56.875 59.875H37.3018L56.875 40.3018V59.875Z" fill="black" stroke="#A9A9A9" stroke-width="0.25"/>
<rect x="37.125" y="80.125" width="19.75" height="19.75" fill="black" stroke="#A9A9A9" stroke-width="0.25"/>
<rect x="37.125" y="120.125" width="19.75" height="19.75" fill="black" stroke="#A9A9A9" stroke-width="0.25"/>
<path d="M56.875 199.698L37.3018 180.125H56.875V199.698Z" fill="black" stroke="#A9A9A9" stroke-width="0.25"/>
<path d="M137.125 199.698L156.698 180.125H137.125V199.698Z" fill="black" stroke="#A9A9A9" stroke-width="0.25"/>
<rect x="37.125" y="60.125" width="19.75" height="19.75" fill="black" stroke="#A9A9A9" stroke-width="0.25"/>
<rect x="37.125" y="100.125" width="19.75" height="19.75" fill="black" stroke="#A9A9A9" stroke-width="0.25"/>
<rect x="37.125" y="160.125" width="19.75" height="19.75" fill="black" stroke="#A9A9A9" stroke-width="0.25"/>
<rect x="37.125" y="140.125" width="19.75" height="19.75" fill="black" stroke="#A9A9A9" stroke-width="0.25"/>
<rect x="117.125" y="100.125" width="19.75" height="19.75" fill="black" stroke="#A9A9A9" stroke-width="0.25"/>
<rect x="97.125" y="100.125" width="19.75" height="19.75" fill="black" stroke="#A9A9A9" stroke-width="0.25"/>
<rect x="57.125" y="100.125" width="19.75" height="19.75" fill="black" stroke="#A9A9A9" stroke-width="0.25"/>
<path d="M137.125 59.875V40.3018L156.698 59.875H137.125Z" fill="black" stroke="#A9A9A9" stroke-width="0.25"/>
<rect x="137.125" y="80.125" width="19.75" height="19.75" fill="black" stroke="#A9A9A9" stroke-width="0.25"/>
<rect x="137.125" y="120.125" width="19.75" height="19.75" fill="black" stroke="#A9A9A9" stroke-width="0.25"/>
<rect x="137.125" y="60.125" width="19.75" height="19.75" fill="black" stroke="#A9A9A9" stroke-width="0.25"/>
<rect x="137.125" y="100.125" width="19.75" height="19.75" fill="black" stroke="#A9A9A9" stroke-width="0.25"/>
<rect x="137.125" y="160.125" width="19.75" height="19.75" fill="black" stroke="#A9A9A9" stroke-width="0.25"/>
<rect x="137.125" y="140.125" width="19.75" height="19.75" fill="black" stroke="#A9A9A9" stroke-width="0.25"/>
</svg>
