<svg width="243" height="243" viewBox="0 0 243 243" fill="none" xmlns="http://www.w3.org/2000/svg">
<rect width="243" height="243" fill="white"/>
<rect x="40.125" y="80.125" width="19.75" height="19.75" fill="white" stroke="#A9A9A9" stroke-width="0.25"/>
<rect x="40.125" y="120.125" width="19.75" height="19.75" fill="white" stroke="#A9A9A9" stroke-width="0.25"/>
<rect x="40.125" y="60.125" width="19.75" height="19.75" fill="white" stroke="#A9A9A9" stroke-width="0.25"/>
<rect x="40.125" y="100.125" width="19.75" height="19.75" fill="white" stroke="#A9A9A9" stroke-width="0.25"/>
<rect x="40.125" y="160.125" width="19.75" height="19.75" fill="white" stroke="#A9A9A9" stroke-width="0.25"/>
<rect x="40.125" y="140.125" width="19.75" height="19.75" fill="white" stroke="#A9A9A9" stroke-width="0.25"/>
<rect x="40.125" y="80.125" width="19.75" height="19.75" fill="white" stroke="#A9A9A9" stroke-width="0.25"/>
<rect x="40.125" y="120.125" width="19.75" height="19.75" fill="white" stroke="#A9A9A9" stroke-width="0.25"/>
<rect x="40.125" y="60.125" width="19.75" height="19.75" fill="white" stroke="#A9A9A9" stroke-width="0.25"/>
<rect x="40.125" y="100.125" width="19.75" height="19.75" fill="white" stroke="#A9A9A9" stroke-width="0.25"/>
<rect x="40.125" y="160.125" width="19.75" height="19.75" fill="white" stroke="#A9A9A9" stroke-width="0.25"/>
<rect x="40.125" y="140.125" width="19.75" height="19.75" fill="white" stroke="#A9A9A9" stroke-width="0.25"/>
<path d="M80.125 100.125H99.6982L80.125 119.698V100.125Z" fill="black" stroke="#A9A9A9" stroke-width="0.25"/>
<rect x="40.125" y="80.125" width="19.75" height="19.75" fill="white" stroke="#A9A9A9" stroke-width="0.25"/>
<rect x="40.125" y="120.125" width="19.75" height="19.75" fill="white" stroke="#A9A9A9" stroke-width="0.25"/>
<rect x="40.125" y="60.125" width="19.75" height="19.75" fill="white" stroke="#A9A9A9" stroke-width="0.25"/>
<rect x="40.125" y="100.125" width="19.75" height="19.75" fill="white" stroke="#A9A9A9" stroke-width="0.25"/>
<rect x="40.125" y="160.125" width="19.75" height="19.75" fill="white" stroke="#A9A9A9" stroke-width="0.25"/>
<rect x="40.125" y="140.125" width="19.75" height="19.75" fill="white" stroke="#A9A9A9" stroke-width="0.25"/>
<path d="M120.125 59.875V40.3018L139.698 59.875H120.125Z" fill="black" stroke="#A9A9A9" stroke-width="0.25"/>
<path d="M140.125 180.125H159.698L140.125 199.698V180.125Z" fill="black" stroke="#A9A9A9" stroke-width="0.25"/>
<path d="M140.125 179.875V160.302L159.698 179.875H140.125Z" fill="black" stroke="#A9A9A9" stroke-width="0.25"/>
<path d="M80.3018 99.875L99.875 80.3018V99.875H80.3018Z" fill="black" stroke="#A9A9A9" stroke-width="0.25"/>
<path d="M80.125 139.875V120.302L99.6982 139.875H80.125Z" fill="black" stroke="#A9A9A9" stroke-width="0.25"/>
<path d="M59.875 59.875H40.3018L59.875 40.3018V59.875Z" fill="black" stroke="#A9A9A9" stroke-width="0.25"/>
<rect x="40.125" y="80.125" width="19.75" height="19.75" fill="black" stroke="#A9A9A9" stroke-width="0.25"/>
<rect x="40.125" y="120.125" width="19.75" height="19.75" fill="black" stroke="#A9A9A9" stroke-width="0.25"/>
<path d="M59.875 199.698L40.3018 180.125H59.875V199.698Z" fill="black" stroke="#A9A9A9" stroke-width="0.25"/>
<rect x="40.125" y="60.125" width="19.75" height="19.75" fill="black" stroke="#A9A9A9" stroke-width="0.25"/>
<rect x="40.125" y="100.125" width="19.75" height="19.75" fill="black" stroke="#A9A9A9" stroke-width="0.25"/>
<rect x="40.125" y="160.125" width="19.75" height="19.75" fill="black" stroke="#A9A9A9" stroke-width="0.25"/>
<rect x="40.125" y="140.125" width="19.75" height="19.75" fill="black" stroke="#A9A9A9" stroke-width="0.25"/>
<path d="M139.875 199.698L120.302 180.125H139.875V199.698Z" fill="black" stroke="#A9A9A9" stroke-width="0.25"/>
<path d="M120.125 60.125H139.698L120.125 79.6982V60.125Z" fill="black" stroke="#A9A9A9" stroke-width="0.25"/>
<path d="M100.125 80.125H119.698L100.125 99.6982V80.125Z" fill="black" stroke="#A9A9A9" stroke-width="0.25"/>
<path d="M100.156 140.414L99.5906 159.98L80.5912 139.849L100.156 140.414Z" fill="black" stroke="#A9A9A9" stroke-width="0.25"/>
<path d="M100.302 79.875L119.875 60.3018V79.875H100.302Z" fill="black" stroke="#A9A9A9" stroke-width="0.25"/>
<path d="M119.875 179.698L100.302 160.125H119.875V179.698Z" fill="black" stroke="#A9A9A9" stroke-width="0.25"/>
<path d="M79.875 139.698L60.3018 120.125H79.875V139.698Z" fill="black" stroke="#A9A9A9" stroke-width="0.25"/>
<path d="M79.875 119.875H60.3018L79.875 100.302V119.875Z" fill="black" stroke="#A9A9A9" stroke-width="0.25"/>
<path d="M120.125 179.875V160.302L139.698 179.875H120.125Z" fill="black" stroke="#A9A9A9" stroke-width="0.25"/>
<path d="M100.125 159.875V140.302L119.698 159.875H100.125Z" fill="black" stroke="#A9A9A9" stroke-width="0.25"/>
</svg>
