<svg width="243" height="210" viewBox="0 0 243 210" fill="none" xmlns="http://www.w3.org/2000/svg">
<rect width="243" height="210" fill="white"/>
<path d="M124.182 100.435L124.132 120.008L104.609 100.385L124.182 100.435Z" fill="black" stroke="#A9A9A9" stroke-width="0.25"/>
<rect x="63.0805" y="140.028" width="19.75" height="19.75" transform="rotate(-179.853 63.0805 140.028)" fill="white" stroke="#A9A9A9" stroke-width="0.25"/>
<rect x="63.1831" y="100.028" width="19.75" height="19.75" transform="rotate(-179.853 63.1831 100.028)" fill="white" stroke="#A9A9A9" stroke-width="0.25"/>
<rect x="63.0291" y="160.028" width="19.75" height="19.75" transform="rotate(-179.853 63.0291 160.028)" fill="white" stroke="#A9A9A9" stroke-width="0.25"/>
<rect x="63.1318" y="120.028" width="19.75" height="19.75" transform="rotate(-179.853 63.1318 120.028)" fill="white" stroke="#A9A9A9" stroke-width="0.25"/>
<rect x="63.2858" y="60.0284" width="19.75" height="19.75" transform="rotate(-179.853 63.2858 60.0284)" fill="white" stroke="#A9A9A9" stroke-width="0.25"/>
<rect x="63.2345" y="80.0284" width="19.75" height="19.75" transform="rotate(-179.853 63.2345 80.0284)" fill="white" stroke="#A9A9A9" stroke-width="0.25"/>
<rect x="223.08" y="140.439" width="19.75" height="19.75" transform="rotate(-179.853 223.08 140.439)" fill="white" stroke="#A9A9A9" stroke-width="0.25"/>
<rect x="223.183" y="100.439" width="19.75" height="19.75" transform="rotate(-179.853 223.183 100.439)" fill="white" stroke="#A9A9A9" stroke-width="0.25"/>
<rect x="223.029" y="160.439" width="19.75" height="19.75" transform="rotate(-179.853 223.029 160.439)" fill="white" stroke="#A9A9A9" stroke-width="0.25"/>
<rect x="223.131" y="120.439" width="19.75" height="19.75" transform="rotate(-179.853 223.131 120.439)" fill="white" stroke="#A9A9A9" stroke-width="0.25"/>
<rect x="224.285" y="60.4417" width="19.75" height="19.75" transform="rotate(-179.853 224.285 60.4417)" fill="white" stroke="#A9A9A9" stroke-width="0.25"/>
<path d="M163.217 101.322L144.382 120.06L144.432 100.487L164.005 100.537L163.217 101.322Z" fill="black" stroke="#A9A9A9" stroke-width="0.25"/>
<path d="M84.5346 60.5097L104.058 80.1331L84.4844 80.0829L84.5346 60.5097Z" fill="black" stroke="#A9A9A9" stroke-width="0.25"/>
<path d="M104.483 80.561L124.006 100.184L104.433 100.134L104.483 80.561Z" fill="black" stroke="#A9A9A9" stroke-width="0.25"/>
<path d="M104.234 80.3836L104.183 99.9568L84.6605 80.3334L104.234 80.3836Z" fill="black" stroke="#A9A9A9" stroke-width="0.25"/>
<path d="M184.535 60.5897L204.108 60.6399L184.485 80.1628L184.535 60.5897Z" fill="black" stroke="#A9A9A9" stroke-width="0.25"/>
<rect x="144.132" y="120.236" width="19.75" height="19.75" transform="rotate(-179.853 144.132 120.236)" fill="black" stroke="#A9A9A9" stroke-width="0.25"/>
<path d="M64.0285 160.281L63.9783 179.854L44.4553 160.23L64.0285 160.281Z" fill="black" stroke="#A9A9A9" stroke-width="0.25"/>
<rect x="64.0805" y="140.031" width="19.75" height="19.75" transform="rotate(-179.853 64.0805 140.031)" fill="black" stroke="#A9A9A9" stroke-width="0.25"/>
<rect x="64.1831" y="100.031" width="19.75" height="19.75" transform="rotate(-179.853 64.1831 100.031)" fill="black" stroke="#A9A9A9" stroke-width="0.25"/>
<path d="M64.3371 40.0311L44.764 39.9808L64.3874 20.4579L64.3371 40.0311Z" fill="black" stroke="#A9A9A9" stroke-width="0.25"/>
<rect x="64.0291" y="160.031" width="19.75" height="19.75" transform="rotate(-179.853 64.0291 160.031)" fill="black" stroke="#A9A9A9" stroke-width="0.25"/>
<rect x="64.1318" y="120.031" width="19.75" height="19.75" transform="rotate(-179.853 64.1318 120.031)" fill="black" stroke="#A9A9A9" stroke-width="0.25"/>
<rect x="64.2858" y="60.031" width="19.75" height="19.75" transform="rotate(-179.853 64.2858 60.031)" fill="black" stroke="#A9A9A9" stroke-width="0.25"/>
<path d="M64.586 40.4585L84.1089 60.0819L64.5358 60.0316L64.586 40.4585Z" fill="black" stroke="#A9A9A9" stroke-width="0.25"/>
<rect x="64.2345" y="80.0309" width="19.75" height="19.75" transform="rotate(-179.853 64.2345 80.0309)" fill="black" stroke="#A9A9A9" stroke-width="0.25"/>
<rect x="224.08" y="140.441" width="19.75" height="19.75" transform="rotate(-179.853 224.08 140.441)" fill="black" stroke="#A9A9A9" stroke-width="0.25"/>
<rect x="224.183" y="100.442" width="19.75" height="19.75" transform="rotate(-179.853 224.183 100.442)" fill="black" stroke="#A9A9A9" stroke-width="0.25"/>
<rect x="224.234" y="80.4416" width="19.75" height="19.75" transform="rotate(-179.853 224.234 80.4416)" fill="black" stroke="#A9A9A9" stroke-width="0.25"/>
<rect x="224.285" y="60.4417" width="19.75" height="19.75" transform="rotate(-179.853 224.285 60.4417)" fill="black" stroke="#A9A9A9" stroke-width="0.25"/>
<path d="M204.285 60.3903L184.712 60.3401L204.336 40.8171L204.285 60.3903Z" fill="black" stroke="#A9A9A9" stroke-width="0.25"/>
<path d="M204.637 20.8179L224.16 40.4413L204.587 40.3911L204.637 20.8179Z" fill="black" stroke="#A9A9A9" stroke-width="0.25"/>
<path d="M204.278 160.641L223.851 160.691L204.228 180.214L204.278 160.641Z" fill="black" stroke="#A9A9A9" stroke-width="0.25"/>
<rect x="224.029" y="160.441" width="19.75" height="19.75" transform="rotate(-179.853 224.029 160.441)" fill="black" stroke="#A9A9A9" stroke-width="0.25"/>
<rect x="224.131" y="120.441" width="19.75" height="19.75" transform="rotate(-179.853 224.131 120.441)" fill="black" stroke="#A9A9A9" stroke-width="0.25"/>
<path d="M84.2851 60.3323L84.2348 79.9055L64.7119 60.2821L84.2851 60.3323Z" fill="black" stroke="#A9A9A9" stroke-width="0.25"/>
<path d="M164.484 80.5382L184.057 80.5885L164.433 100.111L164.484 80.5382Z" fill="black" stroke="#A9A9A9" stroke-width="0.25"/>
<path d="M164.183 100.288L144.61 100.237L164.233 80.7144L164.183 100.288Z" fill="black" stroke="#A9A9A9" stroke-width="0.25"/>
<path d="M184.234 80.3389L164.661 80.2887L184.284 60.7658L184.234 80.3389Z" fill="black" stroke="#A9A9A9" stroke-width="0.25"/>
<path d="M144.054 120.486L134.206 140.056L124.458 120.436L144.054 120.486Z" fill="black" stroke="#A9A9A9" stroke-width="0.25"/>
</svg>
