<svg width="209" height="209" viewBox="0 0 209 209" fill="none" xmlns="http://www.w3.org/2000/svg">
<rect width="209" height="209" fill="white"/>
<rect x="28.125" y="100.125" width="19.75" height="19.75" fill="white" stroke="#A9A9A9" stroke-width="0.25"/>
<rect x="28.125" y="80.125" width="19.75" height="19.75" fill="white" stroke="#A9A9A9" stroke-width="0.25"/>
<rect x="128.125" y="100.125" width="19.75" height="19.75" fill="white" stroke="#A9A9A9" stroke-width="0.25"/>
<rect x="128.125" y="80.125" width="19.75" height="19.75" fill="white" stroke="#A9A9A9" stroke-width="0.25"/>
<rect x="28.125" y="100.125" width="19.75" height="19.75" fill="white" stroke="#A9A9A9" stroke-width="0.25"/>
<rect x="28.125" y="80.125" width="19.75" height="19.75" fill="white" stroke="#A9A9A9" stroke-width="0.25"/>
<rect x="128.125" y="100.125" width="19.75" height="19.75" fill="white" stroke="#A9A9A9" stroke-width="0.25"/>
<rect x="128.125" y="80.125" width="19.75" height="19.75" fill="white" stroke="#A9A9A9" stroke-width="0.25"/>
<rect x="28.125" y="100.125" width="19.75" height="19.75" fill="white" stroke="#A9A9A9" stroke-width="0.25"/>
<rect x="28.125" y="80.125" width="19.75" height="19.75" fill="white" stroke="#A9A9A9" stroke-width="0.25"/>
<rect x="128.125" y="100.125" width="19.75" height="19.75" fill="white" stroke="#A9A9A9" stroke-width="0.25"/>
<rect x="128.125" y="80.125" width="19.75" height="19.75" fill="white" stroke="#A9A9A9" stroke-width="0.25"/>
<rect x="28.125" y="100.125" width="19.75" height="19.75" fill="white" stroke="#A9A9A9" stroke-width="0.25"/>
<rect x="28.125" y="80.125" width="19.75" height="19.75" fill="white" stroke="#A9A9A9" stroke-width="0.25"/>
<rect x="128.125" y="100.125" width="19.75" height="19.75" fill="white" stroke="#A9A9A9" stroke-width="0.25"/>
<rect x="128.125" y="80.125" width="19.75" height="19.75" fill="white" stroke="#A9A9A9" stroke-width="0.25"/>
<rect x="28.125" y="100.125" width="19.75" height="19.75" fill="white" stroke="#A9A9A9" stroke-width="0.25"/>
<rect x="28.125" y="80.125" width="19.75" height="19.75" fill="white" stroke="#A9A9A9" stroke-width="0.25"/>
<rect x="128.125" y="100.125" width="19.75" height="19.75" fill="white" stroke="#A9A9A9" stroke-width="0.25"/>
<rect x="128.125" y="80.125" width="19.75" height="19.75" fill="white" stroke="#A9A9A9" stroke-width="0.25"/>
<rect x="28.125" y="100.125" width="19.75" height="19.75" fill="white" stroke="#A9A9A9" stroke-width="0.25"/>
<rect x="28.125" y="80.125" width="19.75" height="19.75" fill="white" stroke="#A9A9A9" stroke-width="0.25"/>
<rect x="128.125" y="100.125" width="19.75" height="19.75" fill="white" stroke="#A9A9A9" stroke-width="0.25"/>
<rect x="128.125" y="80.125" width="19.75" height="19.75" fill="white" stroke="#A9A9A9" stroke-width="0.25"/>
<path d="M68.125 159.875V140.302L87.6982 159.875H68.125Z" fill="black" stroke="#A9A9A9" stroke-width="0.25"/>
<rect x="28.125" y="100.125" width="19.75" height="19.75" fill="black" stroke="#A9A9A9" stroke-width="0.25"/>
<rect x="28.125" y="80.125" width="19.75" height="19.75" fill="white" stroke="#A9A9A9" stroke-width="0.25"/>
<path d="M127.875 139.875H108.302L127.875 120.302V139.875Z" fill="black" stroke="#A9A9A9" stroke-width="0.25"/>
<path d="M107.875 159.875H88.3018L107.875 140.302V159.875Z" fill="black" stroke="#A9A9A9" stroke-width="0.25"/>
<path d="M48.125 139.875V120.302L67.6982 139.875H48.125Z" fill="black" stroke="#A9A9A9" stroke-width="0.25"/>
<rect x="128.125" y="100.125" width="19.75" height="19.75" fill="black" stroke="#A9A9A9" stroke-width="0.25"/>
<rect x="128.125" y="80.125" width="19.75" height="19.75" fill="white" stroke="#A9A9A9" stroke-width="0.25"/>
<path d="M87.875 39.875H68.3018L87.875 20.3018V39.875Z" fill="black" stroke="#A9A9A9" stroke-width="0.25"/>
<path d="M87.875 179.698L68.3018 160.125H87.875V179.698Z" fill="black" stroke="#A9A9A9" stroke-width="0.25"/>
<path d="M68.125 40.125H87.6982L68.125 59.6982V40.125Z" fill="black" stroke="#A9A9A9" stroke-width="0.25"/>
<path d="M47.875 79.875H28.3018L47.875 60.3018V79.875Z" fill="black" stroke="#A9A9A9" stroke-width="0.25"/>
<rect x="28.125" y="80.125" width="19.75" height="19.75" fill="black" stroke="#A9A9A9" stroke-width="0.25"/>
<path d="M47.875 139.698L28.3018 120.125H47.875V139.698Z" fill="black" stroke="#A9A9A9" stroke-width="0.25"/>
<path d="M127.875 79.6982L108.302 60.125H127.875V79.6982Z" fill="black" stroke="#A9A9A9" stroke-width="0.25"/>
<path d="M108.125 59.875V40.3018L127.698 59.875H108.125Z" fill="black" stroke="#A9A9A9" stroke-width="0.25"/>
<path d="M108.125 140.125H127.698L108.125 159.698V140.125Z" fill="black" stroke="#A9A9A9" stroke-width="0.25"/>
<path d="M88.125 39.875V20.3018L107.698 39.875H88.125Z" fill="black" stroke="#A9A9A9" stroke-width="0.25"/>
<path d="M88.125 160.125H107.698L88.125 179.698V160.125Z" fill="black" stroke="#A9A9A9" stroke-width="0.25"/>
<path d="M107.875 59.6982L88.3018 40.125H107.875V59.6982Z" fill="black" stroke="#A9A9A9" stroke-width="0.25"/>
<path d="M48.125 60.125H67.6982L48.125 79.6982V60.125Z" fill="black" stroke="#A9A9A9" stroke-width="0.25"/>
<path d="M67.875 59.875H48.3018L67.875 40.3018V59.875Z" fill="black" stroke="#A9A9A9" stroke-width="0.25"/>
<path d="M67.875 159.698L48.3018 140.125H67.875V159.698Z" fill="black" stroke="#A9A9A9" stroke-width="0.25"/>
<path d="M128.125 79.875V60.3018L147.698 79.875H128.125Z" fill="black" stroke="#A9A9A9" stroke-width="0.25"/>
<rect x="128.125" y="80.125" width="19.75" height="19.75" fill="black" stroke="#A9A9A9" stroke-width="0.25"/>
<path d="M128.125 120.125H147.698L128.125 139.698V120.125Z" fill="black" stroke="#A9A9A9" stroke-width="0.25"/>
</svg>
