<svg width="230" height="230" viewBox="0 0 230 230" fill="none" xmlns="http://www.w3.org/2000/svg">
<rect width="230" height="230" fill="white"/>
<rect x="90.125" y="25.125" width="19.75" height="19.75" fill="white" stroke="#A9A9A9" stroke-width="0.25"/>
<rect x="90.125" y="105.125" width="19.75" height="19.75" fill="white" stroke="#A9A9A9" stroke-width="0.25"/>
<rect x="50.125" y="25.125" width="19.75" height="19.75" fill="white" stroke="#A9A9A9" stroke-width="0.25"/>
<rect x="50.125" y="65.125" width="19.75" height="19.75" fill="white" stroke="#A9A9A9" stroke-width="0.25"/>
<rect x="50.125" y="105.125" width="19.75" height="19.75" fill="white" stroke="#A9A9A9" stroke-width="0.25"/>
<rect x="50.125" y="165.125" width="19.75" height="19.75" fill="white" stroke="#A9A9A9" stroke-width="0.25"/>
<rect x="50.125" y="45.125" width="19.75" height="19.75" fill="white" stroke="#A9A9A9" stroke-width="0.25"/>
<rect x="50.125" y="85.125" width="19.75" height="19.75" fill="white" stroke="#A9A9A9" stroke-width="0.25"/>
<rect x="50.125" y="145.125" width="19.75" height="19.75" fill="white" stroke="#A9A9A9" stroke-width="0.25"/>
<rect x="50.125" y="125.125" width="19.75" height="19.75" fill="white" stroke="#A9A9A9" stroke-width="0.25"/>
<rect x="130.125" y="65.125" width="19.75" height="19.75" fill="white" stroke="#A9A9A9" stroke-width="0.25"/>
<rect x="70.125" y="25.125" width="19.75" height="19.75" fill="white" stroke="#A9A9A9" stroke-width="0.25"/>
<rect x="70.125" y="105.125" width="19.75" height="19.75" fill="white" stroke="#A9A9A9" stroke-width="0.25"/>
<rect x="90.125" y="25.125" width="19.75" height="19.75" fill="white" stroke="#A9A9A9" stroke-width="0.25"/>
<rect x="90.125" y="105.125" width="19.75" height="19.75" fill="white" stroke="#A9A9A9" stroke-width="0.25"/>
<rect x="50.125" y="25.125" width="19.75" height="19.75" fill="white" stroke="#A9A9A9" stroke-width="0.25"/>
<rect x="50.125" y="65.125" width="19.75" height="19.75" fill="white" stroke="#A9A9A9" stroke-width="0.25"/>
<rect x="50.125" y="105.125" width="19.75" height="19.75" fill="white" stroke="#A9A9A9" stroke-width="0.25"/>
<rect x="50.125" y="165.125" width="19.75" height="19.75" fill="white" stroke="#A9A9A9" stroke-width="0.25"/>
<rect x="50.125" y="45.125" width="19.75" height="19.75" fill="white" stroke="#A9A9A9" stroke-width="0.25"/>
<rect x="50.125" y="85.125" width="19.75" height="19.75" fill="white" stroke="#A9A9A9" stroke-width="0.25"/>
<rect x="50.125" y="145.125" width="19.75" height="19.75" fill="white" stroke="#A9A9A9" stroke-width="0.25"/>
<rect x="50.125" y="125.125" width="19.75" height="19.75" fill="white" stroke="#A9A9A9" stroke-width="0.25"/>
<rect x="130.125" y="65.125" width="19.75" height="19.75" fill="white" stroke="#A9A9A9" stroke-width="0.25"/>
<rect x="70.125" y="25.125" width="19.75" height="19.75" fill="white" stroke="#A9A9A9" stroke-width="0.25"/>
<rect x="70.125" y="105.125" width="19.75" height="19.75" fill="white" stroke="#A9A9A9" stroke-width="0.25"/>
<rect x="90.125" y="25.125" width="19.75" height="19.75" fill="white" stroke="#A9A9A9" stroke-width="0.25"/>
<rect x="90.125" y="105.125" width="19.75" height="19.75" fill="white" stroke="#A9A9A9" stroke-width="0.25"/>
<rect x="50.125" y="25.125" width="19.75" height="19.75" fill="white" stroke="#A9A9A9" stroke-width="0.25"/>
<rect x="50.125" y="65.125" width="19.75" height="19.75" fill="white" stroke="#A9A9A9" stroke-width="0.25"/>
<rect x="50.125" y="105.125" width="19.75" height="19.75" fill="white" stroke="#A9A9A9" stroke-width="0.25"/>
<rect x="50.125" y="165.125" width="19.75" height="19.75" fill="white" stroke="#A9A9A9" stroke-width="0.25"/>
<rect x="50.125" y="45.125" width="19.75" height="19.75" fill="white" stroke="#A9A9A9" stroke-width="0.25"/>
<rect x="50.125" y="85.125" width="19.75" height="19.75" fill="white" stroke="#A9A9A9" stroke-width="0.25"/>
<rect x="50.125" y="145.125" width="19.75" height="19.75" fill="white" stroke="#A9A9A9" stroke-width="0.25"/>
<rect x="50.125" y="125.125" width="19.75" height="19.75" fill="white" stroke="#A9A9A9" stroke-width="0.25"/>
<rect x="130.125" y="65.125" width="19.75" height="19.75" fill="white" stroke="#A9A9A9" stroke-width="0.25"/>
<rect x="70.125" y="25.125" width="19.75" height="19.75" fill="white" stroke="#A9A9A9" stroke-width="0.25"/>
<rect x="70.125" y="105.125" width="19.75" height="19.75" fill="white" stroke="#A9A9A9" stroke-width="0.25"/>
<rect x="90.125" y="25.125" width="19.75" height="19.75" fill="white" stroke="#A9A9A9" stroke-width="0.25"/>
<rect x="90.125" y="105.125" width="19.75" height="19.75" fill="white" stroke="#A9A9A9" stroke-width="0.25"/>
<rect x="50.125" y="25.125" width="19.75" height="19.75" fill="white" stroke="#A9A9A9" stroke-width="0.25"/>
<rect x="50.125" y="65.125" width="19.75" height="19.75" fill="white" stroke="#A9A9A9" stroke-width="0.25"/>
<rect x="50.125" y="105.125" width="19.75" height="19.75" fill="white" stroke="#A9A9A9" stroke-width="0.25"/>
<rect x="50.125" y="165.125" width="19.75" height="19.75" fill="white" stroke="#A9A9A9" stroke-width="0.25"/>
<rect x="50.125" y="45.125" width="19.75" height="19.75" fill="white" stroke="#A9A9A9" stroke-width="0.25"/>
<rect x="50.125" y="85.125" width="19.75" height="19.75" fill="white" stroke="#A9A9A9" stroke-width="0.25"/>
<rect x="50.125" y="145.125" width="19.75" height="19.75" fill="white" stroke="#A9A9A9" stroke-width="0.25"/>
<rect x="50.125" y="125.125" width="19.75" height="19.75" fill="white" stroke="#A9A9A9" stroke-width="0.25"/>
<rect x="130.125" y="65.125" width="19.75" height="19.75" fill="white" stroke="#A9A9A9" stroke-width="0.25"/>
<rect x="70.125" y="25.125" width="19.75" height="19.75" fill="white" stroke="#A9A9A9" stroke-width="0.25"/>
<rect x="70.125" y="105.125" width="19.75" height="19.75" fill="white" stroke="#A9A9A9" stroke-width="0.25"/>
<rect x="90.125" y="25.125" width="19.75" height="19.75" fill="white" stroke="#A9A9A9" stroke-width="0.25"/>
<rect x="90.125" y="105.125" width="19.75" height="19.75" fill="white" stroke="#A9A9A9" stroke-width="0.25"/>
<rect x="50.125" y="25.125" width="19.75" height="19.75" fill="white" stroke="#A9A9A9" stroke-width="0.25"/>
<rect x="50.125" y="65.125" width="19.75" height="19.75" fill="white" stroke="#A9A9A9" stroke-width="0.25"/>
<rect x="50.125" y="105.125" width="19.75" height="19.75" fill="white" stroke="#A9A9A9" stroke-width="0.25"/>
<rect x="50.125" y="165.125" width="19.75" height="19.75" fill="white" stroke="#A9A9A9" stroke-width="0.25"/>
<rect x="50.125" y="45.125" width="19.75" height="19.75" fill="white" stroke="#A9A9A9" stroke-width="0.25"/>
<rect x="50.125" y="85.125" width="19.75" height="19.75" fill="white" stroke="#A9A9A9" stroke-width="0.25"/>
<rect x="50.125" y="145.125" width="19.75" height="19.75" fill="white" stroke="#A9A9A9" stroke-width="0.25"/>
<rect x="50.125" y="125.125" width="19.75" height="19.75" fill="white" stroke="#A9A9A9" stroke-width="0.25"/>
<rect x="130.125" y="65.125" width="19.75" height="19.75" fill="white" stroke="#A9A9A9" stroke-width="0.25"/>
<rect x="70.125" y="25.125" width="19.75" height="19.75" fill="white" stroke="#A9A9A9" stroke-width="0.25"/>
<rect x="70.125" y="105.125" width="19.75" height="19.75" fill="white" stroke="#A9A9A9" stroke-width="0.25"/>
<rect x="90.125" y="25.125" width="19.75" height="19.75" fill="white" stroke="#A9A9A9" stroke-width="0.25"/>
<rect x="90.125" y="105.125" width="19.75" height="19.75" fill="white" stroke="#A9A9A9" stroke-width="0.25"/>
<rect x="50.125" y="25.125" width="19.75" height="19.75" fill="black" stroke="#A9A9A9" stroke-width="0.25"/>
<rect x="50.125" y="65.125" width="19.75" height="19.75" fill="white" stroke="#A9A9A9" stroke-width="0.25"/>
<rect x="50.125" y="105.125" width="19.75" height="19.75" fill="white" stroke="#A9A9A9" stroke-width="0.25"/>
<rect x="50.125" y="165.125" width="19.75" height="19.75" fill="black" stroke="#A9A9A9" stroke-width="0.25"/>
<rect x="50.125" y="45.125" width="19.75" height="19.75" fill="white" stroke="#A9A9A9" stroke-width="0.25"/>
<rect x="50.125" y="85.125" width="19.75" height="19.75" fill="white" stroke="#A9A9A9" stroke-width="0.25"/>
<rect x="50.125" y="145.125" width="19.75" height="19.75" fill="white" stroke="#A9A9A9" stroke-width="0.25"/>
<rect x="50.125" y="125.125" width="19.75" height="19.75" fill="white" stroke="#A9A9A9" stroke-width="0.25"/>
<rect x="130.125" y="65.125" width="19.75" height="19.75" fill="white" stroke="#A9A9A9" stroke-width="0.25"/>
<rect x="70.125" y="25.125" width="19.75" height="19.75" fill="white" stroke="#A9A9A9" stroke-width="0.25"/>
<rect x="70.125" y="105.125" width="19.75" height="19.75" fill="white" stroke="#A9A9A9" stroke-width="0.25"/>
<rect x="90.125" y="25.125" width="19.75" height="19.75" fill="white" stroke="#A9A9A9" stroke-width="0.25"/>
<rect x="90.125" y="105.125" width="19.75" height="19.75" fill="white" stroke="#A9A9A9" stroke-width="0.25"/>
<rect x="50.125" y="65.125" width="19.75" height="19.75" fill="white" stroke="#A9A9A9" stroke-width="0.25"/>
<rect x="50.125" y="105.125" width="19.75" height="19.75" fill="white" stroke="#A9A9A9" stroke-width="0.25"/>
<rect x="50.125" y="45.125" width="19.75" height="19.75" fill="white" stroke="#A9A9A9" stroke-width="0.25"/>
<rect x="50.125" y="85.125" width="19.75" height="19.75" fill="white" stroke="#A9A9A9" stroke-width="0.25"/>
<rect x="50.125" y="145.125" width="19.75" height="19.75" fill="white" stroke="#A9A9A9" stroke-width="0.25"/>
<rect x="50.125" y="125.125" width="19.75" height="19.75" fill="white" stroke="#A9A9A9" stroke-width="0.25"/>
<rect x="130.125" y="65.125" width="19.75" height="19.75" fill="white" stroke="#A9A9A9" stroke-width="0.25"/>
<rect x="70.125" y="25.125" width="19.75" height="19.75" fill="white" stroke="#A9A9A9" stroke-width="0.25"/>
<rect x="70.125" y="105.125" width="19.75" height="19.75" fill="white" stroke="#A9A9A9" stroke-width="0.25"/>
<rect x="90.125" y="25.125" width="19.75" height="19.75" fill="black" stroke="#A9A9A9" stroke-width="0.25"/>
<rect x="90.125" y="105.125" width="19.75" height="19.75" fill="black" stroke="#A9A9A9" stroke-width="0.25"/>
<rect x="50.125" y="65.125" width="19.75" height="19.75" fill="black" stroke="#A9A9A9" stroke-width="0.25"/>
<rect x="50.125" y="105.125" width="19.75" height="19.75" fill="black" stroke="#A9A9A9" stroke-width="0.25"/>
<path d="M69.875 24.875H50.3018L69.875 5.30178V24.875Z" fill="black" stroke="#A9A9A9" stroke-width="0.25"/>
<rect x="50.125" y="45.125" width="19.75" height="19.75" fill="black" stroke="#A9A9A9" stroke-width="0.25"/>
<rect x="50.125" y="85.125" width="19.75" height="19.75" fill="black" stroke="#A9A9A9" stroke-width="0.25"/>
<rect x="50.125" y="145.125" width="19.75" height="19.75" fill="black" stroke="#A9A9A9" stroke-width="0.25"/>
<rect x="50.125" y="125.125" width="19.75" height="19.75" fill="black" stroke="#A9A9A9" stroke-width="0.25"/>
<path d="M69.875 204.698L50.3018 185.125H69.875V204.698Z" fill="black" stroke="#A9A9A9" stroke-width="0.25"/>
<rect x="130.125" y="65.125" width="19.75" height="19.75" fill="black" stroke="#A9A9A9" stroke-width="0.25"/>
<path d="M130.125 64.875V45.3018L149.698 64.875H130.125Z" fill="black" stroke="#A9A9A9" stroke-width="0.25"/>
<path d="M130.125 85.125H149.698L130.125 104.698V85.125Z" fill="black" stroke="#A9A9A9" stroke-width="0.25"/>
<path d="M110.125 44.875V25.3018L129.698 44.875H110.125Z" fill="black" stroke="#A9A9A9" stroke-width="0.25"/>
<path d="M110.125 105.125H129.698L110.125 124.698V105.125Z" fill="black" stroke="#A9A9A9" stroke-width="0.25"/>
<path d="M129.875 64.6982L110.302 45.125H129.875V64.6982Z" fill="black" stroke="#A9A9A9" stroke-width="0.25"/>
<path d="M129.875 104.875H110.302L129.875 85.3018V104.875Z" fill="black" stroke="#A9A9A9" stroke-width="0.25"/>
<rect x="70.125" y="25.125" width="19.75" height="19.75" fill="black" stroke="#A9A9A9" stroke-width="0.25"/>
<rect x="70.125" y="105.125" width="19.75" height="19.75" fill="black" stroke="#A9A9A9" stroke-width="0.25"/>
</svg>
