<svg width="255" height="230" viewBox="0 0 255 230" fill="none" xmlns="http://www.w3.org/2000/svg">
<rect width="255" height="230" fill="white"/>
<rect x="65.6783" y="117.112" width="19.75" height="19.75" transform="rotate(-0.312342 65.6783 117.112)" fill="white" stroke="#A9A9A9" stroke-width="0.25"/>
<rect x="65.5692" y="97.1121" width="19.75" height="19.75" transform="rotate(-0.312342 65.5692 97.1121)" fill="white" stroke="#A9A9A9" stroke-width="0.25"/>
<rect x="165.677" y="116.567" width="19.75" height="19.75" transform="rotate(-0.312342 165.677 116.567)" fill="white" stroke="#A9A9A9" stroke-width="0.25"/>
<rect x="165.568" y="96.567" width="19.75" height="19.75" transform="rotate(-0.312342 165.568 96.567)" fill="white" stroke="#A9A9A9" stroke-width="0.25"/>
<rect x="165.895" y="156.566" width="19.75" height="19.75" transform="rotate(-0.312342 165.895 156.566)" fill="white" stroke="#A9A9A9" stroke-width="0.25"/>
<rect x="165.786" y="136.566" width="19.75" height="19.75" transform="rotate(-0.312342 165.786 136.566)" fill="white" stroke="#A9A9A9" stroke-width="0.25"/>
<rect x="65.6783" y="117.112" width="19.75" height="19.75" transform="rotate(-0.312342 65.6783 117.112)" fill="white" stroke="#A9A9A9" stroke-width="0.25"/>
<rect x="65.5692" y="97.1121" width="19.75" height="19.75" transform="rotate(-0.312342 65.5692 97.1121)" fill="white" stroke="#A9A9A9" stroke-width="0.25"/>
<rect x="165.677" y="116.567" width="19.75" height="19.75" transform="rotate(-0.312342 165.677 116.567)" fill="white" stroke="#A9A9A9" stroke-width="0.25"/>
<rect x="165.568" y="96.567" width="19.75" height="19.75" transform="rotate(-0.312342 165.568 96.567)" fill="white" stroke="#A9A9A9" stroke-width="0.25"/>
<rect x="165.895" y="156.566" width="19.75" height="19.75" transform="rotate(-0.312342 165.895 156.566)" fill="white" stroke="#A9A9A9" stroke-width="0.25"/>
<rect x="165.786" y="136.566" width="19.75" height="19.75" transform="rotate(-0.312342 165.786 136.566)" fill="white" stroke="#A9A9A9" stroke-width="0.25"/>
<rect x="65.6783" y="117.112" width="19.75" height="19.75" transform="rotate(-0.312342 65.6783 117.112)" fill="white" stroke="#A9A9A9" stroke-width="0.25"/>
<rect x="65.5692" y="97.1121" width="19.75" height="19.75" transform="rotate(-0.312342 65.5692 97.1121)" fill="white" stroke="#A9A9A9" stroke-width="0.25"/>
<path d="M145.895 156.675L165.468 156.568L146.002 176.248L145.895 156.675Z" fill="black" stroke="#A9A9A9" stroke-width="0.25"/>
<rect x="165.677" y="116.567" width="19.75" height="19.75" transform="rotate(-0.312342 165.677 116.567)" fill="white" stroke="#A9A9A9" stroke-width="0.25"/>
<rect x="165.568" y="96.567" width="19.75" height="19.75" transform="rotate(-0.312342 165.568 96.567)" fill="white" stroke="#A9A9A9" stroke-width="0.25"/>
<rect x="165.895" y="156.566" width="19.75" height="19.75" transform="rotate(-0.312342 165.895 156.566)" fill="white" stroke="#A9A9A9" stroke-width="0.25"/>
<rect x="165.786" y="136.566" width="19.75" height="19.75" transform="rotate(-0.312342 165.786 136.566)" fill="white" stroke="#A9A9A9" stroke-width="0.25"/>
<rect x="65.6783" y="117.112" width="19.75" height="19.75" transform="rotate(-0.312342 65.6783 117.112)" fill="white" stroke="#A9A9A9" stroke-width="0.25"/>
<rect x="65.5692" y="97.1121" width="19.75" height="19.75" transform="rotate(-0.312342 65.5692 97.1121)" fill="white" stroke="#A9A9A9" stroke-width="0.25"/>
<rect x="165.677" y="116.567" width="19.75" height="19.75" transform="rotate(-0.312342 165.677 116.567)" fill="white" stroke="#A9A9A9" stroke-width="0.25"/>
<rect x="165.568" y="96.567" width="19.75" height="19.75" transform="rotate(-0.312342 165.568 96.567)" fill="white" stroke="#A9A9A9" stroke-width="0.25"/>
<rect x="165.895" y="156.566" width="19.75" height="19.75" transform="rotate(-0.312342 165.895 156.566)" fill="white" stroke="#A9A9A9" stroke-width="0.25"/>
<rect x="165.786" y="136.566" width="19.75" height="19.75" transform="rotate(-0.312342 165.786 136.566)" fill="white" stroke="#A9A9A9" stroke-width="0.25"/>
<rect x="65.6783" y="117.112" width="19.75" height="19.75" transform="rotate(-0.312342 65.6783 117.112)" fill="white" stroke="#A9A9A9" stroke-width="0.25"/>
<rect x="65.5692" y="97.1121" width="19.75" height="19.75" transform="rotate(-0.312342 65.5692 97.1121)" fill="white" stroke="#A9A9A9" stroke-width="0.25"/>
<rect x="165.677" y="116.567" width="19.75" height="19.75" transform="rotate(-0.312342 165.677 116.567)" fill="white" stroke="#A9A9A9" stroke-width="0.25"/>
<rect x="165.568" y="96.567" width="19.75" height="19.75" transform="rotate(-0.312342 165.568 96.567)" fill="white" stroke="#A9A9A9" stroke-width="0.25"/>
<rect x="165.895" y="156.566" width="19.75" height="19.75" transform="rotate(-0.312342 165.895 156.566)" fill="white" stroke="#A9A9A9" stroke-width="0.25"/>
<rect x="165.786" y="136.566" width="19.75" height="19.75" transform="rotate(-0.312342 165.786 136.566)" fill="white" stroke="#A9A9A9" stroke-width="0.25"/>
<rect x="65.6783" y="117.112" width="19.75" height="19.75" transform="rotate(-0.312342 65.6783 117.112)" fill="white" stroke="#A9A9A9" stroke-width="0.25"/>
<rect x="65.5692" y="97.1121" width="19.75" height="19.75" transform="rotate(-0.312342 65.5692 97.1121)" fill="white" stroke="#A9A9A9" stroke-width="0.25"/>
<rect x="165.677" y="116.567" width="19.75" height="19.75" transform="rotate(-0.312342 165.677 116.567)" fill="white" stroke="#A9A9A9" stroke-width="0.25"/>
<rect x="165.568" y="96.567" width="19.75" height="19.75" transform="rotate(-0.312342 165.568 96.567)" fill="white" stroke="#A9A9A9" stroke-width="0.25"/>
<rect x="165.895" y="156.566" width="19.75" height="19.75" transform="rotate(-0.312342 165.895 156.566)" fill="black" stroke="#A9A9A9" stroke-width="0.25"/>
<rect x="165.786" y="136.566" width="19.75" height="19.75" transform="rotate(-0.312342 165.786 136.566)" fill="white" stroke="#A9A9A9" stroke-width="0.25"/>
<path d="M106.003 176.643L105.897 157.07L125.576 176.536L106.003 176.643Z" fill="black" stroke="#A9A9A9" stroke-width="0.25"/>
<path d="M85.3176 96.7545L65.7447 96.8612L85.2109 77.1815L85.3176 96.7545Z" fill="black" stroke="#A9A9A9" stroke-width="0.25"/>
<rect x="65.6783" y="117.112" width="19.75" height="19.75" transform="rotate(-0.312342 65.6783 117.112)" fill="black" stroke="#A9A9A9" stroke-width="0.25"/>
<rect x="65.5692" y="97.1121" width="19.75" height="19.75" transform="rotate(-0.312342 65.5692 97.1121)" fill="white" stroke="#A9A9A9" stroke-width="0.25"/>
<path d="M165.643 156.317L146.071 156.424L165.537 136.745L165.643 156.317Z" fill="black" stroke="#A9A9A9" stroke-width="0.25"/>
<path d="M145.753 176.426L126.18 176.533L145.646 156.853L145.753 176.426Z" fill="black" stroke="#A9A9A9" stroke-width="0.25"/>
<path d="M85.8947 156.752L85.788 137.179L105.468 156.646L85.8947 156.752Z" fill="black" stroke="#A9A9A9" stroke-width="0.25"/>
<rect x="165.677" y="116.567" width="19.75" height="19.75" transform="rotate(-0.312342 165.677 116.567)" fill="black" stroke="#A9A9A9" stroke-width="0.25"/>
<path d="M185.86 196.031L166.181 176.565L185.754 176.458L185.86 196.031Z" fill="black" stroke="#A9A9A9" stroke-width="0.25"/>
<rect x="165.568" y="96.567" width="19.75" height="19.75" transform="rotate(-0.312342 165.568 96.567)" fill="white" stroke="#A9A9A9" stroke-width="0.25"/>
<rect x="165.786" y="136.566" width="19.75" height="19.75" transform="rotate(-0.312342 165.786 136.566)" fill="black" stroke="#A9A9A9" stroke-width="0.25"/>
<path d="M125.099 56.537L105.526 56.6437L124.992 36.9641L125.099 56.537Z" fill="black" stroke="#A9A9A9" stroke-width="0.25"/>
<path d="M125.861 196.358L106.182 176.892L125.754 176.785L125.861 196.358Z" fill="black" stroke="#A9A9A9" stroke-width="0.25"/>
<rect x="65.5692" y="97.1121" width="19.75" height="19.75" transform="rotate(-0.312342 65.5692 97.1121)" fill="black" stroke="#A9A9A9" stroke-width="0.25"/>
<path d="M85.6436 156.577L65.964 137.111L85.5369 137.004L85.6436 156.577Z" fill="black" stroke="#A9A9A9" stroke-width="0.25"/>
<path d="M165.315 96.1416L145.636 76.6753L165.209 76.5686L165.315 96.1416Z" fill="black" stroke="#A9A9A9" stroke-width="0.25"/>
<path d="M145.982 75.6986L126.302 56.2324L145.875 56.1257L145.982 75.6986Z" fill="black" stroke="#A9A9A9" stroke-width="0.25"/>
<path d="M145.458 76.4263L145.351 56.8534L165.031 76.3196L145.458 76.4263Z" fill="black" stroke="#A9A9A9" stroke-width="0.25"/>
<path d="M145.769 156.551L165.769 156.442" stroke="#A9A9A9" stroke-width="0.25"/>
<path d="M125.349 56.5356L125.242 36.9627L144.922 56.4289L125.349 56.5356Z" fill="black" stroke="#A9A9A9" stroke-width="0.25"/>
<path d="M126.004 176.784L145.577 176.677L126.111 196.357L126.004 176.784Z" fill="black" stroke="#A9A9A9" stroke-width="0.25"/>
<path d="M105.126 56.2334L124.699 56.1267L105.232 75.8063L105.126 56.2334Z" fill="black" stroke="#A9A9A9" stroke-width="0.25"/>
<path d="M85.1257 77.2334L104.699 77.1267L85.2324 96.8063L85.1257 77.2334Z" fill="black" stroke="#A9A9A9" stroke-width="0.25"/>
<path d="M105.208 76.6457L85.6353 76.7524L105.102 57.0728L105.208 76.6457Z" fill="black" stroke="#A9A9A9" stroke-width="0.25"/>
<path d="M105.752 176.467L86.0728 157.001L105.646 156.895L105.752 176.467Z" fill="black" stroke="#A9A9A9" stroke-width="0.25"/>
<path d="M165.566 96.3169L165.46 76.744L185.139 96.2102L165.566 96.3169Z" fill="black" stroke="#A9A9A9" stroke-width="0.25"/>
<rect x="165.568" y="96.567" width="19.75" height="19.75" transform="rotate(-0.312342 165.568 96.567)" fill="black" stroke="#A9A9A9" stroke-width="0.25"/>
<path d="M165.786 136.566L185.359 136.46L165.892 156.139L165.786 136.566Z" fill="black" stroke="#A9A9A9" stroke-width="0.25"/>
</svg>
