<svg width="241" height="240" viewBox="0 0 241 240" fill="none" xmlns="http://www.w3.org/2000/svg">
<rect width="241" height="240" fill="white"/>
<rect x="73.125" y="36.125" width="19.75" height="19.75" fill="black" stroke="#A9A9A9" stroke-width="0.25"/>
<rect x="73.125" y="96.125" width="19.75" height="19.75" fill="black" stroke="#A9A9A9" stroke-width="0.25"/>
<rect x="33.125" y="76.125" width="19.75" height="19.75" fill="black" stroke="#A9A9A9" stroke-width="0.25"/>
<rect x="33.125" y="116.125" width="19.75" height="19.75" fill="black" stroke="#A9A9A9" stroke-width="0.25"/>
<path d="M52.875 195.698L33.3018 176.125H52.875V195.698Z" fill="black" stroke="#A9A9A9" stroke-width="0.25"/>
<rect x="33.125" y="36.125" width="19.75" height="19.75" fill="black" stroke="#A9A9A9" stroke-width="0.25"/>
<path d="M33.125 35.875V33.0578L52.875 16.2703V35.875H33.125Z" fill="black" stroke="#A9A9A9" stroke-width="0.25"/>
<rect x="33.125" y="56.125" width="19.75" height="19.75" fill="black" stroke="#A9A9A9" stroke-width="0.25"/>
<rect x="33.125" y="96.125" width="19.75" height="19.75" fill="black" stroke="#A9A9A9" stroke-width="0.25"/>
<rect x="33.125" y="156.125" width="19.75" height="19.75" fill="black" stroke="#A9A9A9" stroke-width="0.25"/>
<rect x="33.125" y="136.125" width="19.75" height="19.75" fill="black" stroke="#A9A9A9" stroke-width="0.25"/>
<rect x="113.125" y="36.125" width="19.75" height="19.75" fill="black" stroke="#A9A9A9" stroke-width="0.25"/>
<path d="M132.875 75.875H113.302L132.875 56.3018V75.875Z" fill="black" stroke="#A9A9A9" stroke-width="0.25"/>
<path d="M112.875 95.875H93.3018L112.875 76.3018V95.875Z" fill="black" stroke="#A9A9A9" stroke-width="0.25"/>
<path d="M132.875 175.698L113.302 156.125H132.875V175.698Z" fill="black" stroke="#A9A9A9" stroke-width="0.25"/>
<path d="M112.875 155.698L93.3018 136.125H112.875V155.698Z" fill="black" stroke="#A9A9A9" stroke-width="0.25"/>
<path d="M92.875 135.698L73.3018 116.125H92.875V135.698Z" fill="black" stroke="#A9A9A9" stroke-width="0.25"/>
<path d="M113.125 155.875V136.302L132.698 155.875H113.125Z" fill="black" stroke="#A9A9A9" stroke-width="0.25"/>
<path d="M153.125 176.125H172.698L153.125 195.698V176.125Z" fill="black" stroke="#A9A9A9" stroke-width="0.25"/>
<path d="M152.875 195.698L133.302 176.125H152.875V195.698Z" fill="black" stroke="#A9A9A9" stroke-width="0.25"/>
<path d="M133.125 175.875V156.302L152.698 175.875H133.125Z" fill="black" stroke="#A9A9A9" stroke-width="0.25"/>
<rect x="93.125" y="36.125" width="19.75" height="19.75" fill="black" stroke="#A9A9A9" stroke-width="0.25"/>
<path d="M93.125 96.125H112.713L93.125 117.182V96.125Z" fill="black" stroke="#A9A9A9" stroke-width="0.25"/>
<path d="M93.125 135.875V116.302L112.698 135.875H93.125Z" fill="black" stroke="#A9A9A9" stroke-width="0.25"/>
<rect x="53.125" y="36.125" width="19.75" height="19.75" fill="black" stroke="#A9A9A9" stroke-width="0.25"/>
<rect x="53.125" y="96.125" width="19.75" height="19.75" fill="black" stroke="#A9A9A9" stroke-width="0.25"/>
<path d="M133.125 55.875V36.3018L152.698 55.875H133.125Z" fill="black" stroke="#A9A9A9" stroke-width="0.25"/>
<path d="M113.125 76.125H132.698L113.125 95.6982V76.125Z" fill="black" stroke="#A9A9A9" stroke-width="0.25"/>
<path d="M133.125 56.125H152.698L133.125 75.6982V56.125Z" fill="black" stroke="#A9A9A9" stroke-width="0.25"/>
<path d="M153.125 175.875V156.302L172.698 175.875H153.125Z" fill="black" stroke="#A9A9A9" stroke-width="0.25"/>
</svg>
