<svg width="263" height="253" viewBox="0 0 263 253" fill="none" xmlns="http://www.w3.org/2000/svg">
<rect width="263" height="253" fill="white"/>
<rect x="122.875" y="55.875" width="19.75" height="19.75" transform="rotate(-180 122.875 55.875)" fill="white" stroke="#A9A9A9" stroke-width="0.25"/>
<rect x="123.125" y="196.125" width="19.75" height="19.75" fill="white" stroke="#A9A9A9" stroke-width="0.25"/>
<rect x="142.875" y="55.875" width="19.75" height="19.75" transform="rotate(-180 142.875 55.875)" fill="white" stroke="#A9A9A9" stroke-width="0.25"/>
<rect x="103.125" y="196.125" width="19.75" height="19.75" fill="white" stroke="#A9A9A9" stroke-width="0.25"/>
<rect x="122.875" y="55.875" width="19.75" height="19.75" transform="rotate(-180 122.875 55.875)" fill="white" stroke="#A9A9A9" stroke-width="0.25"/>
<rect x="123.125" y="196.125" width="19.75" height="19.75" fill="white" stroke="#A9A9A9" stroke-width="0.25"/>
<rect x="142.875" y="55.875" width="19.75" height="19.75" transform="rotate(-180 142.875 55.875)" fill="white" stroke="#A9A9A9" stroke-width="0.25"/>
<rect x="103.125" y="196.125" width="19.75" height="19.75" fill="white" stroke="#A9A9A9" stroke-width="0.25"/>
<rect x="122.875" y="55.875" width="19.75" height="19.75" transform="rotate(-180 122.875 55.875)" fill="white" stroke="#A9A9A9" stroke-width="0.25"/>
<rect x="123.125" y="196.125" width="19.75" height="19.75" fill="white" stroke="#A9A9A9" stroke-width="0.25"/>
<rect x="142.875" y="55.875" width="19.75" height="19.75" transform="rotate(-180 142.875 55.875)" fill="white" stroke="#A9A9A9" stroke-width="0.25"/>
<rect x="103.125" y="196.125" width="19.75" height="19.75" fill="white" stroke="#A9A9A9" stroke-width="0.25"/>
<rect x="122.875" y="55.875" width="19.75" height="19.75" transform="rotate(-180 122.875 55.875)" fill="white" stroke="#A9A9A9" stroke-width="0.25"/>
<rect x="123.125" y="196.125" width="19.75" height="19.75" fill="white" stroke="#A9A9A9" stroke-width="0.25"/>
<rect x="142.875" y="55.875" width="19.75" height="19.75" transform="rotate(-180 142.875 55.875)" fill="white" stroke="#A9A9A9" stroke-width="0.25"/>
<rect x="103.125" y="196.125" width="19.75" height="19.75" fill="white" stroke="#A9A9A9" stroke-width="0.25"/>
<rect x="122.875" y="55.875" width="19.75" height="19.75" transform="rotate(-180 122.875 55.875)" fill="white" stroke="#A9A9A9" stroke-width="0.25"/>
<rect x="123.125" y="196.125" width="19.75" height="19.75" fill="white" stroke="#A9A9A9" stroke-width="0.25"/>
<rect x="142.875" y="55.875" width="19.75" height="19.75" transform="rotate(-180 142.875 55.875)" fill="white" stroke="#A9A9A9" stroke-width="0.25"/>
<rect x="103.125" y="196.125" width="19.75" height="19.75" fill="white" stroke="#A9A9A9" stroke-width="0.25"/>
<rect x="122.875" y="55.875" width="19.75" height="19.75" transform="rotate(-180 122.875 55.875)" fill="white" stroke="#A9A9A9" stroke-width="0.25"/>
<rect x="123.125" y="196.125" width="19.75" height="19.75" fill="white" stroke="#A9A9A9" stroke-width="0.25"/>
<rect x="142.875" y="55.875" width="19.75" height="19.75" transform="rotate(-180 142.875 55.875)" fill="white" stroke="#A9A9A9" stroke-width="0.25"/>
<rect x="103.125" y="196.125" width="19.75" height="19.75" fill="white" stroke="#A9A9A9" stroke-width="0.25"/>
<rect x="122.875" y="55.875" width="19.75" height="19.75" transform="rotate(-180 122.875 55.875)" fill="white" stroke="#A9A9A9" stroke-width="0.25"/>
<rect x="123.125" y="196.125" width="19.75" height="19.75" fill="white" stroke="#A9A9A9" stroke-width="0.25"/>
<rect x="142.875" y="55.875" width="19.75" height="19.75" transform="rotate(-180 142.875 55.875)" fill="white" stroke="#A9A9A9" stroke-width="0.25"/>
<rect x="103.125" y="196.125" width="19.75" height="19.75" fill="white" stroke="#A9A9A9" stroke-width="0.25"/>
<rect x="122.875" y="55.875" width="19.75" height="19.75" transform="rotate(-180 122.875 55.875)" fill="white" stroke="#A9A9A9" stroke-width="0.25"/>
<rect x="123.125" y="196.125" width="19.75" height="19.75" fill="white" stroke="#A9A9A9" stroke-width="0.25"/>
<rect x="142.875" y="55.875" width="19.75" height="19.75" transform="rotate(-180 142.875 55.875)" fill="white" stroke="#A9A9A9" stroke-width="0.25"/>
<rect x="103.125" y="196.125" width="19.75" height="19.75" fill="white" stroke="#A9A9A9" stroke-width="0.25"/>
<rect x="122.875" y="55.875" width="19.75" height="19.75" transform="rotate(-180 122.875 55.875)" fill="white" stroke="#A9A9A9" stroke-width="0.25"/>
<rect x="123.125" y="196.125" width="19.75" height="19.75" fill="white" stroke="#A9A9A9" stroke-width="0.25"/>
<rect x="142.875" y="55.875" width="19.75" height="19.75" transform="rotate(-180 142.875 55.875)" fill="white" stroke="#A9A9A9" stroke-width="0.25"/>
<rect x="103.125" y="196.125" width="19.75" height="19.75" fill="white" stroke="#A9A9A9" stroke-width="0.25"/>
<rect x="122.875" y="55.875" width="19.75" height="19.75" transform="rotate(-180 122.875 55.875)" fill="white" stroke="#A9A9A9" stroke-width="0.25"/>
<rect x="123.125" y="196.125" width="19.75" height="19.75" fill="white" stroke="#A9A9A9" stroke-width="0.25"/>
<rect x="142.875" y="55.875" width="19.75" height="19.75" transform="rotate(-180 142.875 55.875)" fill="white" stroke="#A9A9A9" stroke-width="0.25"/>
<rect x="103.125" y="196.125" width="19.75" height="19.75" fill="white" stroke="#A9A9A9" stroke-width="0.25"/>
<rect x="122.875" y="55.875" width="19.75" height="19.75" transform="rotate(-180 122.875 55.875)" fill="white" stroke="#A9A9A9" stroke-width="0.25"/>
<rect x="123.125" y="196.125" width="19.75" height="19.75" fill="white" stroke="#A9A9A9" stroke-width="0.25"/>
<rect x="142.875" y="55.875" width="19.75" height="19.75" transform="rotate(-180 142.875 55.875)" fill="white" stroke="#A9A9A9" stroke-width="0.25"/>
<rect x="103.125" y="196.125" width="19.75" height="19.75" fill="white" stroke="#A9A9A9" stroke-width="0.25"/>
<rect x="122.875" y="55.875" width="19.75" height="19.75" transform="rotate(-180 122.875 55.875)" fill="white" stroke="#A9A9A9" stroke-width="0.25"/>
<rect x="123.125" y="196.125" width="19.75" height="19.75" fill="white" stroke="#A9A9A9" stroke-width="0.25"/>
<rect x="142.875" y="55.875" width="19.75" height="19.75" transform="rotate(-180 142.875 55.875)" fill="white" stroke="#A9A9A9" stroke-width="0.25"/>
<rect x="103.125" y="196.125" width="19.75" height="19.75" fill="white" stroke="#A9A9A9" stroke-width="0.25"/>
<path d="M83.125 95.875V76.3018L102.698 95.875H83.125Z" fill="black" stroke="#A9A9A9" stroke-width="0.25"/>
<path d="M123.125 135.875V116.302L142.698 135.875H123.125Z" fill="black" stroke="#A9A9A9" stroke-width="0.25"/>
<rect x="122.875" y="55.875" width="19.75" height="19.75" transform="rotate(-180 122.875 55.875)" fill="white" stroke="#A9A9A9" stroke-width="0.25"/>
<rect x="123.125" y="196.125" width="19.75" height="19.75" fill="white" stroke="#A9A9A9" stroke-width="0.25"/>
<rect x="142.875" y="55.875" width="19.75" height="19.75" transform="rotate(-180 142.875 55.875)" fill="white" stroke="#A9A9A9" stroke-width="0.25"/>
<rect x="103.125" y="196.125" width="19.75" height="19.75" fill="white" stroke="#A9A9A9" stroke-width="0.25"/>
<path d="M163.125 175.875V156.302L182.698 175.875H163.125Z" fill="black" stroke="#A9A9A9" stroke-width="0.25"/>
<rect x="122.875" y="55.875" width="19.75" height="19.75" transform="rotate(-180 122.875 55.875)" fill="white" stroke="#A9A9A9" stroke-width="0.25"/>
<rect x="123.125" y="196.125" width="19.75" height="19.75" fill="white" stroke="#A9A9A9" stroke-width="0.25"/>
<rect x="142.875" y="55.875" width="19.75" height="19.75" transform="rotate(-180 142.875 55.875)" fill="white" stroke="#A9A9A9" stroke-width="0.25"/>
<path d="M103.125 115.875V96.3018L122.698 115.875H103.125Z" fill="black" stroke="#A9A9A9" stroke-width="0.25"/>
<rect x="103.125" y="196.125" width="19.75" height="19.75" fill="white" stroke="#A9A9A9" stroke-width="0.25"/>
<path d="M163.125 176.125H182.698L163.125 195.698V176.125Z" fill="black" stroke="#A9A9A9" stroke-width="0.25"/>
<path d="M82.875 75.875L63.3018 75.875L82.875 56.3018L82.875 75.875Z" fill="black" stroke="#A9A9A9" stroke-width="0.25"/>
<path d="M82.875 175.875H63.3018L82.875 156.302V175.875Z" fill="black" stroke="#A9A9A9" stroke-width="0.25"/>
<path d="M143.125 155.875V136.302L162.698 155.875H143.125Z" fill="black" stroke="#A9A9A9" stroke-width="0.25"/>
<path d="M83.125 195.875V176.302L102.698 195.875H83.125Z" fill="black" stroke="#A9A9A9" stroke-width="0.25"/>
<rect x="122.875" y="55.875" width="19.75" height="19.75" transform="rotate(-180 122.875 55.875)" fill="white" stroke="#A9A9A9" stroke-width="0.25"/>
<rect x="123.125" y="196.125" width="19.75" height="19.75" fill="black" stroke="#A9A9A9" stroke-width="0.25"/>
<rect x="142.875" y="55.875" width="19.75" height="19.75" transform="rotate(-180 142.875 55.875)" fill="white" stroke="#A9A9A9" stroke-width="0.25"/>
<rect x="103.125" y="196.125" width="19.75" height="19.75" fill="black" stroke="#A9A9A9" stroke-width="0.25"/>
<path d="M163.125 76.125H182.698L163.125 95.6982V76.125Z" fill="black" stroke="#A9A9A9" stroke-width="0.25"/>
<path d="M162.875 195.875H143.302L162.875 176.302V195.875Z" fill="black" stroke="#A9A9A9" stroke-width="0.25"/>
<path d="M162.875 175.698L143.302 156.125H162.875V175.698Z" fill="black" stroke="#A9A9A9" stroke-width="0.25"/>
<path d="M143.125 196.125H162.698L143.125 215.698V196.125Z" fill="black" stroke="#A9A9A9" stroke-width="0.25"/>
<path d="M143.125 36.3018L162.698 55.875L143.125 55.875L143.125 36.3018Z" fill="black" stroke="#A9A9A9" stroke-width="0.25"/>
<path d="M102.875 115.698L83.3018 96.125H102.875V115.698Z" fill="black" stroke="#A9A9A9" stroke-width="0.25"/>
<path d="M162.875 56.125L162.875 75.6982L143.302 56.125L162.875 56.125Z" fill="black" stroke="#A9A9A9" stroke-width="0.25"/>
<path d="M102.875 215.698L83.3018 196.125H102.875V215.698Z" fill="black" stroke="#A9A9A9" stroke-width="0.25"/>
<path d="M142.875 155.698L123.302 136.125H142.875V155.698Z" fill="black" stroke="#A9A9A9" stroke-width="0.25"/>
<rect x="122.875" y="55.875" width="19.75" height="19.75" transform="rotate(-180 122.875 55.875)" fill="black" stroke="#A9A9A9" stroke-width="0.25"/>
<path d="M122.875 135.698L103.302 116.125H122.875V135.698Z" fill="black" stroke="#A9A9A9" stroke-width="0.25"/>
<rect x="142.875" y="55.875" width="19.75" height="19.75" transform="rotate(-180 142.875 55.875)" fill="black" stroke="#A9A9A9" stroke-width="0.25"/>
<path d="M82.875 95.6982L63.3018 76.125H82.875V95.6982Z" fill="black" stroke="#A9A9A9" stroke-width="0.25"/>
<path d="M82.875 195.698L63.3018 176.125H82.875V195.698Z" fill="black" stroke="#A9A9A9" stroke-width="0.25"/>
<path d="M182.625 75.875L163.125 75.875L163.125 56.3077L180.91 74.5872L180.917 74.5942L180.925 74.6L182.625 75.875Z" fill="black" stroke="#A9A9A9" stroke-width="0.25"/>
<path d="M102.875 55.875L83.3018 55.875L102.875 36.3018L102.875 55.875Z" fill="black" stroke="#A9A9A9" stroke-width="0.25"/>
<path d="M83.176 56.1253L102.749 56.1756L83.1258 75.6985L83.176 56.1253Z" fill="black" stroke="#A9A9A9" stroke-width="0.25"/>
</svg>
