<svg width="259" height="259" viewBox="0 0 259 259" fill="none" xmlns="http://www.w3.org/2000/svg">
<rect width="259" height="259" fill="white"/>
<path d="M141.433 110.183L141.483 90.6098L161.006 110.233L141.433 110.183Z" fill="black" stroke="#A9A9A9" stroke-width="0.25"/>
<rect x="202.535" y="70.5897" width="19.75" height="19.75" transform="rotate(0.147069 202.535 70.5897)" fill="white" stroke="#A9A9A9" stroke-width="0.25"/>
<rect x="202.432" y="110.589" width="19.75" height="19.75" transform="rotate(0.147069 202.432 110.589)" fill="white" stroke="#A9A9A9" stroke-width="0.25"/>
<rect x="202.586" y="50.5897" width="19.75" height="19.75" transform="rotate(0.147069 202.586 50.5897)" fill="white" stroke="#A9A9A9" stroke-width="0.25"/>
<rect x="202.483" y="90.5896" width="19.75" height="19.75" transform="rotate(0.147069 202.483 90.5896)" fill="white" stroke="#A9A9A9" stroke-width="0.25"/>
<rect x="202.329" y="150.589" width="19.75" height="19.75" transform="rotate(0.147069 202.329 150.589)" fill="white" stroke="#A9A9A9" stroke-width="0.25"/>
<rect x="202.381" y="130.589" width="19.75" height="19.75" transform="rotate(0.147069 202.381 130.589)" fill="white" stroke="#A9A9A9" stroke-width="0.25"/>
<rect x="42.5353" y="70.179" width="19.75" height="19.75" transform="rotate(0.147069 42.5353 70.179)" fill="white" stroke="#A9A9A9" stroke-width="0.25"/>
<rect x="42.4326" y="110.179" width="19.75" height="19.75" transform="rotate(0.147069 42.4326 110.179)" fill="white" stroke="#A9A9A9" stroke-width="0.25"/>
<rect x="42.5867" y="50.179" width="19.75" height="19.75" transform="rotate(0.147069 42.5867 50.179)" fill="white" stroke="#A9A9A9" stroke-width="0.25"/>
<rect x="42.4839" y="90.1789" width="19.75" height="19.75" transform="rotate(0.147069 42.4839 90.1789)" fill="white" stroke="#A9A9A9" stroke-width="0.25"/>
<rect x="41.3299" y="150.176" width="19.75" height="19.75" transform="rotate(0.147069 41.3299 150.176)" fill="white" stroke="#A9A9A9" stroke-width="0.25"/>
<path d="M102.398 109.296L121.233 90.5578L121.183 110.131L101.61 110.081L102.398 109.296Z" fill="black" stroke="#A9A9A9" stroke-width="0.25"/>
<path d="M181.081 150.108L161.558 130.485L181.131 130.535L181.081 150.108Z" fill="black" stroke="#A9A9A9" stroke-width="0.25"/>
<path d="M161.132 130.057L141.609 110.433L161.182 110.484L161.132 130.057Z" fill="black" stroke="#A9A9A9" stroke-width="0.25"/>
<path d="M161.382 130.234L161.432 110.661L180.955 130.284L161.382 130.234Z" fill="black" stroke="#A9A9A9" stroke-width="0.25"/>
<path d="M81.0804 150.028L61.5073 149.978L81.1307 130.455L81.0804 150.028Z" fill="black" stroke="#A9A9A9" stroke-width="0.25"/>
<rect x="121.484" y="90.3817" width="19.75" height="19.75" transform="rotate(0.147069 121.484 90.3817)" fill="black" stroke="#A9A9A9" stroke-width="0.25"/>
<path d="M201.587 50.3372L201.637 30.764L221.16 50.3874L201.587 50.3372Z" fill="black" stroke="#A9A9A9" stroke-width="0.25"/>
<rect x="201.535" y="70.5871" width="19.75" height="19.75" transform="rotate(0.147069 201.535 70.5871)" fill="black" stroke="#A9A9A9" stroke-width="0.25"/>
<rect x="201.432" y="110.587" width="19.75" height="19.75" transform="rotate(0.147069 201.432 110.587)" fill="black" stroke="#A9A9A9" stroke-width="0.25"/>
<path d="M201.278 170.587L220.851 170.637L201.228 190.16L201.278 170.587Z" fill="black" stroke="#A9A9A9" stroke-width="0.25"/>
<rect x="201.586" y="50.5871" width="19.75" height="19.75" transform="rotate(0.147069 201.586 50.5871)" fill="black" stroke="#A9A9A9" stroke-width="0.25"/>
<rect x="201.483" y="90.587" width="19.75" height="19.75" transform="rotate(0.147069 201.483 90.587)" fill="black" stroke="#A9A9A9" stroke-width="0.25"/>
<rect x="201.329" y="150.587" width="19.75" height="19.75" transform="rotate(0.147069 201.329 150.587)" fill="black" stroke="#A9A9A9" stroke-width="0.25"/>
<path d="M201.029 170.159L181.506 150.536L201.079 150.586L201.029 170.159Z" fill="black" stroke="#A9A9A9" stroke-width="0.25"/>
<rect x="201.381" y="130.587" width="19.75" height="19.75" transform="rotate(0.147069 201.381 130.587)" fill="black" stroke="#A9A9A9" stroke-width="0.25"/>
<rect x="41.5353" y="70.1764" width="19.75" height="19.75" transform="rotate(0.147069 41.5353 70.1764)" fill="black" stroke="#A9A9A9" stroke-width="0.25"/>
<rect x="41.4326" y="110.176" width="19.75" height="19.75" transform="rotate(0.147069 41.4326 110.176)" fill="black" stroke="#A9A9A9" stroke-width="0.25"/>
<rect x="41.3813" y="130.176" width="19.75" height="19.75" transform="rotate(0.147069 41.3813 130.176)" fill="black" stroke="#A9A9A9" stroke-width="0.25"/>
<rect x="41.3299" y="150.176" width="19.75" height="19.75" transform="rotate(0.147069 41.3299 150.176)" fill="black" stroke="#A9A9A9" stroke-width="0.25"/>
<path d="M61.3299 150.227L80.903 150.278L61.2796 169.801L61.3299 150.227Z" fill="black" stroke="#A9A9A9" stroke-width="0.25"/>
<path d="M60.9783 189.8L41.4554 170.176L61.0285 170.227L60.9783 189.8Z" fill="black" stroke="#A9A9A9" stroke-width="0.25"/>
<path d="M61.3372 49.9772L41.7641 49.9269L61.3875 30.404L61.3372 49.9772Z" fill="black" stroke="#A9A9A9" stroke-width="0.25"/>
<rect x="41.5867" y="50.1765" width="19.75" height="19.75" transform="rotate(0.147069 41.5867 50.1765)" fill="black" stroke="#A9A9A9" stroke-width="0.25"/>
<rect x="41.4839" y="90.1763" width="19.75" height="19.75" transform="rotate(0.147069 41.4839 90.1763)" fill="black" stroke="#A9A9A9" stroke-width="0.25"/>
<path d="M181.33 150.285L181.38 130.712L200.903 150.336L181.33 150.285Z" fill="black" stroke="#A9A9A9" stroke-width="0.25"/>
<path d="M101.132 130.08L81.5586 130.029L101.182 110.506L101.132 130.08Z" fill="black" stroke="#A9A9A9" stroke-width="0.25"/>
<path d="M101.432 110.33L121.006 110.381L101.382 129.903L101.432 110.33Z" fill="black" stroke="#A9A9A9" stroke-width="0.25"/>
<path d="M81.3811 130.279L100.954 130.329L81.3309 149.852L81.3811 130.279Z" fill="black" stroke="#A9A9A9" stroke-width="0.25"/>
<path d="M121.562 90.1319L131.41 70.5616L141.157 90.1822L121.562 90.1319Z" fill="black" stroke="#A9A9A9" stroke-width="0.25"/>
</svg>
