<svg width="280" height="280" viewBox="0 0 280 280" fill="none" xmlns="http://www.w3.org/2000/svg">
<rect width="280" height="280" fill="white"/>
<path d="M173.125 171.302L192.698 190.875L173.125 190.875L173.125 171.302Z" fill="black" stroke="#A9A9A9" stroke-width="0.25"/>
<path d="M192.698 191.125L173.125 210.698L173.125 191.125L192.698 191.125Z" fill="black" stroke="#A9A9A9" stroke-width="0.25"/>
<path d="M173.125 31.125H192.698L173.125 50.6982V31.125Z" fill="black" stroke="#A9A9A9" stroke-width="0.25"/>
<path d="M52.875 190.875L33.3018 190.875L52.875 171.302L52.875 190.875Z" fill="black" stroke="#A9A9A9" stroke-width="0.25"/>
<path d="M52.875 191.125L52.875 210.698L33.3018 191.125L52.875 191.125Z" fill="black" stroke="#A9A9A9" stroke-width="0.25"/>
<path d="M172.875 50.875H153.302L172.875 31.3018V50.875Z" fill="black" stroke="#A9A9A9" stroke-width="0.25"/>
<path d="M53.125 171.125L72.6982 171.125L53.125 190.698L53.125 171.125Z" fill="black" stroke="#A9A9A9" stroke-width="0.25"/>
<path d="M92.875 90.6982L73.3018 71.125H92.875V90.6982Z" fill="black" stroke="#A9A9A9" stroke-width="0.25"/>
<path d="M133.125 131.302L152.698 150.875L133.125 150.875L133.125 131.302Z" fill="black" stroke="#A9A9A9" stroke-width="0.25"/>
<path d="M73.125 70.875V51.3018L92.6982 70.875H73.125Z" fill="black" stroke="#A9A9A9" stroke-width="0.25"/>
<path d="M53.125 50.875V31.3018L72.6982 50.875H53.125Z" fill="black" stroke="#A9A9A9" stroke-width="0.25"/>
<path d="M152.875 151.125L152.875 170.698L133.302 151.125L152.875 151.125Z" fill="black" stroke="#A9A9A9" stroke-width="0.25"/>
<path d="M52.875 30.875H33.3018L52.875 11.3018V30.875Z" fill="black" stroke="#A9A9A9" stroke-width="0.25"/>
<path d="M132.875 90.875H113.302L132.875 71.3018V90.875Z" fill="black" stroke="#A9A9A9" stroke-width="0.25"/>
<path d="M93.125 131.125L112.698 131.125L93.125 150.698L93.125 131.125Z" fill="black" stroke="#A9A9A9" stroke-width="0.25"/>
<path d="M113.125 91.125H132.698L113.125 110.698V91.125Z" fill="black" stroke="#A9A9A9" stroke-width="0.25"/>
<path d="M112.875 130.875L93.3018 130.875L112.875 111.302L112.875 130.875Z" fill="black" stroke="#A9A9A9" stroke-width="0.25"/>
<path d="M173.125 30.875V11.3018L192.698 30.875H173.125Z" fill="black" stroke="#A9A9A9" stroke-width="0.25"/>
<path d="M93.125 90.875V71.3018L112.698 90.875H93.125Z" fill="black" stroke="#A9A9A9" stroke-width="0.25"/>
<path d="M132.875 131.125L132.875 150.698L113.302 131.125L132.875 131.125Z" fill="black" stroke="#A9A9A9" stroke-width="0.25"/>
<path d="M112.875 110.698L93.3018 91.125H112.875V110.698Z" fill="black" stroke="#A9A9A9" stroke-width="0.25"/>
<path d="M113.125 111.302L132.698 130.875L113.125 130.875L113.125 111.302Z" fill="black" stroke="#A9A9A9" stroke-width="0.25"/>
<path d="M153.125 51.125H172.698L153.125 70.6982V51.125Z" fill="black" stroke="#A9A9A9" stroke-width="0.25"/>
<path d="M72.875 170.875L53.3018 170.875L72.875 151.302L72.875 170.875Z" fill="black" stroke="#A9A9A9" stroke-width="0.25"/>
<path d="M172.875 171.125L172.875 190.698L153.302 171.125L172.875 171.125Z" fill="black" stroke="#A9A9A9" stroke-width="0.25"/>
<path d="M72.875 70.6982L53.3018 51.125H72.875V70.6982Z" fill="black" stroke="#A9A9A9" stroke-width="0.25"/>
<path d="M52.875 50.6982L33.3018 31.125H52.875V50.6982Z" fill="black" stroke="#A9A9A9" stroke-width="0.25"/>
<path d="M153.125 151.302L172.698 170.875L153.125 170.875L153.125 151.302Z" fill="black" stroke="#A9A9A9" stroke-width="0.25"/>
<path d="M133.125 71.125H152.698L133.125 90.6982V71.125Z" fill="black" stroke="#A9A9A9" stroke-width="0.25"/>
<path d="M92.875 150.875L73.3018 150.875L92.875 131.302L92.875 150.875Z" fill="black" stroke="#A9A9A9" stroke-width="0.25"/>
<path d="M152.875 70.875H133.302L152.875 51.3018V70.875Z" fill="black" stroke="#A9A9A9" stroke-width="0.25"/>
<path d="M73.125 151.125L92.6982 151.125L73.125 170.698L73.125 151.125Z" fill="black" stroke="#A9A9A9" stroke-width="0.25"/>
</svg>
