<svg width="217" height="203" viewBox="0 0 217 203" fill="none" xmlns="http://www.w3.org/2000/svg">
<rect width="217" height="203" fill="white"/>
<path d="M70.875 150.125L70.875 169.698L51.3018 150.125L70.875 150.125Z" fill="black" stroke="#A9A9A9" stroke-width="0.25"/>
<path d="M110.698 110.125L91.125 129.698L91.125 110.125L110.698 110.125Z" fill="black" stroke="#A9A9A9" stroke-width="0.25"/>
<path d="M91.3018 109.875L110.875 90.3018V109.875H91.3018Z" fill="black" stroke="#A9A9A9" stroke-width="0.25"/>
<path d="M151.125 49.875V30.3018L170.698 49.875H151.125Z" fill="black" stroke="#A9A9A9" stroke-width="0.25"/>
<path d="M90.6982 130.125L71.125 149.698L71.125 130.125L90.6982 130.125Z" fill="black" stroke="#A9A9A9" stroke-width="0.25"/>
<path d="M70.875 49.875H51.3018L70.875 30.3018V49.875Z" fill="black" stroke="#A9A9A9" stroke-width="0.25"/>
<path d="M90.875 89.6982L71.3018 70.125H90.875V89.6982Z" fill="black" stroke="#A9A9A9" stroke-width="0.25"/>
<path d="M71.125 69.875V50.3018L90.6982 69.875H71.125Z" fill="black" stroke="#A9A9A9" stroke-width="0.25"/>
<path d="M130.875 89.875H111.302L130.875 70.3018V89.875Z" fill="black" stroke="#A9A9A9" stroke-width="0.25"/>
<path d="M111.125 90.125H130.698L111.125 109.698V90.125Z" fill="black" stroke="#A9A9A9" stroke-width="0.25"/>
<path d="M91.125 89.875V70.3018L110.698 89.875H91.125Z" fill="black" stroke="#A9A9A9" stroke-width="0.25"/>
<path d="M110.875 109.698L91.3018 90.125H110.875V109.698Z" fill="black" stroke="#A9A9A9" stroke-width="0.25"/>
<path d="M70.875 149.875L51.3018 149.875L70.875 130.302L70.875 149.875Z" fill="black" stroke="#A9A9A9" stroke-width="0.25"/>
<path d="M151.125 50.125H170.698L151.125 69.6982V50.125Z" fill="black" stroke="#A9A9A9" stroke-width="0.25"/>
<path d="M70.875 69.6982L51.3018 50.125H70.875V69.6982Z" fill="black" stroke="#A9A9A9" stroke-width="0.25"/>
<path d="M131.125 70.125H150.698L131.125 89.6982V70.125Z" fill="black" stroke="#A9A9A9" stroke-width="0.25"/>
<path d="M150.875 69.875H131.302L150.875 50.3018V69.875Z" fill="black" stroke="#A9A9A9" stroke-width="0.25"/>
<path d="M90.875 129.875L71.3018 129.875L90.875 110.302L90.875 129.875Z" fill="black" stroke="#A9A9A9" stroke-width="0.25"/>
</svg>
