<svg width="180" height="141" viewBox="0 0 180 141" fill="none" xmlns="http://www.w3.org/2000/svg">
<rect x="159.125" y="20.125" width="19.75" height="19.75" fill="white" stroke="#A9A9A9" stroke-width="0.25"/>
<rect x="139.125" y="40.125" width="19.75" height="19.75" fill="white" stroke="#A9A9A9" stroke-width="0.25"/>
<rect x="119.125" y="60.125" width="19.75" height="19.75" fill="white" stroke="#A9A9A9" stroke-width="0.25"/>
<rect x="159.125" y="20.125" width="19.75" height="19.75" fill="white" stroke="#A9A9A9" stroke-width="0.25"/>
<rect x="139.125" y="40.125" width="19.75" height="19.75" fill="white" stroke="#A9A9A9" stroke-width="0.25"/>
<rect x="119.125" y="60.125" width="19.75" height="19.75" fill="white" stroke="#A9A9A9" stroke-width="0.25"/>
<path d="M119.875 79.875L100.302 79.875L119.875 60.3018L119.875 79.875Z" fill="#FF5722" stroke="#FF5722" stroke-width="0.25"/>
<path d="M140 79.9995L120 99.9995L120 79.9995L140 79.9995Z" fill="#FF5722"/>
<path d="M140 79.9995L120 99.9995L120 79.9995L140 79.9995Z" fill="#FF5722"/>
<path d="M140 79.9995L120 99.9995L120 79.9995L140 79.9995Z" stroke="#FF5722" stroke-width="0.25"/>
<path d="M159.875 39.875L140.302 39.875L159.875 20.3018L159.875 39.875Z" fill="white" stroke="#A9A9A9" stroke-width="0.25"/>
<rect x="159.875" y="59.875" width="19.75" height="19.75" transform="rotate(-180 159.875 59.875)" fill="#FF5722" stroke="#FF5722" stroke-width="0.25"/>
<path d="M159.875 39.875L140.302 39.875L159.875 20.3018L159.875 39.875Z" fill="#FF5722" stroke="#FF5722" stroke-width="0.25"/>
<rect x="139.875" y="79.875" width="19.75" height="19.75" transform="rotate(-180 139.875 79.875)" fill="#FF5722" stroke="#FF5722" stroke-width="0.25"/>
<path d="M139.875 59.875L120.302 59.875L139.875 40.3018L139.875 59.875Z" fill="#FF5722" stroke="#FF5722" stroke-width="0.25"/>
<path d="M100.125 100.125L119.698 100.125L100.125 119.698L100.125 100.125Z" fill="#FF5722" stroke="#FF5722" stroke-width="0.25"/>
<path d="M99.7999 120.125L90 140.215L80.2001 120.125L99.7999 120.125Z" fill="#FF5722" stroke="#FF5722" stroke-width="0.25"/>
<path d="M119.875 79.875L100.302 79.875L119.875 60.3018L119.875 79.875Z" fill="#FF5722" stroke="#FF5722" stroke-width="0.25"/>
<path d="M140 79.9995L120 99.9995L120 79.9995L140 79.9995Z" fill="#FF5722"/>
<path d="M140 79.9995L120 99.9995L120 79.9995L140 79.9995Z" fill="#FF5722"/>
<path d="M140 79.9995L120 99.9995L120 79.9995L140 79.9995Z" stroke="#FF5722" stroke-width="0.25"/>
<path d="M160 60L140 80L140 60L160 60Z" fill="#FF5722"/>
<path d="M160 60L140 80L140 60L160 60Z" fill="#FF5722"/>
<path d="M160 60L140 80L140 60L160 60Z" stroke="#FF5722" stroke-width="0.25"/>
<path d="M180 40L160 60L160 40L180 40Z" fill="#FF5722"/>
<path d="M180 40L160 60L160 40L180 40Z" fill="#FF5722"/>
<path d="M180 40L160 60L160 40L180 40Z" stroke="#FF5722" stroke-width="0.25"/>
<path d="M159.875 39.875L140.302 39.875L159.875 20.3018L159.875 39.875Z" fill="white" stroke="#A9A9A9" stroke-width="0.25"/>
<rect x="159.875" y="59.875" width="19.75" height="19.75" transform="rotate(-180 159.875 59.875)" fill="#FF5722" stroke="#FF5722" stroke-width="0.25"/>
<rect x="179.875" y="39.875" width="19.75" height="19.75" transform="rotate(-180 179.875 39.875)" fill="#FF5722" stroke="#FF5722" stroke-width="0.25"/>
<path d="M159.875 39.875L140.302 39.875L159.875 20.3018L159.875 39.875Z" fill="#FF5722" stroke="#FF5722" stroke-width="0.25"/>
<path d="M179.875 19.875L160.302 19.875L179.875 0.301777L179.875 19.875Z" fill="#FF5722" stroke="#FF5722" stroke-width="0.25"/>
<rect x="139.875" y="79.875" width="19.75" height="19.75" transform="rotate(-180 139.875 79.875)" fill="#FF5722" stroke="#FF5722" stroke-width="0.25"/>
<path d="M139.875 59.875L120.302 59.875L139.875 40.3018L139.875 59.875Z" fill="#FF5722" stroke="#FF5722" stroke-width="0.25"/>
<rect x="159.125" y="20.125" width="19.75" height="19.75" fill="white" stroke="#A9A9A9" stroke-width="0.25"/>
<rect x="-0.125" y="0.125" width="19.75" height="19.75" transform="matrix(-1 0 0 1 20.75 20)" fill="white" stroke="#A9A9A9" stroke-width="0.25"/>
<rect x="139.125" y="40.125" width="19.75" height="19.75" fill="white" stroke="#A9A9A9" stroke-width="0.25"/>
<rect x="-0.125" y="0.125" width="19.75" height="19.75" transform="matrix(-1 0 0 1 40.75 40)" fill="white" stroke="#A9A9A9" stroke-width="0.25"/>
<rect x="119.125" y="60.125" width="19.75" height="19.75" fill="white" stroke="#A9A9A9" stroke-width="0.25"/>
<rect x="-0.125" y="0.125" width="19.75" height="19.75" transform="matrix(-1 0 0 1 60.75 60)" fill="white" stroke="#A9A9A9" stroke-width="0.25"/>
<rect x="159.125" y="20.125" width="19.75" height="19.75" fill="white" stroke="#A9A9A9" stroke-width="0.25"/>
<rect x="-0.125" y="0.125" width="19.75" height="19.75" transform="matrix(-1 0 0 1 20.75 20)" fill="white" stroke="#A9A9A9" stroke-width="0.25"/>
<rect x="139.125" y="40.125" width="19.75" height="19.75" fill="white" stroke="#A9A9A9" stroke-width="0.25"/>
<rect x="-0.125" y="0.125" width="19.75" height="19.75" transform="matrix(-1 0 0 1 40.75 40)" fill="white" stroke="#A9A9A9" stroke-width="0.25"/>
<rect x="119.125" y="60.125" width="19.75" height="19.75" fill="white" stroke="#A9A9A9" stroke-width="0.25"/>
<rect x="-0.125" y="0.125" width="19.75" height="19.75" transform="matrix(-1 0 0 1 60.75 60)" fill="white" stroke="#A9A9A9" stroke-width="0.25"/>
<path d="M119.875 79.875L100.302 79.875L119.875 60.3018L119.875 79.875Z" fill="#FF5722" stroke="#FF5722" stroke-width="0.25"/>
<path d="M60.125 79.875L79.6982 79.875L60.125 60.3018L60.125 79.875Z" fill="#FF5722" stroke="#FF5722" stroke-width="0.25"/>
<path d="M140 79.9995L120 99.9995L120 79.9995L140 79.9995Z" fill="#FF5722"/>
<path d="M140 79.9995L120 99.9995L120 79.9995L140 79.9995Z" fill="#FF5722"/>
<path d="M140 79.9995L120 99.9995L120 79.9995L140 79.9995Z" stroke="#FF5722" stroke-width="0.25"/>
<path d="M40 79.9995L60 99.9995L60 79.9995L40 79.9995Z" fill="#FF5722"/>
<path d="M40 79.9995L60 99.9995L60 79.9995L40 79.9995Z" fill="#FF5722"/>
<path d="M40 79.9995L60 99.9995L60 79.9995L40 79.9995Z" stroke="#FF5722" stroke-width="0.25"/>
<path d="M159.875 39.875L140.302 39.875L159.875 20.3018L159.875 39.875Z" fill="white" stroke="#A9A9A9" stroke-width="0.25"/>
<path d="M20.125 39.875L39.6982 39.875L20.125 20.3018L20.125 39.875Z" fill="white" stroke="#A9A9A9" stroke-width="0.25"/>
<rect x="159.875" y="59.875" width="19.75" height="19.75" transform="rotate(-180 159.875 59.875)" fill="#FF5722" stroke="#FF5722" stroke-width="0.25"/>
<rect x="0.125" y="-0.125" width="19.75" height="19.75" transform="matrix(1 -2.3597e-08 -2.3597e-08 -1 20 59.75)" fill="#FF5722" stroke="#FF5722" stroke-width="0.25"/>
<path d="M159.875 39.875L140.302 39.875L159.875 20.3018L159.875 39.875Z" fill="#FF5722" stroke="#FF5722" stroke-width="0.25"/>
<path d="M20.125 39.875L39.6982 39.875L20.125 20.3018L20.125 39.875Z" fill="#FF5722" stroke="#FF5722" stroke-width="0.25"/>
<rect x="139.875" y="79.875" width="19.75" height="19.75" transform="rotate(-180 139.875 79.875)" fill="#FF5722" stroke="#FF5722" stroke-width="0.25"/>
<rect x="0.125" y="-0.125" width="19.75" height="19.75" transform="matrix(1 -2.3597e-08 -2.3597e-08 -1 40 79.75)" fill="#FF5722" stroke="#FF5722" stroke-width="0.25"/>
<path d="M139.875 59.875L120.302 59.875L139.875 40.3018L139.875 59.875Z" fill="#FF5722" stroke="#FF5722" stroke-width="0.25"/>
<path d="M40.125 59.875L59.6982 59.875L40.125 40.3018L40.125 59.875Z" fill="#FF5722" stroke="#FF5722" stroke-width="0.25"/>
<path d="M79.875 100.125L60.3018 100.125L79.875 119.698L79.875 100.125Z" fill="#FF5722" stroke="#FF5722" stroke-width="0.25"/>
<path d="M119.875 79.875L100.302 79.875L119.875 60.3018L119.875 79.875Z" fill="#FF5722" stroke="#FF5722" stroke-width="0.25"/>
<path d="M60.125 79.875L79.6982 79.875L60.125 60.3018L60.125 79.875Z" fill="#FF5722" stroke="#FF5722" stroke-width="0.25"/>
<path d="M140 79.9995L120 99.9995L120 79.9995L140 79.9995Z" fill="#FF5722"/>
<path d="M140 79.9995L120 99.9995L120 79.9995L140 79.9995Z" fill="#FF5722"/>
<path d="M140 79.9995L120 99.9995L120 79.9995L140 79.9995Z" stroke="#FF5722" stroke-width="0.25"/>
<path d="M40 79.9995L60 99.9995L60 79.9995L40 79.9995Z" fill="#FF5722"/>
<path d="M40 79.9995L60 99.9995L60 79.9995L40 79.9995Z" fill="#FF5722"/>
<path d="M40 79.9995L60 99.9995L60 79.9995L40 79.9995Z" stroke="#FF5722" stroke-width="0.25"/>
<path d="M160 60L140 80L140 60L160 60Z" fill="#FF5722"/>
<path d="M160 60L140 80L140 60L160 60Z" fill="#FF5722"/>
<path d="M160 60L140 80L140 60L160 60Z" stroke="#FF5722" stroke-width="0.25"/>
<path d="M20 60L40 80L40 60L20 60Z" fill="#FF5722"/>
<path d="M20 60L40 80L40 60L20 60Z" fill="#FF5722"/>
<path d="M20 60L40 80L40 60L20 60Z" stroke="#FF5722" stroke-width="0.25"/>
<path d="M180 40L160 60L160 40L180 40Z" fill="#FF5722"/>
<path d="M180 40L160 60L160 40L180 40Z" fill="#FF5722"/>
<path d="M180 40L160 60L160 40L180 40Z" stroke="#FF5722" stroke-width="0.25"/>
<path d="M-4.71939e-07 40L20 60L20 40L-4.71939e-07 40Z" fill="#FF5722"/>
<path d="M-4.71939e-07 40L20 60L20 40L-4.71939e-07 40Z" fill="#FF5722"/>
<path d="M-4.71939e-07 40L20 60L20 40L-4.71939e-07 40Z" stroke="#FF5722" stroke-width="0.25"/>
<path d="M159.875 39.875L140.302 39.875L159.875 20.3018L159.875 39.875Z" fill="white" stroke="#A9A9A9" stroke-width="0.25"/>
<path d="M20.125 39.875L39.6982 39.875L20.125 20.3018L20.125 39.875Z" fill="white" stroke="#A9A9A9" stroke-width="0.25"/>
<rect x="159.875" y="59.875" width="19.75" height="19.75" transform="rotate(-180 159.875 59.875)" fill="#FF5722" stroke="#FF5722" stroke-width="0.25"/>
<rect x="0.125" y="-0.125" width="19.75" height="19.75" transform="matrix(1 -2.3597e-08 -2.3597e-08 -1 20 59.75)" fill="#FF5722" stroke="#FF5722" stroke-width="0.25"/>
<rect x="179.875" y="39.875" width="19.75" height="19.75" transform="rotate(-180 179.875 39.875)" fill="#FF5722" stroke="#FF5722" stroke-width="0.25"/>
<rect x="0.125" y="-0.125" width="19.75" height="19.75" transform="matrix(1 -2.3597e-08 -2.3597e-08 -1 -2.94962e-09 39.75)" fill="#FF5722" stroke="#FF5722" stroke-width="0.25"/>
<path d="M159.875 39.875L140.302 39.875L159.875 20.3018L159.875 39.875Z" fill="#FF5722" stroke="#FF5722" stroke-width="0.25"/>
<path d="M20.125 39.875L39.6982 39.875L20.125 20.3018L20.125 39.875Z" fill="#FF5722" stroke="#FF5722" stroke-width="0.25"/>
<path d="M179.875 19.875L160.302 19.875L179.875 0.301777L179.875 19.875Z" fill="#FF5722" stroke="#FF5722" stroke-width="0.25"/>
<path d="M0.125 19.875L19.6982 19.875L0.125 0.301777L0.125 19.875Z" fill="#FF5722" stroke="#FF5722" stroke-width="0.25"/>
<rect x="139.875" y="79.875" width="19.75" height="19.75" transform="rotate(-180 139.875 79.875)" fill="#FF5722" stroke="#FF5722" stroke-width="0.25"/>
<rect x="0.125" y="-0.125" width="19.75" height="19.75" transform="matrix(1 -2.3597e-08 -2.3597e-08 -1 40 79.75)" fill="#FF5722" stroke="#FF5722" stroke-width="0.25"/>
<path d="M139.875 59.875L120.302 59.875L139.875 40.3018L139.875 59.875Z" fill="#FF5722" stroke="#FF5722" stroke-width="0.25"/>
<path d="M40.125 59.875L59.6982 59.875L40.125 40.3018L40.125 59.875Z" fill="#FF5722" stroke="#FF5722" stroke-width="0.25"/>
<path d="M79.875 100.125L60.3018 100.125L79.875 119.698L79.875 100.125Z" fill="#FF5722" stroke="#FF5722" stroke-width="0.25"/>
<rect x="79.875" y="99.875" width="19.75" height="19.75" transform="rotate(-180 79.875 99.875)" fill="#FF5722" stroke="#FF5722" stroke-width="0.25"/>
<path d="M80.125 80.3018L99.6982 99.875L80.125 99.875L80.125 80.3018Z" fill="#FF5722" stroke="#FF5722" stroke-width="0.25"/>
<path d="M99.875 80.3018L80.3018 99.875L99.875 99.875L99.875 80.3018Z" fill="#FF5722" stroke="#FF5722" stroke-width="0.25"/>
<rect x="119.875" y="99.875" width="19.75" height="19.75" transform="rotate(-180 119.875 99.875)" fill="#FF5722" stroke="#FF5722" stroke-width="0.25"/>
<rect x="99.875" y="119.875" width="19.75" height="19.75" transform="rotate(-180 99.875 119.875)" fill="#FF5722" stroke="#FF5722" stroke-width="0.25"/>
</svg>
