<svg width="180" height="169" viewBox="0 0 180 169" fill="none" xmlns="http://www.w3.org/2000/svg">
<path d="M60.125 60.125H79.6982L60.125 79.6982V60.125Z" fill="#FF5722" stroke="#FF5722" stroke-width="0.25"/>
<path d="M80.125 40.125H99.6982L80.125 59.6982V40.125Z" fill="#FF5722" stroke="#FF5722" stroke-width="0.25"/>
<rect x="60.125" y="40.125" width="19.75" height="19.75" fill="#FF5722" stroke="#FF5722" stroke-width="0.25"/>
<path d="M40.3018 59.875L59.875 40.3018V59.875H40.3018Z" fill="#FF5722" stroke="#FF5722" stroke-width="0.25"/>
<path d="M20 80L40 60V80H20Z" fill="#FF5722"/>
<path d="M20 80L40 60V80H20Z" fill="#FF5722"/>
<path d="M20 80L40 60V80H20Z" stroke="#FF5722" stroke-width="0.25"/>
<path d="M20.125 100.125H39.6982L20.125 119.698V100.125Z" fill="white" stroke="#A9A9A9" stroke-width="0.25"/>
<rect x="20.125" y="80.125" width="19.75" height="19.75" fill="#FF5722" stroke="#FF5722" stroke-width="0.25"/>
<path d="M119.875 78.6982L100.302 59.125H119.875V78.6982Z" fill="#FF5722" stroke="#FF5722" stroke-width="0.25"/>
<path d="M0.125 148.948V28.5527L19.875 9.29646V168.698L0.125 148.948Z" fill="#FF5722" stroke="#FF5722" stroke-width="0.25"/>
<path d="M99.875 58.6982L80.3018 39.125H99.875V58.6982Z" fill="#FF5722" stroke="#FF5722" stroke-width="0.25"/>
<path d="M140.125 79.875V60.3018L159.698 79.875H140.125Z" fill="#FF5722" stroke="#FF5722" stroke-width="0.25"/>
<path d="M159.875 118.698L140.302 99.125H159.875V118.698Z" fill="#FF5722" stroke="#FF5722" stroke-width="0.25"/>
<path d="M20.125 100.125H39.6982L20.125 119.698V100.125Z" fill="#FF5722" stroke="#FF5722" stroke-width="0.25"/>
<rect x="140.125" y="79.125" width="19.75" height="19.75" fill="#FF5722" stroke="#FF5722" stroke-width="0.25"/>
<rect x="40.125" y="60.125" width="19.75" height="19.75" fill="#FF5722" stroke="#FF5722" stroke-width="0.25"/>
<path d="M40.125 80.125H59.6982L40.125 99.6982V80.125Z" fill="#FF5722" stroke="#FF5722" stroke-width="0.25"/>
<path d="M79.875 39.875H60.3018L79.875 20.3018V39.875Z" fill="#FF5722" stroke="#FF5722" stroke-width="0.25"/>
<rect x="120.125" y="60.125" width="19.75" height="19.75" fill="#FF5722" stroke="#FF5722" stroke-width="0.25"/>
<rect x="100.125" y="39.125" width="19.75" height="19.75" fill="#FF5722" stroke="#FF5722" stroke-width="0.25"/>
<path d="M100.125 39.875V20.3018L119.698 39.875H100.125Z" fill="#FF5722" stroke="#FF5722" stroke-width="0.25"/>
<path d="M120.125 59.875V40.3018L139.698 59.875H120.125Z" fill="#FF5722" stroke="#FF5722" stroke-width="0.25"/>
<path d="M139.875 98.6982L120.302 79.125H139.875V98.6982Z" fill="#FF5722" stroke="#FF5722" stroke-width="0.25"/>
<path d="M80.2001 20.375L90 0.285112L99.7999 20.375H80.2001Z" fill="#FF5722" stroke="#A9A9A9" stroke-width="0.25"/>
<rect x="80.125" y="20.125" width="19.75" height="19.75" fill="#FF5722" stroke="#FF5722" stroke-width="0.25"/>
<path d="M60.125 60.125H79.6982L60.125 79.6982V60.125Z" fill="#FF5722" stroke="#FF5722" stroke-width="0.25"/>
<path d="M80.125 40.125H99.6982L80.125 59.6982V40.125Z" fill="#FF5722" stroke="#FF5722" stroke-width="0.25"/>
<rect x="60.125" y="40.125" width="19.75" height="19.75" fill="#FF5722" stroke="#FF5722" stroke-width="0.25"/>
<path d="M40 60L60 40V60H40Z" fill="#FF5722"/>
<path d="M40 60L60 40V60H40Z" fill="#FF5722"/>
<path d="M40 60L60 40V60H40Z" stroke="#FF5722" stroke-width="0.25"/>
<path d="M20 80L40 60V80H20Z" fill="#FF5722"/>
<path d="M20 80L40 60V80H20Z" fill="#FF5722"/>
<path d="M20 80L40 60V80H20Z" stroke="#FF5722" stroke-width="0.25"/>
<path d="M20.125 100.125H39.6982L20.125 119.698V100.125Z" fill="white" stroke="#A9A9A9" stroke-width="0.25"/>
<rect x="20.125" y="80.125" width="19.75" height="19.75" fill="#FF5722" stroke="#FF5722" stroke-width="0.25"/>
<path d="M119.875 75.6982L100.302 56.125H119.875V75.6982Z" fill="#FF5722" stroke="#FF5722" stroke-width="0.25"/>
<path d="M99.875 58.6982L80.3018 39.125H99.875V58.6982Z" fill="#FF5722" stroke="#FF5722" stroke-width="0.25"/>
<path d="M140.125 79.875V60.3018L159.698 79.875H140.125Z" fill="#FF5722" stroke="#FF5722" stroke-width="0.25"/>
<path d="M159.875 118.698L140.302 99.125H159.875V118.698Z" fill="#FF5722" stroke="#FF5722" stroke-width="0.25"/>
<path d="M20.125 100.125H39.6982L20.125 119.698V100.125Z" fill="#FF5722" stroke="#FF5722" stroke-width="0.25"/>
<rect x="140.125" y="79.125" width="19.75" height="19.75" fill="#FF5722" stroke="#FF5722" stroke-width="0.25"/>
<rect x="40.125" y="60.125" width="19.75" height="19.75" fill="#FF5722" stroke="#FF5722" stroke-width="0.25"/>
<path d="M40.125 80.125H59.6982L40.125 99.6982V80.125Z" fill="#FF5722" stroke="#FF5722" stroke-width="0.25"/>
<path d="M79.875 39.875H60.3018L79.875 20.3018V39.875Z" fill="#FF5722" stroke="#FF5722" stroke-width="0.25"/>
<rect x="100.125" y="39.125" width="19.75" height="19.75" fill="#FF5722" stroke="#FF5722" stroke-width="0.25"/>
<path d="M100.125 39.875V20.3018L119.698 39.875H100.125Z" fill="#FF5722" stroke="#FF5722" stroke-width="0.25"/>
<path d="M119.125 60.875V41.3018L138.698 60.875H119.125Z" fill="#FF5722" stroke="#FF5722" stroke-width="0.25"/>
<path d="M139.875 98.6982L120.302 79.125H139.875V98.6982Z" fill="#FF5722" stroke="#FF5722" stroke-width="0.25"/>
<path d="M80.2001 20.375L90 0.285112L99.7999 20.375H80.2001Z" fill="#FF5722" stroke="#A9A9A9" stroke-width="0.25"/>
<rect x="80.125" y="20.125" width="19.75" height="19.75" fill="#FF5722" stroke="#FF5722" stroke-width="0.25"/>
<path d="M179.875 140.447V19.5527L160.125 0.296457V159.704L179.875 140.447Z" fill="#FF5722" stroke="#FF5722" stroke-width="0.25"/>
</svg>
