<svg width="160" height="160" viewBox="0 0 160 160" fill="none" xmlns="http://www.w3.org/2000/svg">
<rect x="40.125" y="40.125" width="19.75" height="19.75" fill="#FF5722" stroke="#FF5722" stroke-width="0.25"/>
<path d="M40.125 39.875V20.3018L59.6982 39.875H40.125Z" fill="#FF5722" stroke="#FF5722" stroke-width="0.25"/>
<path d="M40.125 120.125H59.6982L40.125 139.698V120.125Z" fill="#FF5722" stroke="#A9A9A9" stroke-width="0.25"/>
<rect x="40.125" y="100.125" width="19.75" height="19.75" fill="#FF5722" stroke="#FF5722" stroke-width="0.25"/>
<path d="M19.875 39.6982L0.301777 20.125H19.875V39.6982Z" fill="#FF5722" stroke="#FF5722" stroke-width="0.25"/>
<path d="M0.301777 139.875L19.875 120.302V139.875H0.301777Z" fill="#FF5722" stroke="#FF5722" stroke-width="0.25"/>
<rect x="80.125" y="80.125" width="19.75" height="19.75" fill="#FF5722" stroke="#FF5722" stroke-width="0.25"/>
<rect x="80.125" y="60.125" width="19.75" height="19.75" fill="#FF5722" stroke="#FF5722" stroke-width="0.25"/>
<path d="M140.125 20.125H159.698L140.125 39.6982V20.125Z" fill="#FF5722" stroke="#FF5722" stroke-width="0.25"/>
<path d="M140.125 139.875V120.302L159.698 139.875H140.125Z" fill="#FF5722" stroke="#FF5722" stroke-width="0.25"/>
<rect x="60.125" y="80.125" width="19.75" height="19.75" fill="#FF5722" stroke="#FF5722" stroke-width="0.25"/>
<rect x="60.125" y="60.125" width="19.75" height="19.75" fill="#FF5722" stroke="#FF5722" stroke-width="0.25"/>
<path d="M40.125 120.125H59.6982L40.125 139.698V120.125Z" fill="#FF5722" stroke="#FF5722" stroke-width="0.25"/>
<path d="M139.875 19.875H120.302L139.875 0.301777V19.875Z" fill="#FF5722" stroke="#FF5722" stroke-width="0.25"/>
<path d="M120.125 40.125H139.698L120.125 59.6982V40.125Z" fill="#FF5722" stroke="#FF5722" stroke-width="0.25"/>
<path d="M139.875 159.698L120.302 140.125H139.875V159.698Z" fill="#FF5722" stroke="#FF5722" stroke-width="0.25"/>
<rect x="120.125" y="20.125" width="19.75" height="19.75" fill="#FF5722" stroke="#FF5722" stroke-width="0.25"/>
<rect x="120.125" y="120.125" width="19.75" height="19.75" fill="#FF5722" stroke="#FF5722" stroke-width="0.25"/>
<path d="M120.125 119.875V100.302L139.698 119.875H120.125Z" fill="#FF5722" stroke="#FF5722" stroke-width="0.25"/>
<path d="M20.125 19.875V0.301777L39.6982 19.875H20.125Z" fill="#FF5722" stroke="#FF5722" stroke-width="0.25"/>
<path d="M39.875 59.6982L20.3018 40.125H39.875V59.6982Z" fill="#FF5722" stroke="#FF5722" stroke-width="0.25"/>
<path d="M20.125 140.125H39.6982L20.125 159.698V140.125Z" fill="#FF5722" stroke="#FF5722" stroke-width="0.25"/>
<rect x="20.125" y="20.125" width="19.75" height="19.75" fill="#FF5722" stroke="#FF5722" stroke-width="0.25"/>
<rect x="20.125" y="120.125" width="19.75" height="19.75" fill="#FF5722" stroke="#FF5722" stroke-width="0.25"/>
<path d="M20.3018 119.875L39.875 100.302V119.875H20.3018Z" fill="#FF5722" stroke="#FF5722" stroke-width="0.25"/>
<rect x="100.125" y="40.125" width="19.75" height="19.75" fill="#FF5722" stroke="#FF5722" stroke-width="0.25"/>
<path d="M119.875 39.875H100.302L119.875 20.3018V39.875Z" fill="#FF5722" stroke="#FF5722" stroke-width="0.25"/>
<path d="M119.875 139.698L100.302 120.125H119.875V139.698Z" fill="#FF5722" stroke="#FF5722" stroke-width="0.25"/>
<rect x="100.125" y="100.125" width="19.75" height="19.75" fill="#FF5722" stroke="#FF5722" stroke-width="0.25"/>
<path d="M100.125 60.125H119.698L100.125 79.6982V60.125Z" fill="#FF5722" stroke="#FF5722" stroke-width="0.25"/>
<path d="M59.875 79.6982L40.3018 60.125H59.875V79.6982Z" fill="#FF5722" stroke="#FF5722" stroke-width="0.25"/>
<path d="M60.125 59.875V40.3018L79.6982 59.875H60.125Z" fill="#FF5722" stroke="#FF5722" stroke-width="0.25"/>
<path d="M99.875 59.875H80.3018L99.875 40.3018V59.875Z" fill="#FF5722" stroke="#FF5722" stroke-width="0.25"/>
<path d="M100.125 99.875V80.3018L119.698 99.875H100.125Z" fill="#FF5722" stroke="#FF5722" stroke-width="0.25"/>
<path d="M60.125 100.125H79.6982L60.125 119.698V100.125Z" fill="#FF5722" stroke="#FF5722" stroke-width="0.25"/>
<path d="M99.875 119.698L80.3018 100.125H99.875V119.698Z" fill="#FF5722" stroke="#FF5722" stroke-width="0.25"/>
<path d="M40.3018 99.875L59.875 80.3018V99.875H40.3018Z" fill="#FF5722" stroke="#FF5722" stroke-width="0.25"/>
</svg>
